<svg width="71" height="72" viewBox="0 0 71 72" fill="none" xmlns="http://www.w3.org/2000/svg">
<g clip-path="url(#clip0)">
<path d="M69.4696 5.1189H66.1303C65.5598 5.1189 65.0976 5.58115 65.0976 6.15164C65.0976 6.72214 65.5598 7.18439 66.1303 7.18439H68.4368V64.3298H2.0655V18.088C2.0655 17.5175 1.60324 17.0553 1.03275 17.0553C0.462258 17.0553 0 17.5175 0 18.088V65.3626C0 65.933 0.462258 66.3953 1.03275 66.3953H69.4696C70.04 66.3953 70.5023 65.933 70.5023 65.3626V6.15164C70.5023 5.58115 70.04 5.1189 69.4696 5.1189Z" fill="white"/>
<path d="M61.7239 5.1189H1.03275C0.462258 5.1189 0 5.58115 0 6.15165V13.6563C0 14.2268 0.462258 14.689 1.03275 14.689C1.60324 14.689 2.0655 14.2268 2.0655 13.6563V7.18439H61.7239C62.2944 7.18439 62.7567 6.72214 62.7567 6.15165C62.7567 5.58115 62.2944 5.1189 61.7239 5.1189Z" fill="white"/>
<path d="M65.3387 54.4384C65.9092 54.4384 66.3714 53.9762 66.3714 53.4057V10.2826C66.3714 9.71214 65.9092 9.24988 65.3387 9.24988H5.16385C4.59336 9.24988 4.1311 9.71214 4.1311 10.2826V61.2316C4.1311 61.802 4.59336 62.2643 5.16385 62.2643H65.3387C65.9092 62.2643 66.3714 61.802 66.3714 61.2316V57.8121C66.3714 57.2416 65.9092 56.7793 65.3387 56.7793C64.7682 56.7793 64.3059 57.2416 64.3059 57.8121V60.1988H6.1966V11.3154H64.3059V53.4057C64.3059 53.9762 64.7682 54.4384 65.3387 54.4384Z" fill="white"/>
<path d="M16.908 13.5465C16.908 13.5465 16.908 13.5465 16.908 13.5464C16.2466 13.0492 15.4316 12.8389 14.6117 12.9548C13.7924 13.0706 13.0671 13.4986 12.5696 14.16C12.0722 14.8214 11.862 15.6368 11.9779 16.4563C12.0937 17.2756 12.5217 18.0008 13.1831 18.4982C13.7256 18.9065 14.372 19.1212 15.0391 19.1212C15.1852 19.1212 15.3323 19.1108 15.4793 19.0899C16.2987 18.9741 17.0239 18.5461 17.5213 17.8848C18.5483 16.5197 18.2731 14.5735 16.908 13.5465ZM15.8707 16.6431C15.7049 16.8637 15.4632 17.0064 15.1902 17.0449C14.9172 17.0832 14.6454 17.0134 14.4248 16.8475C14.2044 16.6818 14.0617 16.44 14.0232 16.167C13.9845 15.8939 14.0546 15.6221 14.2205 15.4016C14.3861 15.1812 14.6279 15.0385 14.901 15C14.9499 14.9929 14.999 14.9896 15.0476 14.9896C15.2699 14.9896 15.4855 15.0612 15.6662 15.1973C16.1213 15.5396 16.213 16.1883 15.8707 16.6431Z" fill="white"/>
<path d="M31.389 15.5886C31.2732 14.7693 30.8452 14.0441 30.1839 13.5466C28.8188 12.5197 26.8729 12.7946 25.8455 14.1599C25.3481 14.8212 25.1378 15.6367 25.2538 16.4561C25.3696 17.2756 25.7977 18.0009 26.4589 18.4982C27.0015 18.9065 27.6478 19.1212 28.315 19.1212C28.4611 19.1212 28.6082 19.1109 28.7552 19.0899C29.5745 18.9741 30.2998 18.5462 30.7972 17.8849C31.2947 17.2235 31.5049 16.4081 31.389 15.5886ZM29.1466 16.6433C28.9808 16.8639 28.7391 17.0065 28.466 17.0451C28.1931 17.0834 27.9213 17.0136 27.7007 16.8476C27.4803 16.682 27.3376 16.4402 27.299 16.1671C27.2603 15.8939 27.3304 15.6221 27.4962 15.4018C27.6991 15.1323 28.0092 14.9903 28.3228 14.9903C28.5388 14.9903 28.7566 15.0577 28.9422 15.1973C29.1627 15.3632 29.3055 15.605 29.344 15.8781C29.3826 16.151 29.3125 16.4228 29.1466 16.6433Z" fill="white"/>
<path d="M43.5213 13.5466C42.8599 13.0492 42.0446 12.8384 41.2251 12.9547C40.4057 13.0705 39.6804 13.4985 39.1829 14.1599C38.6855 14.8212 38.4752 15.6367 38.5912 16.4562C38.707 17.2756 39.135 18.0009 39.7963 18.4982C40.3389 18.9065 40.9852 19.1212 41.6524 19.1212C41.7985 19.1212 41.9456 19.1109 42.0926 19.0899C42.9119 18.9741 43.6372 18.5462 44.1346 17.8848C45.1615 16.5198 44.8864 14.5735 43.5213 13.5466ZM42.4837 16.6433C42.3179 16.8639 42.0762 17.0065 41.8032 17.0451C41.5303 17.0834 41.2584 17.0136 41.0378 16.8476C40.8174 16.682 40.6747 16.4402 40.6362 16.1671C40.5976 15.8939 40.6677 15.6221 40.8336 15.4018C40.9993 15.1813 41.2411 15.0387 41.5141 15.0001C41.5632 14.9931 41.6122 14.9898 41.6608 14.9898C41.8832 14.9898 42.0987 15.0614 42.2793 15.1973C42.7344 15.5396 42.8261 16.1883 42.4837 16.6433Z" fill="white"/>
<path d="M56.8552 13.5466C56.194 13.0492 55.379 12.8384 54.5591 12.9547C53.7396 13.0705 53.0144 13.4985 52.5169 14.1599C52.0195 14.8212 51.8092 15.6367 51.9252 16.4562C52.041 17.2756 52.4689 18.0009 53.1303 18.4982C53.6729 18.9065 54.3192 19.1212 54.9864 19.1212C55.1325 19.1212 55.2795 19.1109 55.4266 19.0899C56.2459 18.9741 56.9712 18.5462 57.4686 17.8848C58.4955 16.5198 58.2204 14.5735 56.8552 13.5466ZM55.8177 16.6433C55.6519 16.8639 55.4102 17.0065 55.1372 17.0451C54.8642 17.0834 54.5923 17.0136 54.3718 16.8476C54.1514 16.682 54.0087 16.4402 53.9702 16.1671C53.9316 15.8939 54.0017 15.6221 54.1676 15.4018C54.3333 15.1813 54.5751 15.0387 54.8481 15.0001C54.8971 14.9931 54.9462 14.9898 54.9948 14.9898C55.2172 14.9898 55.4327 15.0614 55.6133 15.1973C56.0684 15.5396 56.1601 16.1883 55.8177 16.6433Z" fill="white"/>
<path d="M19.2452 21.2778H10.9832C10.4127 21.2778 9.95044 21.7401 9.95044 22.3106V30.5726C9.95044 31.1431 10.4127 31.6053 10.9832 31.6053H19.2452C19.8157 31.6053 20.2779 31.1431 20.2779 30.5726V22.3106C20.2779 21.7401 19.8157 21.2778 19.2452 21.2778ZM18.2124 29.5398H12.0159V23.3433H18.2124V29.5398Z" fill="white"/>
<path d="M32.4922 21.2778H24.2303C23.6598 21.2778 23.1975 21.7401 23.1975 22.3106V30.5726C23.1975 31.1431 23.6598 31.6053 24.2303 31.6053H32.4922C33.0627 31.6053 33.525 31.1431 33.525 30.5726V22.3106C33.525 21.7401 33.0627 21.2778 32.4922 21.2778ZM31.4595 29.5398H25.263V23.3433H31.4595V29.5398Z" fill="white"/>
<path d="M45.8077 21.2778H37.5457C36.9752 21.2778 36.5129 21.7401 36.5129 22.3106V30.5726C36.5129 31.1431 36.9752 31.6053 37.5457 31.6053H45.8077C46.3782 31.6053 46.8404 31.1431 46.8404 30.5726V22.3106C46.8404 21.7401 46.3782 21.2778 45.8077 21.2778ZM44.7749 29.5398H38.5784V23.3433H44.7749V29.5398Z" fill="white"/>
<path d="M59.1236 21.2778H50.8616C50.2911 21.2778 49.8289 21.7401 49.8289 22.3106V30.5726C49.8289 31.1431 50.2911 31.6053 50.8616 31.6053H59.1236C59.6941 31.6053 60.1563 31.1431 60.1563 30.5726V22.3106C60.1563 21.7401 59.6941 21.2778 59.1236 21.2778ZM58.0909 29.5398H51.8944V23.3433H58.0909V29.5398Z" fill="white"/>
<path d="M19.2452 34.4553H10.9832C10.4127 34.4553 9.95044 34.9176 9.95044 35.4881V43.7501C9.95044 44.3205 10.4127 44.7828 10.9832 44.7828H19.2452C19.8157 44.7828 20.2779 44.3205 20.2779 43.7501V35.4881C20.2779 34.9176 19.8157 34.4553 19.2452 34.4553ZM18.2124 42.7173H12.0159V36.5208H18.2124V42.7173Z" fill="white"/>
<path d="M32.4922 34.4553H24.2303C23.6598 34.4553 23.1975 34.9176 23.1975 35.4881V43.7501C23.1975 44.3205 23.6598 44.7828 24.2303 44.7828H32.4922C33.0627 44.7828 33.525 44.3205 33.525 43.7501V35.4881C33.525 34.9176 33.0627 34.4553 32.4922 34.4553ZM31.4595 42.7173H25.263V36.5208H31.4595V42.7173Z" fill="white"/>
<path d="M45.8077 34.4553H37.5457C36.9752 34.4553 36.5129 34.9176 36.5129 35.4881V43.7501C36.5129 44.3205 36.9752 44.7828 37.5457 44.7828H45.8077C46.3782 44.7828 46.8404 44.3205 46.8404 43.7501V35.4881C46.8404 34.9176 46.3782 34.4553 45.8077 34.4553ZM44.7749 42.7173H38.5784V36.5208H44.7749V42.7173Z" fill="white"/>
<path d="M59.1236 34.4553H50.8616C50.2911 34.4553 49.8289 34.9176 49.8289 35.4881V43.7501C49.8289 44.3205 50.2911 44.7828 50.8616 44.7828H59.1236C59.6941 44.7828 60.1563 44.3205 60.1563 43.7501V35.4881C60.1563 34.9176 59.6941 34.4553 59.1236 34.4553ZM58.0909 42.7173H51.8944V36.5208H58.0909V42.7173Z" fill="white"/>
<path d="M19.2452 47.6328H10.9832C10.4127 47.6328 9.95044 48.0951 9.95044 48.6656V56.9275C9.95044 57.498 10.4127 57.9603 10.9832 57.9603H19.2452C19.8157 57.9603 20.2779 57.498 20.2779 56.9275V48.6656C20.2779 48.0952 19.8155 47.6328 19.2452 47.6328ZM18.2124 55.8948H12.0159V49.6983H18.2124V55.8948Z" fill="white"/>
<path d="M32.4922 47.6328H24.2303C23.6598 47.6328 23.1975 48.0951 23.1975 48.6656V56.9275C23.1975 57.498 23.6598 57.9603 24.2303 57.9603H32.4922C33.0627 57.9603 33.525 57.498 33.525 56.9275V48.6656C33.525 48.0952 33.0626 47.6328 32.4922 47.6328ZM31.4595 55.8948H25.263V49.6983H31.4595V55.8948Z" fill="white"/>
<path d="M45.8077 47.6328H37.5457C36.9752 47.6328 36.5129 48.0951 36.5129 48.6656V56.9275C36.5129 57.498 36.9752 57.9603 37.5457 57.9603H45.8077C46.3782 57.9603 46.8404 57.498 46.8404 56.9275V48.6656C46.8404 48.0952 46.3782 47.6328 45.8077 47.6328ZM44.7749 55.8948H38.5784V49.6983H44.7749V55.8948Z" fill="white"/>
<path d="M59.1236 47.6328H50.8616C50.2911 47.6328 49.8289 48.0951 49.8289 48.6656V56.9275C49.8289 57.498 50.2911 57.9603 50.8616 57.9603H59.1236C59.6941 57.9603 60.1563 57.498 60.1563 56.9275V48.6656C60.1563 48.0952 59.6941 47.6328 59.1236 47.6328ZM58.0909 55.8948H51.8944V49.6983H58.0909V55.8948Z" fill="white"/>
</g>
<defs>
<clipPath id="clip0">
<rect width="70.5023" height="70.5023" fill="white" transform="translate(0 0.505981)"/>
</clipPath>
</defs>
</svg>
