<svg width="72" height="71" viewBox="0 0 72 71" fill="none" xmlns="http://www.w3.org/2000/svg">
<g clip-path="url(#clip0)">
<path d="M44.0301 45.5266C43.7242 45.0452 43.0858 44.9029 42.6044 45.209C41.2135 46.0931 39.4077 47.3174 37.7747 48.9488C34.8081 51.9108 34.1451 54.6 33.56 56.9724C33.0159 59.179 32.5019 61.2632 30.1797 63.578C24.7249 69.0149 14.9759 68.1449 8.44754 61.6388C4.94694 58.1496 2.93928 53.5412 2.93928 48.9952C2.93928 45.4258 4.17265 42.3098 6.50598 39.9838C7.63925 38.8543 8.78725 38.0717 10.1194 37.521C10.6465 37.3032 10.8972 36.699 10.6794 36.1717C10.4615 35.6446 9.85759 35.394 9.33048 35.6117C7.73991 36.2694 6.37902 37.1936 5.04787 38.5205C2.35626 41.2037 0.873779 44.9237 0.873779 48.9952C0.873779 54.0863 3.103 59.2282 6.98958 63.1021C11.0352 67.1341 16.2137 69.2059 21.0955 69.2059C25.0614 69.2059 28.8322 67.8376 31.6377 65.0415C34.3691 62.319 34.9772 59.8524 35.5655 57.4671C36.1364 55.152 36.6756 52.9655 39.2342 50.4107C40.7252 48.9212 42.4107 47.7802 43.7126 46.9525C44.1939 46.6466 44.3361 46.0082 44.0301 45.5266Z" fill="white"/>
<path d="M29.5463 50.1176L19.9084 40.511C19.5055 40.1093 18.8534 40.1093 18.4504 40.511L14.8362 44.1135C14.6418 44.3074 14.5325 44.5706 14.5325 44.8452C14.5325 45.1199 14.6418 45.3831 14.8362 45.5769L24.4741 55.1836C24.6756 55.3843 24.9394 55.4849 25.2031 55.4849C25.4668 55.4849 25.7306 55.3843 25.9321 55.1836L29.5463 51.5811C29.7407 51.3872 29.8501 51.1239 29.8501 50.8493C29.8501 50.5748 29.7407 50.3115 29.5463 50.1176ZM25.2031 52.9936L17.0283 44.8452L19.1794 42.7009L27.3543 50.8493L25.2031 52.9936Z" fill="white"/>
<path d="M22.7508 60.9499C22.6142 59.9846 22.1101 59.1303 21.3313 58.5443C20.5524 57.9582 19.5923 57.7109 18.6268 57.8473C17.6618 57.9837 16.8077 58.4878 16.2218 59.2669C15.6359 60.046 15.3883 61.0066 15.5246 61.9719C15.6611 62.9372 16.1652 63.7916 16.9441 64.3775C17.5831 64.8584 18.3443 65.1113 19.13 65.1113C19.302 65.1113 19.4752 65.0992 19.6486 65.0747C20.6136 64.9383 21.4677 64.4341 22.0538 63.655C22.6397 62.8758 22.8871 61.9152 22.7508 60.9499ZM20.4032 62.4131C20.1488 62.7512 19.7783 62.97 19.3594 63.0292C18.9408 63.0887 18.5241 62.981 18.1859 62.7265C17.8479 62.4723 17.6291 62.1016 17.5699 61.6826C17.5106 61.2637 17.6182 60.8469 17.8722 60.509C18.1266 60.1709 18.4971 59.9521 18.916 59.8928C18.9912 59.8822 19.0664 59.877 19.141 59.877C19.482 59.877 19.8122 59.9867 20.0895 60.1953C20.0895 60.1953 20.0895 60.1953 20.0895 60.1955C20.4275 60.4496 20.6463 60.8203 20.7056 61.2394C20.7648 61.6582 20.6572 62.0752 20.4032 62.4131Z" fill="white"/>
<path d="M29.1296 58.3645C27.9159 57.4517 26.1863 57.6962 25.2732 58.9099C24.3605 60.1237 24.6051 61.8541 25.8185 62.7671C26.3008 63.1298 26.8753 63.3208 27.4683 63.3208C27.598 63.3208 27.7288 63.3117 27.8595 63.2932C28.5879 63.1902 29.2326 62.8096 29.6749 62.2217C30.5877 61.0079 30.3432 59.2774 29.1296 58.3645ZM28.0242 60.9798C27.7963 61.2833 27.3636 61.3444 27.0603 61.1161C26.7569 60.8878 26.6959 60.4553 26.9239 60.1518C27.059 59.9721 27.2657 59.8774 27.475 59.8774C27.619 59.8774 27.7643 59.9224 27.888 60.0155C28.1913 60.2438 28.2525 60.6763 28.0242 60.9798Z" fill="white"/>
<path d="M69.893 2.79239C68.0763 0.981505 65.2683 0.823288 63.5771 2.41579L62.8681 2.87997L61.7076 1.72274C61.3035 1.31997 60.6496 1.3208 60.2471 1.72508C59.8443 2.12909 59.8454 2.78317 60.2495 3.18594L61.1024 4.03638L59.6228 5.00523L58.4194 3.80531C58.0154 3.40254 57.3615 3.40337 56.959 3.80766C56.5562 4.21167 56.5573 4.8656 56.9613 5.26851L57.8569 6.1615L56.3772 7.13049L55.1367 5.89339C54.7326 5.49076 54.079 5.49145 53.6762 5.89574C53.2736 6.29961 53.2745 6.95368 53.6786 7.35659L54.6113 8.28689L52.286 9.80903C51.8667 10.0759 51.5949 10.5157 51.5406 11.0158C51.482 11.5537 51.6758 12.0889 52.0724 12.4841C52.0695 12.487 52.0973 12.4978 52.0945 12.5006C52.0917 12.5034 52.0945 12.5006 52.0917 12.5034L34.6932 29.846C34.2145 27.2769 34.7415 24.3571 35.1809 21.9273C35.6583 19.288 35.9737 17.5445 34.9956 16.5828C34.6754 16.2678 34.088 15.9331 33.1091 16.1275C27.065 17.3276 24.0853 23.1315 21.9098 27.3695C21.0889 28.9686 20.3798 30.3497 19.7515 30.9757C17.4932 33.2272 15.5241 33.8776 13.7009 34.3507C13.1488 34.4939 12.8174 35.0578 12.9606 35.6101C13.0813 36.0754 13.5004 36.3838 13.9596 36.3838C14.0454 36.3838 14.1327 36.3731 14.2197 36.3505C16.2253 35.83 18.5851 35.0555 21.2095 32.4393C22.0683 31.5835 22.8093 30.1404 23.7473 28.3133C25.7304 24.4504 28.4464 19.1598 33.5113 18.154C33.5255 18.1512 33.5387 18.1488 33.5511 18.1467C33.6593 18.7345 33.367 20.3508 33.1485 21.5596C32.6335 24.4066 31.9402 28.2399 32.9918 31.5421L30.4076 34.1179L28.3651 32.082C27.9621 31.6803 27.31 31.6803 26.9071 32.082L23.293 35.6843C23.0986 35.8782 22.9893 36.1414 22.9893 36.4161C22.9893 36.6906 23.0986 36.9539 23.293 37.1478L32.9308 46.7546C33.1324 46.9553 33.3959 47.0559 33.6598 47.0559C33.9234 47.0559 34.1873 46.9553 34.3887 46.7546L38.0029 43.1521C38.1974 42.9582 38.3067 42.6949 38.3067 42.4203C38.3067 42.1456 38.1974 41.8825 38.0029 41.6886L35.966 39.6582L38.2515 37.3801C40.8071 38.7179 43.4092 38.99 45.3536 39.1928C46.4953 39.3118 47.916 39.4599 48.1606 39.8273C48.2006 39.8875 48.3125 40.1455 48.0724 40.9457C47.9009 41.5174 47.3313 42.1317 46.2799 42.8789C45.8149 43.2094 45.7059 43.8543 46.0361 44.3192C46.2375 44.6027 46.5558 44.7541 46.8789 44.7541C47.0858 44.7541 47.2948 44.6921 47.4761 44.5631C48.4629 43.8618 49.6473 42.8845 50.0506 41.5395C50.4126 40.3329 50.3565 39.3982 49.8794 38.6818C49.0962 37.5058 47.5391 37.3435 45.5676 37.1379C43.8662 36.9603 41.817 36.7439 39.8012 35.8355L58.0731 17.6234C58.3294 17.6805 58.5906 17.7109 58.8523 17.7109C58.8741 17.7109 58.8959 17.7107 58.9178 17.7102C59.8081 17.6936 60.6203 17.3405 61.2065 16.7158L61.878 16.027C62.2764 15.6186 62.2681 14.9645 61.8597 14.5663C61.4513 14.1676 60.7975 14.176 60.3994 14.5846L59.72 15.2814C59.7144 15.2871 59.7088 15.2929 59.7033 15.2988C59.4447 15.5769 59.1122 15.6403 58.8789 15.6447C58.4355 15.6509 57.9864 15.4602 57.6406 15.1154L53.7986 11.2879L64.7904 4.09077C64.8493 4.05221 64.904 4.00773 64.9538 3.95816C65.8315 3.08322 67.3932 3.21692 68.4353 4.25587C68.9917 4.81052 69.3108 5.54116 69.3108 6.2605C69.3108 6.82989 69.1063 7.34723 68.7351 7.71737C68.3141 8.13694 67.7202 8.33688 67.0668 8.28428C66.7615 8.25963 66.4581 8.37199 66.243 8.59245L63.5021 11.403C63.1038 11.8115 63.112 12.4655 63.5202 12.8639C63.9287 13.2621 64.5826 13.2539 64.9807 12.8457L67.4085 10.3562C68.4705 10.3221 69.4646 9.90707 70.1932 9.18084C70.9559 8.42005 71.3761 7.38289 71.3761 6.26036C71.3761 4.99587 70.8355 3.73178 69.893 2.79239ZM33.66 44.5645L25.4853 36.4159L27.6364 34.2718L35.8112 42.4202L33.66 44.5645ZM34.503 38.1996L31.8708 35.576L36.9439 30.5191L39.5718 33.1475L34.503 38.1996ZM41.0348 31.6891L38.407 29.0607L41.0395 26.4366L43.6674 29.0651L41.0348 31.6891ZM45.1307 27.6067L42.5027 24.9782L45.1354 22.354L47.7634 24.9826L45.1307 27.6067ZM49.2266 23.5243L46.5984 20.8957L49.231 18.2715L51.8591 20.9002L49.2266 23.5243ZM56.1825 16.5789C56.1846 16.581 56.1868 16.5828 56.1888 16.5848L53.3225 19.4418L50.6942 16.813L53.555 13.9612L56.1825 16.5789Z" fill="white"/>
</g>
<defs>
<clipPath id="clip0">
<rect width="70.5023" height="70.5023" fill="white" transform="translate(0.873779 0.0117188)"/>
</clipPath>
</defs>
</svg>
