<svg width="71" height="71" viewBox="0 0 71 71" fill="none" xmlns="http://www.w3.org/2000/svg">
<g clip-path="url(#clip0)">
<path d="M69.9671 50.1915C69.3968 50.1915 68.9344 50.6538 68.9344 51.2243V52.5324H66.8689V35.9396C66.8689 35.3691 66.4065 34.9069 65.8361 34.9069H61.6087H59.8186H58.0285H55.5913H53.8012H52.0111H47.7837H43.6305H41.7662H40.0503H37.5388H35.7487H33.9586H31.4866H29.7312H27.9066H23.7137H19.4864H17.6963H15.9062H13.4689H11.6788H9.88869H5.6613C5.09095 34.9069 4.62855 35.3691 4.62855 35.9396V52.5324H2.56306V39.6575C2.56306 39.087 2.10066 38.6248 1.53031 38.6248C0.959955 38.6248 0.497559 39.087 0.497559 39.6575V53.5652C0.497559 54.1357 0.959955 54.5979 1.53031 54.5979H5.6613H11.6788H17.6963H23.7137H29.7312H35.7487H41.7662H47.7837H53.8012H59.8186H65.8361H69.9671C70.5375 54.5979 70.9999 54.1357 70.9999 53.5652V51.2243C70.9999 50.6538 70.5375 50.1915 69.9671 50.1915ZM10.646 52.5324H6.69405V36.9724H8.85594V45.5786C8.85594 46.1491 9.31833 46.6113 9.88869 46.6113H10.646V52.5324ZM12.4361 44.5458H10.9214V36.9724H11.6788H12.4361V44.5458ZM16.6635 52.5324H12.7115V46.6113H13.4689C14.0392 46.6113 14.5016 46.1491 14.5016 45.5786V36.9724H14.8734V45.5786C14.8734 46.1491 15.3358 46.6113 15.9062 46.6113H16.6635V52.5324ZM18.4536 44.5458H16.9389V36.9724H17.6963H18.4536V44.5458ZM22.681 52.5324H18.729V46.6113H19.4864C20.0567 46.6113 20.5191 46.1491 20.5191 45.5786V36.9724H22.681V52.5324ZM28.6983 52.5324H24.7464V36.9724H24.7465H26.8737V45.5786C26.8737 46.1491 27.3361 46.6113 27.9064 46.6113H28.6983V52.5324V52.5324ZM30.4539 44.5458H28.9392V36.9724H29.7311H30.4539V44.5458ZM34.7161 52.5324H30.7641V46.6113H31.4868C32.0571 46.6113 32.5195 46.1491 32.5195 45.5786V36.9724H32.926V45.5786C32.926 46.1491 33.3884 46.6113 33.9588 46.6113H34.7161V52.5324ZM36.5061 44.5458H34.9914V36.9724H35.7487H36.5061V44.5458ZM40.7334 52.5324H36.7815V46.6113H37.5388C38.1092 46.6113 38.5716 46.1491 38.5716 45.5786V36.9724H39.0176V45.5786C39.0176 46.1491 39.48 46.6113 40.0503 46.6113H40.7334V52.5324ZM42.5978 44.5458H41.0831V36.9724H41.7662H42.5978V44.5458ZM46.7509 52.5324H42.7989V46.6113H43.6305C44.2009 46.6113 44.6633 46.1491 44.6633 45.5786V36.9724H46.7509V52.5324ZM52.7684 52.5324H48.8164V36.9724H50.9783V45.5786C50.9783 46.1491 51.4407 46.6113 52.0111 46.6113H52.7684V52.5324ZM54.5585 44.5458H53.0438V36.9724H53.8012H54.5585V44.5458ZM58.7859 52.5324H54.8339V46.6113H55.5913C56.1616 46.6113 56.624 46.1491 56.624 45.5786V36.9724H56.9958V45.5786C56.9958 46.1491 57.4582 46.6113 58.0285 46.6113H58.7859V52.5324ZM60.576 44.5458H59.0613V36.9724H59.8186H60.576V44.5458ZM64.8034 52.5324H60.8514V46.6113H61.6087C62.1791 46.6113 62.6415 46.1491 62.6415 45.5786V36.9724H64.8034V52.5324Z" fill="white"/>
<path d="M69.9671 15.9043H66.5935C66.0231 15.9043 65.5607 16.3666 65.5607 16.937C65.5607 17.5075 66.0231 17.9698 66.5935 17.9698H68.9344V29.5901H2.56306V17.9698H62.1871C62.7574 17.9698 63.2198 17.5075 63.2198 16.937C63.2198 16.3666 62.7574 15.9043 62.1871 15.9043H1.53031C0.959955 15.9043 0.497559 16.3666 0.497559 16.937V30.6229V30.6749V35.2511C0.497559 35.8216 0.959955 36.2839 1.53031 36.2839C2.10066 36.2839 2.56306 35.8216 2.56306 35.2511V31.7077H68.9344V46.772C68.9344 47.3425 69.3968 47.8048 69.9671 47.8048C70.5375 47.8048 70.9999 47.3425 70.9999 46.772V30.6749V30.6229V16.937C70.9999 16.3666 70.5375 15.9043 69.9671 15.9043Z" fill="white"/>
<path d="M48.8302 19.9498H22.6673C22.0969 19.9498 21.6345 20.4121 21.6345 20.9826V26.4906C21.6345 27.0611 22.0969 27.5233 22.6673 27.5233H48.8302C49.4006 27.5233 49.863 27.0611 49.863 26.4906V20.9826C49.863 20.4121 49.4006 19.9498 48.8302 19.9498ZM47.7975 25.4578H23.7V22.0153H47.7975V25.4578Z" fill="white"/>
<path d="M18.674 19.9498H14.543C13.9726 19.9498 13.5103 20.4121 13.5103 20.9826V26.4906C13.5103 27.0611 13.9726 27.5233 14.543 27.5233H18.674C19.2444 27.5233 19.7067 27.0611 19.7067 26.4906V20.9826C19.7067 20.4121 19.2444 19.9498 18.674 19.9498ZM17.6412 25.4578H15.5758V22.0153H17.6412V25.4578Z" fill="white"/>
<path d="M56.9545 19.9498H52.8235C52.2532 19.9498 51.7908 20.4121 51.7908 20.9826V26.4906C51.7908 27.0611 52.2532 27.5233 52.8235 27.5233H56.9545C57.5249 27.5233 57.9873 27.0611 57.9873 26.4906V20.9826C57.9873 20.4121 57.5249 19.9498 56.9545 19.9498ZM55.9218 25.4578H53.8563V22.0153H55.9218V25.4578Z" fill="white"/>
<path d="M10.9134 20.8645H8.43485C7.8645 20.8645 7.4021 21.3268 7.4021 21.8973C7.4021 22.4677 7.8645 22.93 8.43485 22.93H10.9134C11.4838 22.93 11.9462 22.4677 11.9462 21.8973C11.9462 21.3268 11.4838 20.8645 10.9134 20.8645Z" fill="white"/>
<path d="M10.9134 24.4448H8.43485C7.8645 24.4448 7.4021 24.9071 7.4021 25.4776C7.4021 26.0481 7.8645 26.5103 8.43485 26.5103H10.9134C11.4838 26.5103 11.9462 26.0481 11.9462 25.4776C11.9462 24.9071 11.4838 24.4448 10.9134 24.4448Z" fill="white"/>
<path d="M63.0626 20.8645H60.584C60.0137 20.8645 59.5513 21.3268 59.5513 21.8973C59.5513 22.4677 60.0137 22.93 60.584 22.93H63.0626C63.633 22.93 64.0954 22.4677 64.0954 21.8973C64.0954 21.3268 63.633 20.8645 63.0626 20.8645Z" fill="white"/>
<path d="M63.0626 24.4448H60.584C60.0137 24.4448 59.5513 24.9071 59.5513 25.4776C59.5513 26.0481 60.0137 26.5103 60.584 26.5103H63.0626C63.633 26.5103 64.0954 26.0481 64.0954 25.4776C64.0954 24.9071 63.633 24.4448 63.0626 24.4448Z" fill="white"/>
</g>
<defs>
<clipPath id="clip0">
<rect width="70.5023" height="70.5023" fill="white" transform="translate(0.497559)"/>
</clipPath>
</defs>
</svg>
