<svg width="71" height="71" viewBox="0 0 71 71" fill="none" xmlns="http://www.w3.org/2000/svg">
<g clip-path="url(#clip0)">
<path d="M70.5023 7.74617C70.5019 6.91129 70.1758 6.12682 69.5847 5.5376C68.3653 4.32033 66.3814 4.32033 65.1622 5.53746L59.742 10.9481C59.3383 11.351 59.3377 12.0049 59.7406 12.4087C60.1436 12.8121 60.7975 12.8131 61.2011 12.4099L66.6214 6.99942C67.036 6.58536 67.7106 6.5855 68.126 7.00011C68.3262 7.19964 68.4367 7.46499 68.4368 7.74713C68.4368 8.03011 68.3262 8.29628 68.1255 8.49705L52.0414 24.5527L50.539 23.0534L58.0592 15.5465C58.4629 15.1435 58.4635 14.4896 58.0606 14.0859C57.6577 13.6824 57.0037 13.6814 56.6001 14.0846L49.0235 21.6479C48.648 21.4894 48.198 21.5626 47.8919 21.8681L44.508 25.2475C40.3387 20.7764 32.8751 13.4826 30.5166 11.1888C30.0508 10.7358 29.2506 10.6649 28.695 11.0274C28.203 11.3484 28.0086 11.9294 28.2111 12.4727C28.6659 13.6934 28.6252 15.2949 28.0903 17.2324C27.9385 17.7823 28.2612 18.351 28.8109 18.5029C29.3606 18.6546 29.9295 18.332 30.0813 17.7821C30.4464 16.4598 30.6142 15.2427 30.5846 14.1405C33.6699 17.1575 39.2394 22.6508 42.7221 26.3615C39.3094 26.148 35.1713 27.5328 30.378 30.4965C25.4588 33.538 20.8205 37.6279 17.5872 40.7552L16.05 39.2208C18.22 36.8485 24.9098 29.2499 28.4109 22.0645C28.6607 21.5517 28.4477 20.9335 27.9349 20.6836C27.4222 20.4337 26.804 20.6467 26.5542 21.1596C22.6071 29.26 14.1211 38.2676 13.8734 38.5294L4.56943 47.817C4.56888 47.8175 4.56833 47.8179 4.56792 47.8183L3.86647 48.5187L3.09191 49.2919C3.09136 49.2924 3.09081 49.2931 3.09026 49.2937L1.95988 50.4222C0.696486 51.6829 0.000275479 53.3687 7.88819e-08 55.1693C-0.000275321 57.0088 0.720583 58.7418 2.03011 60.0488L5.86367 63.8758C7.21533 65.225 8.98629 65.9011 10.7482 65.9011C12.4764 65.9009 14.1963 65.2502 15.5021 63.9459L19.9623 59.4935C20.3659 59.0906 20.3666 58.4366 19.9636 58.0329C19.5607 57.629 18.9069 57.6286 18.503 58.0317L14.0428 62.4842C12.2098 64.3146 9.19546 64.283 7.32288 62.4138L3.48931 58.587C2.57099 57.6702 2.06522 56.4567 2.0655 55.1697C2.06564 53.9216 2.54634 52.7549 3.41922 51.8842L3.82186 51.4821L5.32334 52.981L4.92249 53.381C3.91935 54.3841 3.95088 56.0482 4.99368 57.0909L8.82862 60.9179C9.36276 61.4508 10.0602 61.719 10.7484 61.719C11.4032 61.719 12.0497 61.4761 12.5391 60.9878L31.2946 42.2646L32.796 43.7634L21.6216 54.9184C21.218 55.3213 21.2173 55.9753 21.6204 56.379C21.8221 56.5811 22.0866 56.6821 22.3513 56.6821C22.6153 56.6821 22.8792 56.5816 23.081 56.3802L34.2578 45.2226L35.4667 46.4292C35.6682 46.6305 35.9322 46.7311 36.1962 46.7311C36.4602 46.7311 36.7241 46.6305 36.9259 46.4292L38.757 44.6013C39.255 44.1042 39.5292 43.4431 39.5292 42.7397C39.5292 42.2197 39.3786 41.7236 39.0993 41.2989L53.225 27.195C53.4189 27.0014 53.5279 26.7386 53.528 26.4645C53.528 26.3266 53.5005 26.1916 53.4483 26.0666L69.5848 9.95845C70.1768 9.36758 70.5026 8.58187 70.5023 7.74617ZM5.28327 50.0211L14.6149 40.706L16.1169 42.2054C16.1143 42.2079 16.1218 42.2005 16.1193 42.2031C16.1169 42.2054 16.1193 42.2031 16.1169 42.2054L6.78502 51.5203L5.28327 50.0211ZM11.0795 59.5241C10.8838 59.7189 10.521 59.687 10.2871 59.4538L6.45303 55.628C6.22045 55.3953 6.18823 55.0342 6.38184 54.8406L7.51056 53.7144C7.51194 53.713 7.51345 53.7119 7.51483 53.7105L7.96359 53.2626L12.6579 57.9485L11.0795 59.5241ZM14.1196 56.4893L9.42528 51.8034L13.9864 47.2505L18.6808 51.9364L14.1196 56.4893ZM28.6268 39.6005L29.8328 40.8043L20.1423 50.4772L15.4481 45.7914C15.4483 45.7913 18.3037 42.9409 18.3039 42.9407C21.4702 39.8191 26.3234 35.4307 31.464 32.2525C35.2903 29.8868 38.5916 28.6076 41.3262 28.4241L33.767 35.9728C32.7456 35.3021 31.3556 35.4149 30.4578 36.3109L28.6267 38.1387C28.4327 38.3323 28.3236 38.5953 28.3236 38.8696C28.3236 39.1439 28.4327 39.4068 28.6268 39.6005ZM37.2975 43.1383L36.196 44.2379L30.8182 38.8696L31.917 37.7727C32.1394 37.5506 32.501 37.5508 32.7234 37.7726L37.2975 42.3386C37.4046 42.4454 37.4636 42.5875 37.4636 42.7385C37.4636 42.8894 37.4045 43.0313 37.2975 43.1383ZM37.6769 39.799L35.2671 37.3936L44.0277 28.6451C44.1459 28.6756 44.2629 28.7081 44.3782 28.7442C44.9031 28.9086 45.4586 28.7049 45.7601 28.2366C46.0291 27.8191 46.0536 27.2676 45.8539 26.8217L48.6221 24.0573L51.0336 26.4633L37.6769 39.799Z" fill="white"/>
</g>
<defs>
<clipPath id="clip0">
<rect width="70.5023" height="70.5023" fill="white" transform="translate(0 0.0117188)"/>
</clipPath>
</defs>
</svg>
