<svg width="72" height="71" viewBox="0 0 72 71" fill="none" xmlns="http://www.w3.org/2000/svg">
<g clip-path="url(#clip0)">
<path d="M71.1925 19.9142C71.1854 19.2889 70.7046 18.7171 70.0741 18.584C69.5204 18.4676 68.9707 18.7369 68.736 19.2416C67.622 21.6499 63.4429 23.555 56.6499 24.7508C51.1214 25.7241 45.7034 25.8896 44.6451 25.9133H44.4668H41.162V24.2104C41.162 23.6461 40.6996 23.1886 40.1292 23.1886H39.0965V21.5538H40.1292C40.6996 21.5538 41.162 21.0963 41.162 20.5321C41.162 19.9678 40.6996 19.5103 40.1292 19.5103H35.9982C35.4279 19.5103 34.9655 19.9678 34.9655 20.5321C34.9655 21.0963 35.4279 21.5538 35.9982 21.5538H37.031V23.1886H35.9982C35.4279 23.1886 34.9655 23.6461 34.9655 24.2104V25.9133H34.0016V24.2104C34.0016 23.6461 33.5392 23.1886 32.9688 23.1886H31.9361V21.5538H32.9688C33.5392 21.5538 34.0016 21.0963 34.0016 20.5321C34.0016 19.9678 33.5392 19.5103 32.9688 19.5103H28.8379C28.2675 19.5103 27.8051 19.9678 27.8051 20.5321C27.8051 21.0963 28.2675 21.5538 28.8379 21.5538H29.8706V23.1886H28.8379C28.2675 23.1886 27.8051 23.6461 27.8051 24.2104V25.9133H26.8412V24.2104C26.8412 23.6461 26.3788 23.1886 25.8085 23.1886H24.7757V21.5538H25.8085C26.3788 21.5538 26.8412 21.0963 26.8412 20.5321C26.8412 19.9678 26.3788 19.5103 25.8085 19.5103H21.6775C21.1071 19.5103 20.6447 19.9678 20.6447 20.5321C20.6447 21.0963 21.1071 21.5538 21.6775 21.5538H22.7102V23.1886H21.6775C21.1071 23.1886 20.6447 23.6461 20.6447 24.2104V25.9133H13.6438H6.94404V25.6279C6.94404 25.0636 6.48164 24.6062 5.91129 24.6062H1.78031C1.20995 24.6062 0.747559 25.0636 0.747559 25.6279V32.1673C0.747559 32.7316 1.20995 33.1891 1.78031 33.1891H5.91129C6.48164 33.1891 6.94404 32.7316 6.94404 32.1673V32.044H9.30627V32.5719C9.30627 33.1362 9.76867 33.5937 10.339 33.5937C10.9094 33.5937 11.3718 33.1362 11.3718 32.5719V31.0354C11.3718 31.031 11.3725 31.0266 11.3725 31.0221C11.3725 31.0176 11.3719 31.0134 11.3718 31.0089V30.2047C11.3718 28.9653 12.391 27.9569 13.6438 27.9569H44.3817C44.4166 27.9599 44.452 27.9612 44.4877 27.9607L44.6674 27.9569H48.3437C49.5965 27.9569 50.6157 28.9653 50.6157 30.2047V42.7386C50.6157 43.9781 49.5965 44.9865 48.3437 44.9865H46.5207C45.9503 44.9865 45.4879 45.444 45.4879 46.0082C45.4879 46.5725 45.9503 47.03 46.5207 47.03H48.3437C50.7354 47.03 52.6812 45.1049 52.6812 42.7385V32.4413C54.5524 32.6236 56.2938 32.8678 57.867 33.1715C57.9338 33.1845 58.0003 33.1906 58.0658 33.1906C58.55 33.1906 58.9822 32.852 59.0783 32.3642C59.1875 31.8103 58.8222 31.2738 58.2623 31.1657C56.5686 30.8389 54.6947 30.5779 52.6812 30.3874V30.2047C52.6812 29.1772 52.314 28.2331 51.703 27.4935C53.3632 27.3208 55.1809 27.0851 57.0119 26.7628C62.8808 25.7294 66.947 24.1551 69.1516 22.0691C69.1851 25.4995 69.2202 31.7176 69.0957 35.93C67.6392 34.4339 65.4845 33.2116 62.6589 32.2826C62.1176 32.1043 61.5331 32.3944 61.3533 32.93C61.1734 33.4655 61.4663 34.0438 62.0076 34.2219C65.4217 35.3443 67.66 36.8755 68.6599 38.7714C68.8675 39.1668 69.2684 39.4007 69.7052 39.4007C69.79 39.4007 69.8765 39.3919 69.9629 39.3736C70.5604 39.2477 71.038 38.7022 71.0742 38.1008C71.3446 33.2786 71.2329 22.9598 71.1925 19.9142ZM4.87868 26.935V31.0221V31.1454H2.81319V26.6496H4.87868V26.935ZM9.31165 30.0004H6.94404V27.9569H9.95085C9.57658 28.5566 9.34717 29.2537 9.31165 30.0004ZM24.776 25.9132H22.7105V25.232H24.776V25.9132ZM31.9362 25.9132H29.8707V25.232H31.9362V25.9132ZM39.0965 25.9132H37.031V25.232H39.0965V25.9132Z" fill="white"/>
<path d="M42.0686 44.9864H13.6439C12.3911 44.9864 11.3719 43.978 11.3719 42.7386V36.9995C11.3719 36.4353 10.9095 35.9778 10.3391 35.9778C9.76879 35.9778 9.3064 36.4353 9.3064 36.9995V42.7386C9.3064 45.1048 11.2522 47.0301 13.6439 47.0301H20.6451V51.1853C20.6451 51.7495 21.1075 52.207 21.6779 52.207H25.8089C26.3792 52.207 26.8416 51.7495 26.8416 51.1853V47.03H27.8055V51.1853C27.8055 51.7495 28.2679 52.207 28.8382 52.207H32.9692C33.5396 52.207 34.002 51.7495 34.002 51.1853V47.03H34.9659V51.1853C34.9659 51.7495 35.4283 52.207 35.9986 52.207H40.1296C40.7 52.207 41.1624 51.7495 41.1624 51.1853V47.03H42.0688C42.6392 47.03 43.1016 46.5725 43.1016 46.0082C43.1013 45.4439 42.639 44.9864 42.0686 44.9864ZM24.7761 50.1635H22.7106V47.0301H24.7761V50.1635ZM31.9364 50.1635H29.8709V47.0301H31.9364V50.1635ZM39.0966 50.1635H37.0311V47.0301H39.0966V50.1635Z" fill="white"/>
<path d="M47.5175 30.0005H44.4668H14.4707H14.47C13.8997 30.0005 13.4373 30.458 13.4373 31.0222V41.9212C13.4373 42.4854 13.8997 42.9429 14.47 42.9429H47.5175C48.0878 42.9429 48.5502 42.4854 48.5502 41.9212V31.0222C48.5502 30.458 48.0878 30.0005 47.5175 30.0005ZM20.645 32.0439V40.8993H15.5027V32.0439H20.645ZM24.776 40.8994H22.7105V32.044H24.776V40.8994ZM27.8052 40.8994H26.8413V32.044H27.8052V40.8994ZM31.9362 40.8994H29.8707V32.044H31.9362V40.8994ZM34.9656 40.8994H34.0017V32.044H34.9656V40.8994ZM39.0965 40.8993H37.031V32.0439H39.0965V40.8993ZM46.4847 32.0439V40.8993H41.162V32.0439H44.4668H46.4847Z" fill="white"/>
</g>
<defs>
<clipPath id="clip0">
<rect width="70.5023" height="69.7523" fill="white" transform="translate(0.747559 0.505981)"/>
</clipPath>
</defs>
</svg>
