<svg width="71" height="71" viewBox="0 0 71 71" fill="none" xmlns="http://www.w3.org/2000/svg">
<g clip-path="url(#clip0)">
<path d="M29.0615 66.6476C28.7489 66.1707 28.1087 66.0374 27.6316 66.35C24.8944 68.1438 21.3942 68.8053 17.7763 68.2135C14.0686 67.6069 10.4594 65.7129 7.61355 62.8804C4.08789 59.3718 2.06563 54.7383 2.06549 50.1682C2.06536 46.5795 3.30768 43.4461 5.65794 41.107C6.83609 39.9349 8.03876 39.13 9.44316 38.5736C9.97344 38.3637 10.2329 37.7636 10.0229 37.2334C9.81275 36.7033 9.21238 36.4436 8.68237 36.6537C7.00849 37.3166 5.58454 38.2666 4.20094 39.6432C1.49184 42.3395 -0.00013769 46.0773 9.53073e-09 50.1682C0.000137709 55.2839 2.24409 60.4508 6.15627 64.344C10.2026 68.3713 15.4062 70.5022 20.3474 70.5022C23.3573 70.5022 26.2698 69.7115 28.7639 68.0773C29.2409 67.7647 29.3742 67.1247 29.0615 66.6476Z" fill="white"/>
<path d="M29.7684 50.3887L20.065 40.7324C19.6618 40.3314 19.0107 40.3314 18.6078 40.7324L14.969 44.3536C14.7743 44.5473 14.6648 44.8108 14.6648 45.0855C14.6648 45.3602 14.7743 45.6236 14.969 45.8173L24.6724 55.4737C24.8738 55.6742 25.1374 55.7744 25.401 55.7744C25.6645 55.7744 25.9281 55.6742 26.1295 55.4737L29.7684 51.8524C29.9631 51.6587 30.0725 51.3953 30.0725 51.1206C30.0725 50.8459 29.9631 50.5824 29.7684 50.3887ZM25.401 53.2851L17.1616 45.0855L19.3364 42.9211L27.5758 51.1207L25.401 53.2851Z" fill="white"/>
<path d="M25.137 62.9201C25.0107 62.028 24.5448 61.2384 23.8246 60.6968C23.1043 60.1551 22.2164 59.9264 21.3242 60.0525C20.432 60.1787 19.6424 60.6446 19.1007 61.3647C17.9824 62.851 18.282 64.9697 19.7685 66.0878C20.3594 66.5321 21.063 66.7659 21.7895 66.7659C21.9486 66.7659 22.1086 66.7547 22.2689 66.7321C23.1612 66.6059 23.9507 66.14 24.4924 65.4201C25.0343 64.7 25.2631 63.8123 25.137 62.9201ZM22.8418 64.1786C22.6318 64.4577 22.3256 64.6383 21.9796 64.6872C21.6339 64.736 21.2893 64.6474 21.0102 64.4373C20.4337 64.0038 20.3177 63.1823 20.7513 62.606C21.0078 62.2648 21.4007 62.085 21.7981 62.085C22.0718 62.085 22.3478 62.1704 22.5828 62.3472C22.8621 62.5572 23.0429 62.8633 23.0916 63.2092C23.1406 63.5551 23.052 63.8993 22.8418 64.1786Z" fill="white"/>
<path d="M38.5824 26.4104C38.5842 26.4086 38.5824 26.4104 38.5842 26.4086C38.586 26.4067 38.5805 26.4123 38.5824 26.4104Z" fill="white"/>
<path d="M68.2481 8.86928L70.0176 6.71717C70.644 5.98667 70.6664 4.98987 70.0676 4.39211L66.101 0.433525C65.5007 -0.165743 64.5006 -0.140407 63.7693 0.489982L61.6308 2.26218L60.0499 0.683174C59.6465 0.280265 58.9925 0.280541 58.5893 0.684001C58.1863 1.08746 58.1867 1.74126 58.5903 2.1443L60.0337 3.58574L58.4165 4.92584L57.1085 3.61976C56.7048 3.21698 56.0508 3.21726 55.6479 3.62072C55.2449 4.02432 55.2453 4.67798 55.6489 5.08102L56.8192 6.2494L56.2946 6.68412C56.2384 6.73066 56.1873 6.78313 56.1423 6.84041L55.399 7.78448L54.1688 6.5562C53.7649 6.15329 53.1112 6.1537 52.7082 6.55716C52.3051 6.96062 52.3056 7.61442 52.7092 8.01747L54.1123 9.41842L53.1234 10.6744C52.827 11.0507 52.8321 11.5749 53.1189 11.9447L38.5824 26.4104C35.2975 23.9134 32.1663 22.8579 29.2664 23.2743C24.626 23.9401 21.7765 28.1143 20.0738 30.6083C19.65 31.2292 19.2497 31.8155 19.004 32.061C16.7529 34.309 14.7441 34.9763 13.0382 35.4253C12.4866 35.5706 12.1572 36.1353 12.3023 36.6868C12.4243 37.1501 12.8427 37.4567 13.3004 37.4567C13.3874 37.4567 13.4758 37.4455 13.5639 37.4224C15.6754 36.8666 17.9727 36.0093 20.464 33.5218C20.8466 33.1392 21.2584 32.5361 21.7796 31.7726C23.3884 29.4161 25.8195 25.8551 29.5597 25.3185C31.8309 24.9927 34.3647 25.8549 37.1033 27.8821L29.7272 35.2222L27.6661 33.171C27.2632 32.7701 26.6119 32.7701 26.209 33.171L22.5702 36.7923C22.3755 36.9861 22.266 37.2494 22.266 37.5241C22.266 37.7988 22.3755 38.0623 22.5702 38.256L32.2736 47.9125C32.475 48.113 32.7386 48.2132 33.0021 48.2132C33.2657 48.2132 33.5293 48.113 33.7307 47.9125L37.3696 44.2912C37.5643 44.0974 37.6737 43.8341 37.6737 43.5594C37.6737 43.2847 37.5643 43.0212 37.3696 42.8275L35.3148 40.7827L37.406 38.7017C37.5488 38.9502 37.7252 39.1769 37.9367 39.3803C39.524 40.9073 42.4694 40.6173 45.3174 40.3371C46.5278 40.2178 48.5216 40.0217 49.0367 40.286C49.022 40.4684 48.8753 41.1008 47.7281 42.6171C45.5172 45.5392 41.8683 47.4567 39.4538 48.7256C38.3073 49.328 37.5498 49.726 37.1492 50.1253C34.1647 53.1018 33.4976 55.8038 32.9091 58.1878C32.4553 60.0254 32.0268 61.7609 30.5943 63.6049C30.2446 64.0553 30.3261 64.704 30.7765 65.0537C30.9649 65.2 31.1878 65.2709 31.4094 65.2709C31.7173 65.2709 32.0221 65.1337 32.2258 64.8717C33.9271 62.6814 34.4288 60.6487 34.9144 58.6828C35.4891 56.3551 36.0318 54.1567 38.6078 51.5877C38.7927 51.406 39.6544 50.9532 40.4146 50.5537C42.8351 49.2818 46.8863 47.1528 49.3754 43.863C50.5284 42.3389 51.606 40.6008 50.8572 39.2641C50.0354 37.7976 47.8639 38.0113 45.1152 38.2818C42.9564 38.4942 40.2695 38.7586 39.3687 37.8921C39.2357 37.764 39.0703 37.5462 39.0357 37.0801L54.9158 21.2786C55.3201 20.8764 55.3216 20.2226 54.9192 19.8183C54.5448 19.4423 53.9533 19.4151 53.5471 19.7369L50.8882 17.0785L54.574 13.4106L57.2262 16.0577L56.5781 16.6957C56.1716 17.0959 56.1665 17.7497 56.5667 18.156C56.7688 18.3612 57.0357 18.4642 57.3027 18.4642C57.5643 18.4642 57.8261 18.3654 58.0272 18.1674L58.7188 17.4868C58.8715 17.5695 59.0409 17.612 59.2111 17.612C59.4354 17.612 59.6606 17.5391 59.8487 17.3914L61.1068 16.4032L62.512 17.8064C62.7136 18.0077 62.9777 18.1084 63.2418 18.1084C63.5063 18.1084 63.7708 18.0074 63.9726 17.8054C64.3756 17.402 64.3752 16.7482 63.9716 16.3451L62.7429 15.1182L63.6918 14.373C63.7506 14.3269 63.8042 14.2744 63.8517 14.2167L64.2783 13.6978L65.452 14.8698C65.6537 15.0711 65.9177 15.1718 66.1818 15.1718C66.4463 15.1718 66.711 15.0707 66.9126 14.8688C67.3158 14.4652 67.3152 13.8116 66.9116 13.4085L65.596 12.095L66.9303 10.4721L68.3934 11.9331C68.595 12.1344 68.8591 12.2351 69.1232 12.2351C69.3877 12.2351 69.6523 12.1341 69.854 11.9321C70.257 11.5287 70.2566 10.8749 69.853 10.4718L68.2481 8.86928ZM33.0023 45.7237L24.7629 37.5241L26.9377 35.3598C26.9416 35.3638 26.9377 35.3598 26.9416 35.3638L35.1772 43.5594L33.0023 45.7237ZM33.8509 39.3258L31.1914 36.6792L37.052 30.8472L39.7055 33.5001L33.8509 39.3258ZM41.1695 32.0433L38.516 29.3902L41.1761 26.7431L43.8296 29.3961L41.1695 32.0433ZM45.2936 27.9396L42.64 25.2864L45.3001 22.6394L47.9537 25.2926L45.2936 27.9396ZM52.0779 21.1887L49.4179 23.8357L46.7641 21.1825L49.4242 18.5355L52.0779 21.1887ZM62.3273 12.8185L59.2926 15.2021L55.314 11.231L57.6972 8.20419L64.9453 2.19773L68.3036 5.54961L62.3273 12.8185Z" fill="white"/>
<path d="M33.0648 53.541C32.7703 53.0526 32.1359 52.8954 31.6471 53.1897L26.4204 56.3396C25.1351 57.1135 23.624 57.3484 22.1648 57.0016L20.7771 56.6713C20.7256 56.5489 20.6508 56.4363 20.5549 56.3407L14.1176 49.9123C13.7144 49.5094 13.0612 49.5094 12.6582 49.912L10.1093 52.4573C9.91532 52.651 9.8064 52.9138 9.8064 53.1879C9.8064 53.4619 9.91532 53.7248 10.1093 53.9186L16.5467 60.3469C16.7482 60.5482 17.0124 60.6489 17.2765 60.6489C17.5406 60.6489 17.8047 60.5482 18.0063 60.3469L19.7954 58.5603L21.6867 59.0105C22.2862 59.1531 22.892 59.2237 23.494 59.2237C24.8886 59.2237 26.2627 58.8452 27.4863 58.1085L32.7134 54.9583C33.2018 54.6639 33.3591 54.0294 33.0648 53.541ZM17.2765 58.1569L12.3005 53.1879L13.388 52.102L18.3639 57.071L17.2765 58.1569Z" fill="white"/>
</g>
<defs>
<clipPath id="clip0">
<rect width="70.5023" height="70.5023" fill="white"/>
</clipPath>
</defs>
</svg>
