<svg width="72" height="70" viewBox="0 0 72 70" fill="none" xmlns="http://www.w3.org/2000/svg">
<g clip-path="url(#clip0)">
<path d="M70.1155 2.50516C69.0106 2.27151 67.5803 2.06307 66.0978 1.91688L66.0276 1.45368C65.9305 0.815271 65.3864 0.351929 64.734 0.351929H60.691C60.3338 0.351929 60.0019 0.534486 59.8135 0.834753C59.6565 1.08475 59.6177 1.38679 59.7007 1.66362C59.7054 1.68433 59.7118 1.71457 59.7188 1.74904C58.8924 1.80285 58.151 1.89236 57.5092 2.01852C57.1977 2.07969 56.9321 2.27914 56.7888 2.55938C55.5352 5.01055 54.265 7.4699 53.0046 9.88784L52.817 9.80051C52.3413 9.57899 51.7719 9.74724 51.4967 10.1916L48.4137 15.1733C48.2658 15.4124 48.2236 15.7012 48.2971 15.9721C48.3706 16.2428 48.5533 16.4718 48.8026 16.6053L49.3242 16.8848C48.3241 18.7665 47.3387 20.6026 46.3836 22.3639C45.7979 22.2993 45.2011 22.3708 44.6339 22.582C43.6874 22.9344 42.9362 23.6306 42.5187 24.5423C41.9063 25.8796 42.1572 27.3897 43.0358 28.4579C42.5308 29.3644 42.0336 30.2511 41.5496 31.1085C39.8812 30.8079 38.1524 31.6514 37.4215 33.2472C37.004 34.1586 36.9703 35.1763 37.3265 36.1128C37.4876 36.5363 37.7203 36.9197 38.0116 37.2516C37.5738 37.994 37.1479 38.7108 36.7378 39.3946C34.9418 38.8415 32.962 39.6864 32.1657 41.4247C31.7482 42.336 31.7145 43.3537 32.0707 44.2901C32.2562 44.778 32.5367 45.2126 32.8924 45.5762C30.7328 48.8952 28.9377 51.3531 27.5521 52.8864C27.5457 52.8936 27.5392 52.9009 27.5329 52.9084C26.0639 54.6303 23.5821 54.6748 21.8977 53.9879C20.1417 53.2717 19.1661 51.8651 19.2789 50.2184C19.3677 49.7729 19.5831 48.9921 19.8751 48.0597C20.0439 47.5206 19.7391 46.9483 19.1943 46.7812C18.6489 46.6139 18.071 46.916 17.9021 47.4548C17.571 48.5125 17.3351 49.38 17.238 49.8974C17.2315 49.9317 17.2268 49.9663 17.224 50.0012C17.014 52.5622 18.5031 54.8138 21.1105 55.8772C22.0549 56.2625 23.0439 56.4483 24.0109 56.4483C25.9861 56.4483 27.8704 55.6729 29.1012 54.2382C30.568 52.6129 32.4437 50.0458 34.6822 46.6009C34.9894 46.6782 35.3004 46.7167 35.6087 46.7167C37.0503 46.7167 38.4305 45.8984 39.0632 44.5171C39.4807 43.6058 39.5145 42.5881 39.1582 41.6516C38.9966 41.2269 38.7629 40.8424 38.4704 40.5098C38.8803 39.8266 39.306 39.1108 39.7436 38.369C40.1135 38.4833 40.4909 38.5393 40.8643 38.5393C42.3059 38.5393 43.6861 37.7211 44.3189 36.3398C44.7364 35.4285 44.7701 34.4108 44.4139 33.4743C44.197 32.9043 43.851 32.4065 43.4059 32.0106C43.8415 31.2386 44.2872 30.444 44.7396 29.6328C45.1381 29.7688 45.5513 29.8378 45.9657 29.8378C46.4159 29.8378 46.8672 29.7573 47.3011 29.5958C48.2477 29.2432 48.9988 28.547 49.4163 27.6353C50.15 26.033 49.6451 24.1829 48.3053 23.1419C49.2274 21.4402 50.1773 19.6699 51.1402 17.8581L54.8005 19.8197C53.7746 21.9049 52.6913 24.108 51.6094 26.3084L49.314 30.9757C49.0645 31.4832 49.2779 32.0946 49.7907 32.3415C49.9364 32.4116 50.0904 32.4447 50.2418 32.4447C50.6247 32.4447 50.9925 32.2333 51.1713 31.8698L53.4667 27.2022C54.5348 25.0299 55.6041 22.8554 56.6184 20.7939L56.8131 20.8982C56.9658 20.9801 57.1351 21.0215 57.305 21.0215C57.4226 21.0215 57.5403 21.0017 57.6532 20.9617C57.9298 20.8638 58.1509 20.654 58.2616 20.3849L60.6717 14.5244C60.8558 14.0764 60.6954 13.5718 60.3073 13.3032C60.8668 12.1684 61.3333 11.2239 61.7057 10.4722C61.8449 10.5381 61.997 10.5727 62.1511 10.5727C62.2161 10.5727 62.2813 10.5667 62.346 10.5543L66.0312 9.85405C66.7227 9.72272 67.1826 9.07995 67.0781 8.39114L67.0412 8.14755C68.2986 7.97507 69.4353 7.81622 70.0395 7.72153C70.741 7.61009 71.2499 7.01896 71.2499 6.31625V3.89668C71.2503 3.23021 70.7735 2.64507 70.1155 2.50516ZM37.1821 43.6737C36.7903 44.5286 35.7681 44.9091 34.9041 44.5215C34.4853 44.3339 34.1657 43.9961 34.0038 43.5705C33.8418 43.1449 33.8572 42.6825 34.0469 42.2684C34.3345 41.6406 34.9618 41.2688 35.6168 41.2688C35.8542 41.2688 36.095 41.3176 36.3249 41.4206C36.7435 41.6082 37.0632 41.946 37.2252 42.3715C37.3871 42.7971 37.3717 43.2595 37.1821 43.6737ZM42.4377 35.4963C42.0458 36.3512 41.0238 36.7318 40.1597 36.3441C39.741 36.1565 39.4212 35.8187 39.2594 35.3932C39.0975 34.9676 39.1129 34.5052 39.3025 34.091C39.5902 33.4633 40.2173 33.0915 40.8725 33.0915C41.1097 33.0915 41.3507 33.1401 41.5804 33.2432C41.9991 33.431 42.3189 33.7687 42.4808 34.1942C42.6428 34.6196 42.6275 35.0822 42.4377 35.4963ZM47.535 26.792C47.3453 27.2064 47.0039 27.5229 46.5737 27.6831C46.1437 27.8433 45.6761 27.8282 45.2573 27.6403C44.393 27.2526 44.0084 26.2412 44.4001 25.3856C44.5899 24.9712 44.9312 24.6548 45.3614 24.4945C45.5587 24.4211 45.7636 24.3844 45.9683 24.3844C46.2099 24.3844 46.4511 24.4355 46.6777 24.5373C47.5423 24.925 47.9268 25.9364 47.535 26.792ZM56.7832 18.5581L50.7438 15.3215L52.775 12.0394L58.3897 14.6519L56.7832 18.5581ZM58.4454 12.4194L54.875 10.7581C56.0479 8.50708 57.2294 6.22088 58.3981 3.93864C58.9005 3.86235 59.4673 3.80745 60.0902 3.77339C60.2934 4.91246 60.5462 6.35072 60.7825 7.70423C60.4463 8.36961 59.6748 9.92585 58.4454 12.4194ZM62.9914 8.35095C62.4453 5.20469 62.1298 3.42053 61.9405 2.39535H64.0819L64.9282 7.98297L62.9914 8.35095ZM69.1848 5.78329C68.5574 5.87511 67.6811 5.99691 66.7355 6.12661L66.4141 4.00513C67.4166 4.11507 68.3732 4.25226 69.1848 4.40444V5.78329Z" fill="white"/>
<path d="M50.0914 39.3789C49.7773 38.5532 49.1928 37.878 48.4271 37.4467C48.6918 36.9094 48.9635 36.3575 49.2429 35.7899C49.4925 35.2826 49.2794 34.671 48.7664 34.424C48.2534 34.177 47.6356 34.388 47.3858 34.8954C47.0358 35.6067 46.6964 36.2959 46.37 36.9584C44.9959 37.0246 43.7048 37.8299 43.0989 39.1524C42.6814 40.0637 42.6478 41.0813 43.004 42.0178C43.1194 42.3212 43.2719 42.6039 43.4557 42.8621C43.0944 43.5644 42.7745 44.1813 42.4757 44.7516C40.7859 44.4144 39.0195 45.2588 38.2782 46.8766C37.8607 47.7879 37.8271 48.8056 38.1834 49.7421C38.3717 50.2374 38.6583 50.678 39.0218 51.0449C38.8728 51.3005 38.7249 51.5516 38.5782 51.7984C36.7902 51.2645 34.8294 52.1104 34.0377 53.8382C33.6272 54.7341 33.5885 55.7324 33.9258 56.6557C30.61 58.8303 27.7451 60.1274 25.8001 60.3248C24.0408 60.5036 22.4231 60.3458 20.9756 59.8567C21.1867 59.0995 21.152 58.2984 20.8669 57.5493C20.5106 56.6128 19.807 55.8696 18.8858 55.4567C18.0444 55.0796 17.1355 55.0335 16.3087 55.2619L14.5921 52.4753C14.8615 52.1878 15.0907 51.8551 15.263 51.4788C15.6805 50.5674 15.7143 49.5498 15.358 48.6134C15.0578 47.8244 14.5103 47.1735 13.7947 46.7408L14.5755 43.9938C15.0229 43.9927 15.4709 43.9126 15.9022 43.7521C16.8489 43.3996 17.6001 42.7034 18.0176 41.7917C18.8792 39.9098 18.0332 37.6851 16.1316 36.8324C15.2105 36.4193 14.1819 36.3858 13.2349 36.7384C12.2884 37.091 11.5372 37.7871 11.1198 38.6987C10.3239 40.4363 10.985 42.4654 12.588 43.4377L11.8063 46.1882C10.3696 46.1934 8.99619 47.0097 8.36538 48.3865C7.94787 49.2978 7.91413 50.3156 8.27036 51.2521C8.6266 52.1886 9.33012 52.9318 10.2513 53.3447C10.7568 53.5713 11.2867 53.6785 11.8086 53.6785C12.1555 53.6785 12.4984 53.63 12.8284 53.5389L14.5448 56.3249C14.2753 56.6125 14.0467 56.9462 13.8743 57.3224C13.4568 58.2337 13.423 59.2516 13.7793 60.1881C14.1355 61.1245 14.839 61.8677 15.7602 62.2807C16.2658 62.5072 16.7956 62.6144 17.3175 62.6144C18.2605 62.6144 19.1755 62.2625 19.874 61.6338C21.2709 62.1698 22.793 62.4401 24.4214 62.4401C24.9407 62.4401 25.471 62.4127 26.0113 62.3578C28.2805 62.1274 30.9959 60.8344 33.3741 59.4191C28.5869 65.2923 23.8789 67.7536 18.3612 67.336C13.6175 66.978 9.60153 64.8517 7.05335 61.3489C4.1181 57.3141 3.32287 51.8683 4.81432 46.015C5.9242 41.6589 6.40299 37.5767 6.19864 34.2098C6.1039 32.6484 5.86636 31.2474 5.48933 30.01C10.21 29.2966 18.125 28.4688 26.3933 29.2124C23.2669 33.677 20.7939 39.4851 19.3774 43.222C19.1772 43.7504 19.4478 44.3393 19.9818 44.5375C20.1013 44.5818 20.2239 44.6028 20.3443 44.6028C20.7624 44.6028 21.1561 44.3498 21.3114 43.9395C25.9817 31.6183 30.2688 27.415 31.8964 26.1788C32.3755 25.8138 32.6037 25.2228 32.4919 24.6364C32.3812 24.0559 31.9562 23.5927 31.3817 23.4272C25.2668 21.6749 14.9614 22.4537 10.8147 22.8696C10.2472 22.9265 9.83383 23.4279 9.89139 23.9893C9.94895 24.5508 10.4562 24.9596 11.0232 24.9028C21.6023 23.8412 27.3453 24.5892 29.9016 25.1614C29.194 25.7823 28.5077 26.507 27.8447 27.3041C18.6319 26.3019 9.69943 27.2824 4.71104 28.0614C4.31432 27.2848 3.84228 26.5985 3.29381 26.0071C4.18888 25.8194 5.3486 25.6208 6.66159 25.4313C7.22603 25.3498 7.61683 24.8311 7.53462 24.2728C7.45214 23.7144 6.92639 23.3279 6.3636 23.4092C4.51743 23.6756 2.94488 23.9641 1.9369 24.2215C1.36612 24.3666 0.926993 24.8089 0.790944 25.3757C0.65393 25.9462 0.846713 26.5409 1.29466 26.928C4.50366 29.6986 5.07072 36.6472 2.81117 45.5153C1.16825 51.963 2.07942 58.0102 5.37656 62.5425C8.28675 66.5428 12.8421 68.9688 18.2035 69.3734C18.6477 69.4071 19.0874 69.424 19.5235 69.424C25.6788 69.424 31.0677 66.0627 36.3397 58.9536C36.716 59.0723 37.1005 59.1299 37.4808 59.1299C38.9224 59.1299 40.3026 58.3115 40.9353 56.9304C41.3528 56.0191 41.3866 55.0014 41.0303 54.0649C40.8647 53.6295 40.6232 53.2366 40.3202 52.8984C40.4839 52.6234 40.6493 52.343 40.8157 52.0574C41.1161 52.1313 41.4199 52.1682 41.7212 52.1682C43.1628 52.1682 44.543 51.3499 45.1759 49.9688C45.1759 49.9688 45.1759 49.9688 45.1759 49.9686C45.5934 49.0574 45.627 48.0397 45.2707 47.1032C45.0621 46.5547 44.7336 46.0733 44.3127 45.6849C44.5583 45.2163 44.8181 44.7159 45.1048 44.1602C45.5738 44.3516 46.0612 44.444 46.542 44.444C47.9836 44.444 49.3637 43.6257 49.9964 42.2445C50.4139 41.3331 50.4476 40.3153 50.0914 39.3789ZM13.0008 39.542C13.1906 39.1276 13.532 38.8112 13.9621 38.6509C14.1595 38.5775 14.3644 38.5409 14.5689 38.5409C14.8105 38.5409 15.0516 38.592 15.2783 38.6937C16.1428 39.0814 16.5274 40.0928 16.1356 40.9482C15.9459 41.3627 15.6045 41.679 15.1743 41.8394C14.7439 41.9996 14.2765 41.9843 13.8579 41.7966C12.9935 41.409 12.6089 40.3976 13.0008 39.542ZM13.3814 50.6352C13.2348 50.9553 12.9999 51.2087 12.718 51.3803C12.7155 51.3818 12.7129 51.3829 12.7104 51.3844C12.7097 51.3848 12.709 51.3854 12.7084 51.3858C12.2384 51.6679 11.6405 51.7241 11.1034 51.4832C10.6847 51.2956 10.3649 50.9577 10.2031 50.5323C10.0412 50.1066 10.0566 49.6444 10.2462 49.2301C10.5338 48.6025 11.1611 48.2305 11.8162 48.2305C12.0534 48.2305 12.2944 48.2793 12.5243 48.3823C12.9429 48.5699 13.2626 48.9078 13.4245 49.3332C13.5865 49.7588 13.5711 50.2212 13.3814 50.6352ZM18.8904 59.571C18.4986 60.4261 17.4762 60.8067 16.6123 60.419C16.1936 60.2314 15.8739 59.8936 15.7121 59.468C15.5501 59.0424 15.5655 58.5802 15.7552 58.1659C16.0427 57.5382 16.67 57.1663 17.3251 57.1663C17.5624 57.1663 17.8033 57.2151 18.0332 57.3181C18.4518 57.5057 18.7715 57.8435 18.9335 58.269C19.0954 58.6946 19.08 59.157 18.8904 59.571ZM39.0539 56.0869C38.6623 56.9418 37.64 57.3224 36.7759 56.9348C36.3572 56.7473 36.0376 56.4095 35.8756 55.9839C35.7137 55.5584 35.7291 55.0959 35.9187 54.6818C36.2062 54.0541 36.8336 53.6822 37.4888 53.6822C37.726 53.6822 37.967 53.7308 38.1967 53.834C38.6155 54.0216 38.9351 54.3593 39.097 54.7849C39.2589 55.2104 39.2437 55.6727 39.0539 56.0869ZM43.2946 49.1252C42.9028 49.9801 41.8809 50.3607 41.0166 49.9731C40.5978 49.7855 40.2781 49.4477 40.1161 49.0222C39.9543 48.5966 39.9696 48.1342 40.1592 47.7202C40.4469 47.0924 41.0743 46.7205 41.7295 46.7205C41.9666 46.7205 42.2076 46.7692 42.4372 46.8722C42.856 47.0598 43.1757 47.3977 43.3377 47.8232C43.4995 48.2486 43.4843 48.711 43.2946 49.1252ZM48.1151 41.401C47.7232 42.2563 46.7012 42.6364 45.8372 42.2489C45.6781 42.1777 45.5335 42.0843 45.4061 41.973C45.3999 41.967 45.3937 41.9609 45.3874 41.955C45.1891 41.7763 45.034 41.5534 44.9368 41.2978C44.775 40.8722 44.7903 40.4098 44.9799 39.9958C45.2676 39.368 45.8949 38.9961 46.5501 38.9961C46.7873 38.9961 47.0282 39.0449 47.2579 39.1479C47.6767 39.3355 47.9964 39.6733 48.1582 40.0988C48.3203 40.5244 48.3049 40.9868 48.1151 41.401Z" fill="white"/>
</g>
<defs>
<clipPath id="clip0">
<rect width="70.5023" height="69.7523" fill="white" transform="translate(0.747559 0.0117188)"/>
</clipPath>
</defs>
</svg>
