<svg width="73" height="71" viewBox="0 0 73 71" fill="none" xmlns="http://www.w3.org/2000/svg">
<g clip-path="url(#clip0)">
<path d="M71.0824 57.6274H64.6723L60.645 52.7364V34.6315H61.4104C61.9868 34.6315 62.4542 34.1691 62.4542 33.5988V30.8276C62.4542 30.2572 61.9868 29.7948 61.4104 29.7948C60.834 29.7948 60.3667 30.2572 60.3667 30.8276V32.566H52.8208C51.1515 28.8908 48.2507 25.8771 44.6411 24.0431V22.7893H60.3667V26.4212C60.3667 26.9915 60.834 27.4539 61.4104 27.4539C61.9868 27.4539 62.4542 26.9915 62.4542 26.4212V22.7686C62.9305 22.6728 63.2891 22.2562 63.2891 21.7566V18.4518C63.2891 17.8814 62.8218 17.4191 62.2454 17.4191H60.645V13.8389H66.8378C67.1593 13.8389 67.4627 13.6923 67.6606 13.4417C67.8585 13.1911 67.9285 12.8642 67.8504 12.5556C67.8102 12.3962 66.8308 8.81254 60.645 8.4917V7.71122C60.645 7.14086 60.1777 6.67847 59.6013 6.67847C59.0249 6.67847 58.5575 7.14086 58.5575 7.71122V8.5085C52.6465 8.91512 51.4265 12.3255 51.3746 12.4796C51.2685 12.7945 51.3218 13.1407 51.518 13.4101C51.7143 13.6794 52.0293 13.839 52.3647 13.839H58.5575V17.4192H42.7624C42.1859 17.4192 41.7186 17.8816 41.7186 18.4519V21.7567C41.7186 22.2563 42.0772 22.673 42.5536 22.7687V23.1454C40.6621 22.47 38.6239 22.101 36.4999 22.101C34.376 22.101 32.3378 22.47 30.4463 23.1454V22.7687C30.9226 22.673 31.2813 22.2563 31.2813 21.7567V18.4519C31.2813 17.8816 30.814 17.4192 30.2375 17.4192H23.1749C22.5985 17.4192 22.1312 17.8816 22.1312 18.4519C22.1312 19.0223 22.5985 19.4847 23.1749 19.4847H29.1938V20.724H11.7982V19.4847H18.6869C19.2633 19.4847 19.7306 19.0223 19.7306 18.4519C19.7306 17.8816 19.2633 17.4192 18.6869 17.4192H14.4423V13.839H20.496C20.8175 13.839 21.1209 13.6925 21.3187 13.4419C21.5166 13.1913 21.5866 12.8644 21.5086 12.5558C21.4686 12.3976 20.5032 8.86693 14.4423 8.49996V7.71122C14.4423 7.14086 13.975 6.67847 13.3986 6.67847C12.8222 6.67847 12.3549 7.14086 12.3549 7.71122V8.49968C6.32403 8.86197 5.0849 12.3243 5.03272 12.4795C4.92667 12.7944 4.97997 13.1406 5.1762 13.4099C5.37242 13.6793 5.68749 13.8389 6.02287 13.8389H12.3549V17.4191H10.7545C10.1781 17.4191 9.71074 17.8814 9.71074 18.4518V21.7566C9.71074 22.2562 10.0694 22.6728 10.5457 22.7686V33.5988C10.5457 34.1691 11.013 34.6315 11.5895 34.6315H12.3549V52.7364L8.32758 57.6274H1.91751C1.34109 57.6274 0.873779 58.0898 0.873779 58.6601V62.7911C0.873779 63.3615 1.34109 63.8239 1.91751 63.8239H71.0824C71.6588 63.8239 72.1261 63.3615 72.1261 62.7911V58.6601C72.1261 58.0898 71.6588 57.6274 71.0824 57.6274ZM8.27233 11.7734C9.20766 11.1442 10.7879 10.5341 13.3986 10.5341C16.0374 10.5341 17.5535 11.1481 18.4133 11.7734H8.27233ZM60.645 56.0065L61.9796 57.6274H60.645V56.0065ZM53.6051 34.6315H58.5575V52.7364L54.5303 57.6274H49.7331L47.2998 53.8884C51.6004 50.654 54.3826 45.5404 54.3826 39.7953C54.3826 37.9995 54.11 36.2659 53.6051 34.6315ZM58.5575 56.0065V57.6274H57.223L58.5575 56.0065ZM54.6142 11.7734C55.5495 11.1442 57.1297 10.5341 59.7404 10.5341C62.3793 10.5341 63.8953 11.1481 64.7551 11.7734H54.6142ZM43.8061 19.4845H61.2017V20.7238H43.8061V19.4845ZM36.4999 24.1663C45.2094 24.1663 52.2951 31.1775 52.2951 39.7953C52.2951 48.4131 45.2094 55.4242 36.4999 55.4242C27.7905 55.4242 20.7047 48.4131 20.7047 39.7953C20.7047 31.1775 27.7905 24.1663 36.4999 24.1663ZM47.2504 57.6274H25.7495L27.4328 55.0407C30.0931 56.5957 33.1928 57.4897 36.4999 57.4897C39.8071 57.4897 42.9068 56.5957 45.5671 55.0407L47.2504 57.6274ZM14.4423 52.7364V34.6315H19.3948C18.8899 36.2659 18.6173 37.9995 18.6173 39.7953C18.6173 45.5404 21.3995 50.654 25.6999 53.8884L23.2666 57.6274H18.4695L14.4423 52.7364ZM15.7769 57.6274H14.4423V56.0065L15.7769 57.6274ZM12.6332 22.7893H28.3588V24.0431C24.7492 25.877 21.8484 28.8907 20.1791 32.566H12.6332V22.7893ZM12.3549 56.0065V57.6274H11.0203L12.3549 56.0065ZM70.0386 61.7584H2.96125V59.6929H70.0386V61.7584Z" fill="white"/>
<path d="M36.5 25.681C28.6345 25.681 22.2356 32.0126 22.2356 39.7953C22.2356 39.9003 22.2367 40.0051 22.2391 40.1098C22.2519 40.6801 22.732 41.1352 23.3058 41.1194C23.8821 41.1067 24.3388 40.6343 24.3261 40.0639C24.3242 39.9747 24.3232 39.885 24.3232 39.7953C24.3232 33.1515 29.7857 27.7465 36.5001 27.7465C43.2145 27.7465 48.677 33.1515 48.677 39.7953C48.677 46.439 43.2145 51.844 36.5001 51.844C31.4639 51.844 26.8833 48.7065 25.102 44.0368C24.8985 43.5032 24.2962 43.2336 23.7569 43.4354C23.2177 43.6367 22.9455 44.2326 23.1491 44.7662C25.2352 50.2351 30.6005 53.9095 36.5001 53.9095C44.3656 53.9095 50.7645 47.5779 50.7645 39.7953C50.7645 32.0126 44.3654 25.681 36.5 25.681Z" fill="white"/>
</g>
<defs>
<clipPath id="clip0">
<rect width="71.2523" height="70.5023" fill="white" transform="translate(0.873779)"/>
</clipPath>
</defs>
</svg>
