<svg width="72" height="72" viewBox="0 0 72 72" fill="none" xmlns="http://www.w3.org/2000/svg">
<g clip-path="url(#clip0)">
<path d="M12.8328 33.7641C12.6651 33.2189 12.087 32.9132 11.542 33.0808C9.91713 33.5807 7.75387 34.4527 5.4277 36.7779C2.12084 40.083 0.52614 44.7166 0.937312 49.8248C1.33458 54.7589 3.53929 59.6079 7.14565 63.4783C7.34917 63.6967 7.62484 63.807 7.90148 63.807C8.15361 63.807 8.40629 63.7153 8.60526 63.53C9.02263 63.1412 9.04577 62.4878 8.6569 62.0705C5.36656 58.5392 3.35628 54.1314 2.9962 49.6592C2.63432 45.1644 4.01642 41.1086 6.88801 38.2385C8.88108 36.2462 10.6661 35.5111 12.1494 35.0547C12.6945 34.887 13.0005 34.3092 12.8328 33.7641Z" fill="white"/>
<path d="M26.8938 55.303L16.5538 44.9678C16.1505 44.5648 15.4968 44.5648 15.0936 44.9678L11.5686 48.4913C11.3749 48.685 11.2661 48.9476 11.2661 49.2216C11.2661 49.4957 11.375 49.7582 11.5688 49.952L21.9087 60.2872C22.1102 60.4888 22.3745 60.5896 22.6387 60.5896C22.903 60.5896 23.1672 60.4888 23.3688 60.2872L26.8938 56.7637C27.0875 56.57 27.1965 56.3074 27.1965 56.0334C27.1965 55.7593 27.0875 55.4967 26.8938 55.303ZM22.6387 58.0968L13.7596 49.2216L15.8238 47.1583L24.703 56.0335L22.6387 58.0968Z" fill="white"/>
<path d="M48.7501 29.2814C48.7559 29.2759 48.7502 29.2816 48.7559 29.2759C48.7616 29.2701 48.7447 29.2872 48.7501 29.2814Z" fill="white"/>
<path d="M71.0737 11.3783L69.2907 9.59553L69.9557 8.78654C70.513 8.10851 70.465 7.12933 69.8443 6.50899L65.3215 1.98817C64.6973 1.36425 63.715 1.31922 63.0363 1.88324L62.2379 2.54668L60.4982 0.808215C60.0947 0.405168 59.4408 0.405168 59.0377 0.808628C58.6346 1.21195 58.6347 1.86575 59.0382 2.26894L60.6426 3.87245L59.4156 4.89212L57.9136 3.39119C57.5101 2.98787 56.8562 2.98814 56.4531 3.3916C56.0499 3.79492 56.0501 4.44886 56.4535 4.85191L57.8203 6.21775L56.5936 7.23714L55.3304 5.9743C54.9271 5.57098 54.2732 5.57111 53.87 5.9743C53.4667 6.37762 53.4667 7.03142 53.87 7.43461L54.9983 8.56278L54.4503 9.01829C54.084 9.32261 53.8615 9.77 53.8397 10.2455C53.8195 10.6874 53.9758 11.1193 54.2678 11.4484L42.6234 23.0878C36.5249 18.5261 30.4173 18.0696 26.5355 21.9497C25.3756 23.1093 24.8218 24.0941 24.286 25.0463C23.7282 26.0379 23.1514 27.0633 21.7752 28.4386C19.5443 30.6687 17.5526 31.4672 15.8985 31.9544C15.3512 32.1155 15.0384 32.6896 15.1995 33.2367C15.332 33.6864 15.7434 33.9779 16.1897 33.9779C16.2864 33.9779 16.3845 33.9643 16.4819 33.9355C18.3856 33.3749 20.6768 32.4571 23.2354 29.8994C24.8123 28.3234 25.4891 27.1203 26.0862 26.0589C26.5962 25.1522 27.0367 24.3692 27.9957 23.4103C29.595 21.8118 31.6393 21.1513 34.0725 21.4478C36.2886 21.7177 38.7164 22.7909 41.1467 24.5639L30.2227 35.4831C29.7025 35.3771 29.1679 35.3218 28.6247 35.3218C26.5097 35.3218 24.5215 36.1453 23.0261 37.6406C21.5307 39.1359 20.7069 41.1238 20.7069 43.2386C20.7069 45.3533 21.5305 47.3414 23.0261 48.8365C24.5215 50.3318 26.5099 51.1554 28.6247 51.1554C30.7395 51.1554 32.7279 50.3318 34.2233 48.8365C35.7187 47.3412 36.5423 45.3533 36.5423 43.2386C36.5423 42.6962 36.4872 42.1624 36.3814 41.6427L47.2681 30.7614C47.2772 30.7534 47.2768 30.7543 47.2769 30.7543C47.2736 30.7575 47.2709 30.7601 47.2687 30.7621C50.7456 35.7838 51.2655 41.0616 48.4598 43.8647C47.5377 44.7866 46.7648 45.2327 45.8699 45.7489C44.8001 46.3661 43.5877 47.0656 41.9949 48.6574C38.7236 51.9283 38.0377 54.7882 37.3745 57.5538C36.7798 60.0336 36.2181 62.3757 33.6244 64.9685C30.9708 67.6206 27.3709 68.945 23.5229 68.9447C19.6238 68.9446 15.4699 67.5844 11.7917 64.8675C11.3329 64.5288 10.6864 64.6257 10.3474 65.0846C10.0085 65.5432 10.1057 66.1899 10.5645 66.5286C14.609 69.5162 19.1911 71.0083 23.5226 71.0083C27.9052 71.0083 32.0314 69.4808 35.0846 66.4292C38.0906 63.4242 38.7475 60.6846 39.383 58.0354C40.0069 55.4339 40.5962 52.9766 43.4554 50.118C44.8555 48.7185 45.8959 48.1183 46.9023 47.5377C47.8382 46.9978 48.806 46.4395 49.9202 45.3255C53.5131 41.736 53.0032 35.2303 48.7498 29.2805L56.8399 21.1944C57.2434 20.7912 57.2435 20.1374 56.8402 19.7341C56.4369 19.3306 55.7831 19.3306 55.3797 19.7338L55.006 20.1073L51.7669 16.8686L55.725 12.9123L58.9643 16.1507L58.4956 16.6193C58.0922 17.0225 58.092 17.6763 58.4953 18.0796C58.8985 18.483 59.5525 18.4831 59.9558 18.0799L60.4289 17.6069C60.7386 17.8804 61.1385 18.0339 61.5523 18.0339C61.5797 18.0339 61.6071 18.0332 61.6346 18.0318C62.1119 18.0086 62.5598 17.7836 62.8632 17.4144L63.3095 16.8714L64.444 18.0058C64.6456 18.2074 64.9099 18.3083 65.1742 18.3083C65.4384 18.3083 65.7028 18.2076 65.9044 18.0058C66.3077 17.6026 66.3077 16.9487 65.9044 16.5455L64.6273 15.2685L65.6415 14.0347L67.0286 15.4216C67.2302 15.6232 67.4946 15.7241 67.7588 15.7241C68.0231 15.7241 68.2874 15.6233 68.489 15.4216C68.8924 15.0184 68.8924 14.3645 68.489 13.9613L66.9593 12.4317L67.9729 11.1986L69.6132 12.8388C69.8148 13.0405 70.0792 13.1413 70.3434 13.1413C70.6077 13.1413 70.8721 13.0405 71.0737 12.8388C71.477 12.4355 71.477 11.7817 71.0737 11.3783ZM32.7628 47.376C31.6575 48.4811 30.1878 49.0899 28.6247 49.0899C27.0615 49.0899 25.5918 48.4813 24.4865 47.376C23.3812 46.2706 22.7724 44.8014 22.7724 43.2383C22.7724 41.6753 23.3812 40.2059 24.4865 39.1006C25.5918 37.9953 27.0615 37.3868 28.6247 37.3868C29.1757 37.3868 29.7147 37.464 30.2307 37.6104C30.2473 37.6157 30.2643 37.6201 30.2812 37.6243C31.2092 37.8967 32.0599 38.3978 32.7628 39.1006C33.465 39.8027 33.9658 40.6521 34.2384 41.5787C34.2432 41.5979 34.2483 41.6172 34.2543 41.6362C34.3999 42.1509 34.4768 42.6886 34.4768 43.2383C34.4769 44.8014 33.8683 46.2708 32.7628 47.376ZM35.6065 39.497C35.2436 38.8225 34.7803 38.1972 34.2234 37.6404C33.6671 37.0841 33.0422 36.6212 32.3683 36.2586L37.8367 30.7926L41.0754 34.0309L35.6065 39.497ZM42.5361 32.5709L39.2974 29.3325L41.9931 26.6378L45.232 29.8762L42.5361 32.5709ZM46.6927 28.4163L43.4538 25.1779L46.1496 22.4834L49.3886 25.722L46.6927 28.4163ZM53.5452 21.5673L50.8493 24.2618L47.6103 21.0232L50.3061 18.3287L53.5452 21.5673ZM61.5251 15.7897L56.0813 10.3482L64.0986 3.68587L68.1478 7.73328L61.5251 15.7897Z" fill="white"/>
<path d="M47.2684 30.7622C47.2683 30.7619 47.268 30.7616 47.2679 30.7614C47.2638 30.7662 47.2653 30.7651 47.2684 30.7622Z" fill="white"/>
</g>
<defs>
<clipPath id="clip0">
<rect width="70.5023" height="70.5023" fill="white" transform="translate(0.873779 0.505981)"/>
</clipPath>
</defs>
</svg>
