<svg width="130" height="21" viewBox="0 0 130 21" fill="none" xmlns="http://www.w3.org/2000/svg">
<rect width="5.70289" height="23.1917" transform="matrix(1 0 -0.424357 0.905495 18.5859 0)" fill="#090909"/>
<path d="M5.70276 21V21C2.55314 21 1.08337 18.688 2.41993 15.8361L5.96936 8.2623L11.6722 8.2623L5.70276 21Z" fill="#090909"/>
<path d="M23.1918 21V21C20.0422 21 18.5724 18.688 19.9089 15.8361L21.0383 13.4262C22.3749 10.5743 26.0116 8.2623 29.1613 8.2623V8.2623L23.1918 21Z" fill="#090909"/>
<rect width="5.70289" height="14.0671" transform="matrix(1 0 -0.424357 0.905495 32.2028 8.26227)" fill="#090909"/>
<path d="M66.9138 21V21C63.7642 21 62.2944 18.688 63.631 15.8361L64.7604 13.4262C66.0969 10.5743 69.7337 8.2623 72.8833 8.2623V8.2623L66.9138 21Z" fill="#090909"/>
<rect width="5.70289" height="14.0671" transform="matrix(1 0 -0.424357 0.905495 75.9248 8.26227)" fill="#090909"/>
<path d="M93.4137 8.26233V8.26233C96.5633 8.26233 98.0331 10.5743 96.6965 13.4263L95.5672 15.8361C94.2306 18.6881 90.5938 21 87.4442 21V21L93.4137 8.26233Z" fill="#090909"/>
<rect width="5.70289" height="23.1917" transform="matrix(1 0 -0.424357 0.905495 88.5414 0)" fill="#090909"/>
<rect width="5.70289" height="23.1917" transform="matrix(1 0 -0.424357 0.905495 106.03 0)" fill="#090909"/>
<rect width="5.70289" height="14.0671" transform="matrix(1 0 -0.424357 0.905495 110.903 8.26227)" fill="#090909"/>
<path d="M119.647 8.26227H120.027C122.967 8.26227 124.339 10.4201 123.091 13.0819V13.0819H117.388L119.647 8.26227Z" fill="#090909"/>
<path d="M121.639 16.1803C120.392 18.8422 116.997 21 114.058 21L113.677 21L115.936 16.1803L121.639 16.1803V16.1803Z" fill="#090909"/>
<path d="M38.5271 13.4262C39.8636 10.5742 43.5004 8.26227 46.65 8.26227V8.26227L40.6805 21H34.9777L38.5271 13.4262Z" fill="#090909"/>
<rect width="5.70289" height="14.0671" transform="matrix(1 0 -0.424357 0.905495 49.6915 8.26227)" fill="#090909"/>
<path d="M58.436 8.26227V8.26227C61.5857 8.26227 63.0554 10.5742 61.7189 13.4262L58.1694 21H52.4665L58.436 8.26227Z" fill="#090909"/>
</svg>
