<?xml version="1.0" encoding="iso-8859-1"?>
<!-- Generator: Adobe Illustrator 19.0.0, SVG Export Plug-In . SVG Version: 6.00 Build 0)  -->
<svg version="1.1" id="Capa_1" xmlns="http://www.w3.org/2000/svg" xmlns:xlink="http://www.w3.org/1999/xlink" x="0px" y="0px"
	 viewBox="0 0 512.001 512.001" style="enable-background:new 0 0 512.001 512.001;" xml:space="preserve">
<g>
	<g>
		<path d="M177.46,267.801V267.8c-0.03-0.02-0.06-0.04-0.1-0.06c-2.43-1.4-20.41-10.09-44.5,22.29c-9,12.1-18.81,18.46-27.57,17.99
			c-5.43-0.31-8.81-3.18-9.36-4.13c-1.99-3.63-6.55-4.95-10.18-2.96c-3.64,1.99-4.97,6.55-2.97,10.18
			c2.94,5.37,10.66,11.12,21.27,11.86c0.72,0.05,1.47,0.07,2.24,0.07c9.94,0,24.06-4.51,38.61-24.06
			c14.36-19.3,23.2-18.56,24.96-18.17c1.16,0.74,2.53,1.16,4,1.16c4.17,0,7.55-3.38,7.55-7.55
			C181.41,271.552,179.813,269.078,177.46,267.801z"/>
	</g>
</g>
<g>
	<g>
		<path d="M244.233,334.549c-2.123-3.556-6.727-4.714-10.285-2.594c-3.555,2.124-4.717,6.728-2.594,10.285
			c0.005,0.007,0.205,1.683-0.319,3.772c-0.889,3.542-4.408,10.993-17.98,21.084c-21.085,15.675-24.687,30.859-23.997,40.835
			c0.734,10.602,6.49,18.32,11.868,21.266c1.143,0.626,2.379,0.924,3.597,0.924c2.651,0,5.221-1.408,6.585-3.897
			c1.99-3.634,0.66-8.19-2.973-10.179c-0.952-0.552-3.817-3.927-4.126-9.352c-0.501-8.772,5.89-18.56,17.994-27.559
			C254.888,354.686,245.421,336.538,244.233,334.549z"/>
	</g>
</g>
<g>
	<g>
		<path d="M182.322,366.045l-36.368-36.368c-2.928-2.928-7.676-2.928-10.606,0c-2.929,2.93-2.929,7.677,0,10.607l36.368,36.368
			c1.465,1.464,3.385,2.196,5.303,2.196c1.919,0,3.839-0.732,5.303-2.196C185.251,373.722,185.251,368.975,182.322,366.045z"/>
	</g>
</g>
<g>
	<g>
		<path d="M395.919,169.154c1.333,0.97,2.877,1.437,4.408,1.437c2.316,0,4.601-1.07,6.069-3.087
			c18.61-25.568,32.679-44.602,41.936-56.734c2.872,0.492,5.764,0.753,8.656,0.753c13.758,0,27.475-5.578,38.641-16.742
			c17.835-17.836,17.363-57.162,15.495-79.015c-0.678-7.95-6.94-14.212-14.889-14.89c-21.854-1.866-61.18-2.339-79.016,15.495
			c-13.513,13.514-18.828,30.758-15.992,47.3c-35.955,27.426-123.426,90.16-151.959,110.577
			c-26.024-24.181-53.109-47.826-80.612-70.333c-3.203-2.624-7.93-2.153-10.553,1.054c-2.624,3.205-2.151,7.93,1.054,10.553
			c26.746,21.889,53.094,44.864,78.442,68.359c-0.333,0.754-0.544,1.564-0.614,2.404c-0.153,1.845,0.391,3.664,1.489,5.125
			c-1.809,0.95-3.718,1.943-5.717,2.974c-38.01-35.415-78.007-69.323-119.443-101.276c2.287-3.089,4.266-5.757,6.518-8.791
			c4.861,3.742,9.703,7.497,14.502,11.276c1.375,1.083,3.011,1.607,4.635,1.607c2.22,0,4.417-0.98,5.897-2.86
			c2.562-3.254,2.002-7.969-1.253-10.532c-6.861-5.403-13.79-10.772-20.773-16.098c-0.005-0.004-0.01-0.008-0.015-0.012
			c-0.003-0.002-0.007-0.005-0.011-0.007c-10.961-8.36-22.062-16.609-33.246-24.723c-0.027-0.02-0.05-0.042-0.078-0.062
			c-0.026-0.019-0.054-0.033-0.08-0.052c-10.003-7.255-20.072-14.403-30.18-21.406c-3.403-2.357-8.077-1.511-10.436,1.893
			c-2.358,3.405-1.511,8.077,1.893,10.436c8.014,5.552,16.001,11.201,23.953,16.916l-6.377,8.855
			c-1.64-1.179-3.274-2.368-4.917-3.541c-1.624-1.158-3.639-1.624-5.607-1.291c-1.966,0.333-3.719,1.435-4.871,3.062l-2.773,3.916
			c-3.871,5.469-6.551,9.254-11.09,15.678c-2.383,3.371-1.593,8.034,1.767,10.432c53.991,38.54,106.005,80.656,154.754,125.281
			c-6.853,3.392-13.963,6.898-21.172,10.452c-30.396,14.988-61.827,30.486-86.225,43.384c-3.662,1.936-5.061,6.474-3.126,10.135
			c1.346,2.545,3.946,3.997,6.637,3.997c1.182,0,2.381-0.28,3.498-0.871c24.212-12.8,55.545-28.25,85.849-43.191
			c19.631-9.68,38.547-19.007,53.564-26.669c0.239-0.105,0.472-0.226,0.7-0.358c5.294-2.705,10.09-5.197,14.243-7.417l59.961,59.961
			c-8.563,16.02-21.172,41.59-34.445,68.509c-24.447,49.582-54.873,111.288-64.742,122.238
			c-25.452,28.268-52.688,42.977-80.95,43.717c-21.548,0.554-43.144-7.237-63.292-22.694l66.771-49.364
			c1.755-1.298,2.858-3.297,3.02-5.473c0.162-2.178-0.633-4.317-2.177-5.861l-35.221-35.217c-1.542-1.542-3.678-2.332-5.859-2.176
			c-2.177,0.162-4.175,1.265-5.472,3.019L37.71,445.961c-15.451-20.141-23.244-41.726-22.679-63.277
			c0.74-28.262,15.449-55.499,43.721-80.954c1.07-0.966,3.434-2.79,8.615-5.999c3.521-2.181,4.607-6.803,2.427-10.325
			c-2.18-3.521-6.804-4.606-10.325-2.427c-4.988,3.09-8.508,5.579-10.757,7.607C17.263,318.9,0.887,349.754,0.034,382.291
			c-0.818,31.221,13.105,62.09,40.261,89.276c0.021,0.021,0.038,0.042,0.059,0.063c0.014,0.014,0.028,0.025,0.042,0.038
			C66.836,498.095,96.76,512,127.107,512c0.865,0,1.735-0.012,2.601-0.034c32.537-0.853,63.391-17.229,91.701-48.672
			c10.452-11.596,34.383-59.39,67.051-125.644c3.542-7.183,7.035-14.268,10.416-21.098c49.319,54.013,95.443,111.87,137.188,172.13
			c1.456,2.102,3.794,3.23,6.172,3.23c1.463,0,2.942-0.428,4.239-1.319l19.789-13.588c1.643-1.129,2.77-2.866,3.131-4.828
			c0.088-0.478,0.126-0.959,0.121-1.438l0.987-2.059c0.024-0.053,0.049-0.104,0.073-0.157c8.778-19.491,0.956-43.459-10.703-58.597
			c-37.837-51.184-78.905-100.67-122.121-147.196c9.702-13.561,28.946-40.413,49.28-68.533c2.428-3.356,1.674-8.045-1.683-10.471
			c-3.354-2.427-8.045-1.675-10.471,1.683c-21.383,29.568-41.575,57.758-50.74,70.571l-68.099-68.099
			c-0.006-0.005-0.012-0.012-0.018-0.018l-0.004-0.004c25.355-18.137,110.938-79.478,150.196-109.144
			c2.79,5.541,6.588,10.826,11.415,15.653c4.828,4.827,10.113,8.624,15.655,11.415c-9.255,12.245-22.329,29.967-39.015,52.893
			C391.832,162.026,392.57,166.716,395.919,169.154z M86.777,59.501c7.087,5.188,14.132,10.429,21.127,15.717
			c-2.222,2.994-4.168,5.618-6.393,8.622c-6.987-5.251-14.031-10.457-21.055-15.561L86.777,59.501z M209.91,205.939
			C161.308,161.13,109.438,118.782,55.55,79.946c1.797-2.541,3.403-4.809,5.197-7.344c55.134,39.733,108.132,83.081,157.773,129.024
			C215.742,203.024,212.864,204.465,209.91,205.939z M51.005,461.064c-0.012-0.012-0.024-0.023-0.035-0.035
			c-0.024-0.024-0.048-0.049-0.072-0.073c-1.821-1.851-2.371-3.637-2.413-4.342l45.482-61.49l22.908,22.905l-61.503,45.468
			C54.664,463.455,52.865,462.904,51.005,461.064z M320.589,273.527c1.297,0.976,2.874,1.515,4.504,1.515
			c0.207,0,0.414-0.009,0.621-0.025c0.841-0.07,1.652-0.282,2.407-0.616c42.355,45.709,82.615,94.284,119.736,144.503
			c0.032,0.041,0.063,0.083,0.095,0.125c6.934,8.98,12.473,22.531,11.22,34.649c-43.206-61.136-90.774-119.711-141.585-174.381
			C318.628,277.279,319.63,275.352,320.589,273.527z M451.551,468.913l-7.425,5.098c-42.107-60.198-88.53-117.952-138.1-171.854
			c1.475-2.957,2.917-5.836,4.315-8.615C361.108,348.534,408.56,407.45,451.551,468.913z M428.236,83.762
			c-16.838-16.837-17.007-40.188-0.411-56.784c7.766-7.767,25.277-11.993,48.411-11.993c5.897,0,12.163,0.274,18.722,0.835
			c0.651,0.056,1.165,0.569,1.221,1.222c2.761,32.29-1.411,57.385-11.158,67.132C468.426,100.77,445.074,100.601,428.236,83.762z"/>
	</g>
</g>
<g>
	<g>
		<circle cx="440.75" cy="45.24" r="7.5"/>
	</g>
</g>
<g>
	<g>
		<circle cx="466.76" cy="71.24" r="7.5"/>
	</g>
</g>
<g>
	<g>
		<circle cx="474.95" cy="37.05" r="7.5"/>
	</g>
</g>
<g>
</g>
<g>
</g>
<g>
</g>
<g>
</g>
<g>
</g>
<g>
</g>
<g>
</g>
<g>
</g>
<g>
</g>
<g>
</g>
<g>
</g>
<g>
</g>
<g>
</g>
<g>
</g>
<g>
</g>
</svg>
