<?xml version="1.0" encoding="iso-8859-1"?>
<!-- Generator: Adobe Illustrator 19.0.0, SVG Export Plug-In . SVG Version: 6.00 Build 0)  -->
<svg version="1.1" id="Capa_1" xmlns="http://www.w3.org/2000/svg" xmlns:xlink="http://www.w3.org/1999/xlink" x="0px" y="0px"
	 viewBox="0 0 512 512" style="enable-background:new 0 0 512 512;" xml:space="preserve">
<g>
	<g>
		<path d="M483,45.08h-3.11l5.525-36.457c0.328-2.16-0.304-4.356-1.729-6.013C482.262,0.953,480.186,0,478,0H34
			c-2.186,0-4.262,0.953-5.687,2.61c-1.425,1.656-2.057,3.853-1.729,6.013L32.11,45.08H29c-4.143,0-7.5,3.357-7.5,7.5
			s3.357,7.5,7.5,7.5h5.383l7.35,48.5H40.83c-4.143,0-7.5,3.357-7.5,7.5s3.357,7.5,7.5,7.5h3.177l7.35,48.5H50.41
			c-4.143,0-7.5,3.357-7.5,7.5s3.357,7.5,7.5,7.5h3.22l7.352,48.51H59.88c-4.143,0-7.5,3.357-7.5,7.5s3.357,7.5,7.5,7.5h3.375
			l7.335,48.4h-1.05c-4.143,0-7.5,3.357-7.5,7.5s3.357,7.5,7.5,7.5h3.323l7.365,48.6H77.73c-4.143,0-7.5,3.357-7.5,7.5
			s3.357,7.5,7.5,7.5h4.771l7.352,48.51H88.3c-4.143,0-7.5,3.357-7.5,7.5s3.357,7.5,7.5,7.5h3.827l9.779,64.523
			c0.555,3.667,3.707,6.377,7.415,6.377h242.805c4.143,0,7.5-3.357,7.5-7.5s-3.357-7.5-7.5-7.5H115.77l-8.472-55.9h15.63
			l4.764,34.429c0.513,3.709,3.684,6.472,7.429,6.472h25.047c4.143,0,7.5-3.357,7.5-7.5s-3.357-7.5-7.5-7.5h-18.514l-3.583-25.9
			h20.147c3.098,8.727,11.433,14.995,21.208,14.995c9.775,0,18.111-6.269,21.208-14.995h110.734
			c3.098,8.727,11.433,14.995,21.208,14.995c9.775,0,18.111-6.269,21.208-14.995h20.375l-3.767,25.9H192c-4.143,0-7.5,3.357-7.5,7.5
			s3.357,7.5,7.5,7.5h184.88c3.725,0,6.886-2.734,7.422-6.42l5.014-34.48h15.386L396.23,497H384c-4.143,0-7.5,3.357-7.5,7.5
			s3.357,7.5,7.5,7.5h18.68c3.708,0,6.86-2.71,7.415-6.377l9.779-64.523h3.827c4.143,0,7.5-3.357,7.5-7.5s-3.357-7.5-7.5-7.5h-1.554
			l7.352-48.51h4.771c4.143,0,7.5-3.357,7.5-7.5s-3.357-7.5-7.5-7.5h-2.498l7.365-48.6h3.323c4.143,0,7.5-3.357,7.5-7.5
			s-3.357-7.5-7.5-7.5h-1.05l7.335-48.4h3.375c4.143,0,7.5-3.357,7.5-7.5s-3.357-7.5-7.5-7.5h-1.102l7.352-48.51h3.22
			c4.143,0,7.5-3.357,7.5-7.5s-3.357-7.5-7.5-7.5h-0.947l7.35-48.5h3.177c4.143,0,7.5-3.357,7.5-7.5s-3.357-7.5-7.5-7.5h-0.903
			l7.35-48.5H483c4.143,0,7.5-3.357,7.5-7.5S487.143,45.08,483,45.08z M436.091,15.24l-4.34,29.84h-24.088
			c-3.095-8.73-11.433-15.003-21.211-15.003c-9.778,0-18.115,6.272-21.211,15.003H191.875c-4.143,0-7.5,3.357-7.5,7.5
			s3.357,7.5,7.5,7.5h173.368c3.097,8.728,11.433,14.997,21.209,14.997c9.776,0,18.112-6.27,21.209-14.997h21.909l-7.053,48.5
			h-23.834c-3.096-8.729-11.433-15-21.21-15s-18.114,6.271-21.21,15H155.74c-3.096-8.729-11.433-15-21.21-15
			c-9.777,0-18.114,6.271-21.21,15H92.063l-6.71-48.5h18.987c3.097,8.728,11.433,14.997,21.209,14.997s18.112-6.27,21.209-14.997
			h13.118c4.143,0,7.5-3.357,7.5-7.5s-3.357-7.5-7.5-7.5H146.76c-3.095-8.73-11.433-15.003-21.211-15.003
			s-18.115,6.272-21.211,15.003h-21.06l-4.129-29.84H436.091z M393.951,52.598c-0.011,4.126-3.37,7.479-7.499,7.479
			c-4.136,0-7.5-3.364-7.5-7.5c0-4.136,3.364-7.5,7.5-7.5c4.13,0,7.489,3.355,7.499,7.482c0,0.007-0.001,0.014-0.001,0.021
			C393.95,52.586,393.951,52.592,393.951,52.598z M350.535,284.089c-9.74,0-18.053,6.223-21.176,14.901H182.642
			c-3.124-8.678-11.436-14.901-21.176-14.901s-18.053,6.223-21.176,14.901h-21.882l-6.697-48.4h19.567
			c3.097,8.727,11.433,14.996,21.208,14.996c9.775,0,18.111-6.269,21.208-14.996h164.61c3.097,8.727,11.433,14.996,21.208,14.996
			c9.775,0,18.111-6.269,21.208-14.996h21.142l-7.039,48.4h-23.112C368.587,290.312,360.275,284.089,350.535,284.089z
			 M358.034,306.589c0,4.136-3.364,7.5-7.5,7.5s-7.5-3.364-7.5-7.5s3.364-7.5,7.5-7.5S358.034,302.453,358.034,306.589z
			 M168.966,306.589c0,4.136-3.364,7.5-7.5,7.5s-7.5-3.364-7.5-7.5s3.364-7.5,7.5-7.5S168.966,302.453,168.966,306.589z
			 M144.988,243.049c0.02-4.119,3.375-7.463,7.498-7.463c4.136,0,7.5,3.364,7.5,7.5s-3.364,7.5-7.5,7.5
			c-4.122,0-7.476-3.342-7.498-7.459c0-0.012,0.002-0.024,0.002-0.037C144.99,243.076,144.988,243.063,144.988,243.049z
			 M367.012,243.126c-0.022,4.117-3.376,7.459-7.498,7.459c-4.136,0-7.5-3.364-7.5-7.5c0-4.136,3.364-7.5,7.5-7.5
			c4.123,0,7.478,3.345,7.498,7.463c0,0.014-0.002,0.027-0.002,0.041C367.01,243.102,367.011,243.114,367.012,243.126z
			 M380.725,235.59c-3.095-8.731-11.433-15.004-21.211-15.004c-9.778,0-18.116,6.272-21.211,15.004H173.698
			c-3.095-8.731-11.433-15.004-21.211-15.004s-18.116,6.272-21.211,15.004h-21.639l-6.712-48.51h19.372
			c3.095,8.73,11.433,15.003,21.211,15.003c9.778,0,18.115-6.272,21.211-15.003h182.565c3.095,8.73,11.433,15.003,21.211,15.003
			c9.778,0,18.115-6.272,21.211-15.003H411.1l-7.055,48.51H380.725z M136.008,179.553c0.017-4.122,3.373-7.47,7.499-7.47
			c4.136,0,7.5,3.364,7.5,7.5c0,4.136-3.364,7.5-7.5,7.5c-4.126,0-7.484-3.35-7.499-7.473c0-0.01,0.001-0.02,0.001-0.03
			C136.01,179.571,136.008,179.562,136.008,179.553z M375.992,179.61c-0.015,4.123-3.372,7.473-7.499,7.473
			c-4.136,0-7.5-3.364-7.5-7.5s3.364-7.5,7.5-7.5c4.125,0,7.482,3.348,7.499,7.47c0,0.009-0.001,0.018-0.001,0.027
			C375.99,179.59,375.992,179.6,375.992,179.61z M389.702,172.08c-3.097-8.728-11.433-14.997-21.209-14.997
			s-18.112,6.27-21.209,14.997H164.716c-3.097-8.728-11.433-14.997-21.209-14.997s-18.112,6.27-21.209,14.997h-21.449l-6.71-48.5
			h19.182c3.096,8.729,11.433,15,21.21,15c9.777,0,18.114-6.271,21.21-15h200.523c3.096,8.729,11.433,15,21.21,15
			s18.114-6.271,21.21-15h21.652l-7.053,48.5H389.702z M127.03,116.08c0-4.136,3.364-7.5,7.5-7.5c4.136,0,7.5,3.364,7.5,7.5
			c0,4.136-3.364,7.5-7.5,7.5C130.394,123.58,127.03,120.216,127.03,116.08z M384.971,116.109c-0.016,4.123-3.373,7.471-7.499,7.471
			c-4.136,0-7.5-3.364-7.5-7.5c0-4.136,3.364-7.5,7.5-7.5c4.126,0,7.483,3.349,7.499,7.471c0,0.01-0.001,0.019-0.001,0.029
			S384.971,116.099,384.971,116.109z M118.049,52.56c0.01-4.127,3.369-7.482,7.499-7.482c4.136,0,7.5,3.364,7.5,7.5
			s-3.364,7.5-7.5,7.5c-4.129,0-7.488-3.353-7.499-7.479c0-0.006,0.001-0.012,0.001-0.018
			C118.05,52.573,118.049,52.566,118.049,52.56z M42.722,15h21.251l4.162,30.08H47.28L42.722,15z M49.554,60.08H70.21l6.71,48.5
			H56.904L49.554,60.08z M59.177,123.58h19.819l6.71,48.5H66.527L59.177,123.58z M68.801,187.08h18.981l6.712,48.51H76.152
			L68.801,187.08z M78.426,250.59h18.143l6.697,48.4H85.761L78.426,250.59z M88.034,313.99h17.307l6.724,48.6H95.399L88.034,313.99z
			 M105.024,426.1l-7.352-48.51h16.468l6.712,48.51H105.024z M179.425,441.095c-4.119,0-7.47-3.337-7.497-7.449
			c0-0.016,0.002-0.03,0.002-0.046c0-0.017-0.002-0.034-0.003-0.051c0.025-4.114,3.377-7.454,7.498-7.454c4.136,0,7.5,3.364,7.5,7.5
			S183.561,441.095,179.425,441.095z M340.072,433.646c-0.027,4.112-3.378,7.449-7.497,7.449c-4.136,0-7.5-3.364-7.5-7.5
			s3.364-7.5,7.5-7.5c4.12,0,7.473,3.34,7.498,7.454c0,0.017-0.003,0.034-0.003,0.051
			C340.07,433.616,340.072,433.63,340.072,433.646z M376.337,426.1h-22.55c-3.095-8.732-11.433-15.005-21.211-15.005
			c-9.778,0-18.117,6.273-21.211,15.005H200.636c-3.095-8.732-11.433-15.005-21.211-15.005c-9.778,0-18.117,6.273-21.211,15.005
			h-22.219l-6.712-48.51h19.952c3.096,8.73,11.433,15.002,21.21,15.002c9.777,0,18.115-6.271,21.21-15.002h128.688
			c3.096,8.73,11.433,15.002,21.21,15.002s18.115-6.271,21.21-15.002h20.629L376.337,426.1z M162.948,370.042
			c0.027-4.113,3.378-7.451,7.498-7.451c4.136,0,7.5,3.364,7.5,7.5s-3.364,7.5-7.5,7.5c-4.12,0-7.472-3.339-7.498-7.453
			c0-0.017,0.002-0.033,0.002-0.049C162.95,370.074,162.948,370.059,162.948,370.042z M349.052,370.139
			c-0.026,4.114-3.378,7.453-7.498,7.453c-4.136,0-7.5-3.364-7.5-7.5s3.364-7.5,7.5-7.5c4.119,0,7.471,3.338,7.498,7.451
			c0,0.016-0.002,0.031-0.002,0.047S349.052,370.123,349.052,370.139z M385.575,362.59h-22.811
			c-3.097-8.728-11.433-14.998-21.209-14.998s-18.112,6.27-21.209,14.998H191.655c-3.097-8.728-11.433-14.998-21.209-14.998
			s-18.112,6.27-21.209,14.998h-22.029l-6.724-48.6h19.739c3.068,8.78,11.43,15.099,21.243,15.099s18.175-6.318,21.243-15.099
			h146.582c3.068,8.78,11.43,15.099,21.243,15.099c9.813,0,18.175-6.318,21.243-15.099h20.866L385.575,362.59z M406.976,426.1
			h-15.478l7.055-48.51h15.775L406.976,426.1z M416.601,362.59h-15.867l7.068-48.6h16.164L416.601,362.59z M426.239,298.99h-16.256
			l7.039-48.4h16.553L426.239,298.99z M435.848,235.59h-16.645l7.055-48.51H443.2L435.848,235.59z M445.473,172.08h-17.034
			l7.053-48.5h17.331L445.473,172.08z M455.096,108.58h-17.422l7.053-48.5h17.719L455.096,108.58z M464.72,45.08h-17.812L451.283,15
			h17.996L464.72,45.08z"/>
	</g>
</g>
<g>
</g>
<g>
</g>
<g>
</g>
<g>
</g>
<g>
</g>
<g>
</g>
<g>
</g>
<g>
</g>
<g>
</g>
<g>
</g>
<g>
</g>
<g>
</g>
<g>
</g>
<g>
</g>
<g>
</g>
</svg>
