<?xml version="1.0" encoding="iso-8859-1"?>
<!-- Generator: Adobe Illustrator 19.0.0, SVG Export Plug-In . SVG Version: 6.00 Build 0)  -->
<svg version="1.1" id="Capa_1" xmlns="http://www.w3.org/2000/svg" xmlns:xlink="http://www.w3.org/1999/xlink" x="0px" y="0px"
	 viewBox="0 0 512.001 512.001" style="enable-background:new 0 0 512.001 512.001;" xml:space="preserve">
<g>
	<g>
		<path d="M389.96,205.76c-24.247-30.629-53.432-58.674-76.872-79.295l2.902,0.335c0.286,0.033,0.573,0.05,0.861,0.05
			c10.589,0,19.216-10.094,19.23-22.51c0-12.401-8.622-22.49-19.22-22.49c-0.285,0-0.57,0.017-0.854,0.049L303.5,83.332v-7.515
			l12.488,1.443c0.286,0.033,0.573,0.05,0.861,0.05c10.589,0,19.216-10.09,19.23-22.5c0-11.759-7.748-21.435-17.58-22.413V7.5
			c0-4.143-3.357-7.5-7.5-7.5H201c-4.142,0-7.5,3.357-7.5,7.5v25.027c-9.353,1.511-16.58,10.926-16.58,22.292
			c0.015,12.401,8.642,22.49,19.23,22.49c0.287,0,0.574-0.017,0.859-0.05l11.491-1.326v7.285l-11.504-1.321
			c-0.284-0.032-0.57-0.049-0.855-0.049c-10.598,0-19.22,10.089-19.22,22.5c0.015,12.406,8.642,22.5,19.23,22.5
			c0.287,0,0.574-0.017,0.859-0.05l1.752-0.202c-23.414,20.608-52.526,48.599-76.721,79.162
			C88.505,248.125,71.5,286.296,71.5,319.21c0,47.057,16.405,92.373,46.194,127.602c28.621,33.847,67.524,56.073,109.948,62.92
			c1.362,1.398,3.263,2.269,5.369,2.269h45.979c2.107,0,4.008-0.872,5.371-2.271c40.814-6.598,78.635-27.577,106.905-59.409
			c2.751-3.098,2.47-7.838-0.627-10.588c-3.1-2.752-7.839-2.469-10.588,0.627c-24.925,28.064-57.884,46.935-93.561,53.759V419
			h56.512c4.143,0,7.5-3.357,7.5-7.5v-54c0-4.143-3.357-7.5-7.5-7.5H308.5V142.448c21.913,19.625,47.907,45.095,69.698,72.622
			c31.387,39.65,47.302,74.688,47.302,104.14c0,34.4-9.382,67.775-27.13,96.516c-2.177,3.523-1.084,8.146,2.44,10.321
			c1.228,0.759,2.589,1.12,3.934,1.12c2.514,0,4.97-1.264,6.388-3.561c19.213-31.11,29.368-67.21,29.368-104.396
			C440.5,286.296,423.497,248.125,389.96,205.76z M317.114,47.33c1.702,0.264,3.967,3.121,3.967,7.471
			c-0.005,4.361-2.272,7.222-3.976,7.488L303.5,60.717V48.89L317.114,47.33z M208.5,15h95v15h-20.038c-4.143,0-7.5,3.357-7.5,7.5
			s3.357,7.5,7.5,7.5h5.038v77.273h-65V45h27.962c4.142,0,7.5-3.357,7.5-7.5s-3.357-7.5-7.5-7.5H208.5V15z M195.896,62.289
			c-1.702-0.267-3.97-3.126-3.975-7.479c0-4.357,2.265-7.215,3.967-7.479l12.613,1.448v12.057L195.896,62.289z M195.896,111.829
			c-1.703-0.267-3.97-3.13-3.976-7.489c0-4.353,2.265-7.205,3.967-7.47l12.613,1.448v12.057L195.896,111.829z M225.511,494.125
			C145.68,478.918,86.5,405.271,86.5,319.21c0-29.452,15.915-64.489,47.302-104.14c21.791-27.528,47.785-52.998,69.698-72.622
			v32.647c0,4.143,3.358,7.5,7.5,7.5c4.142,0,7.5-3.357,7.5-7.5v-37.822h75V350h-75V207.096c0-4.143-3.358-7.5-7.5-7.5
			c-4.142,0-7.5,3.357-7.5,7.5V350H169c-4.142,0-7.5,3.357-7.5,7.5v54c0,4.143,3.358,7.5,7.5,7.5h56.512V494.125z M271.49,497
			H240.51v-77.771h30.979V497z M335.502,365v39H176.5v-39H211h5h80h5H335.502z M303.5,110.257V98.43l13.613-1.56
			c1.702,0.264,3.967,3.116,3.967,7.461c-0.005,4.367-2.272,7.231-3.976,7.498L303.5,110.257z"/>
	</g>
</g>
<g>
	<g>
		<path d="M177.859,226.53c-5.693,0-31.59,11.55-23.22,56.23c3.11,16.59,0.47,29.06-7.86,37.07c-7.95,7.64-19.08,9.02-23.27,8.07
			c-4.04-0.93-8.06,1.6-8.98,5.64c-0.93,4.04,1.6,8.06,5.64,8.98c1.84,0.42,3.92,0.64,6.17,0.64c9.5,0,21.85-3.89,30.83-12.52
			c8.39-8.07,17.32-23.4,12.22-50.65c-5.89-31.42,7.15-37.6,9.75-38.51c0.01,0,0.01,0,0.02-0.01c3.54-0.61,6.23-3.69,6.23-7.41
			C185.39,229.9,182.019,226.53,177.859,226.53z"/>
	</g>
</g>
<g>
	<g>
		<path d="M397.471,333.54c-0.92-4.04-4.94-6.57-8.98-5.64c-4.19,0.95-15.32-0.43-23.27-8.07c-8.33-8.01-10.97-20.48-7.86-37.07
			c8.37-44.68-17.527-56.23-23.22-56.23c-4.16,0-7.53,3.37-7.53,7.53c0,3.72,2.69,6.8,6.23,7.41c0.01,0.01,0.01,0.01,0.02,0.01
			c2.6,0.91,15.64,7.09,9.75,38.51c-5.1,27.25,3.83,42.58,12.22,50.65c8.98,8.63,21.33,12.52,30.83,12.52
			c2.25,0,4.33-0.22,6.17-0.64C395.871,341.6,398.401,337.58,397.471,333.54z"/>
	</g>
</g>
<g>
</g>
<g>
</g>
<g>
</g>
<g>
</g>
<g>
</g>
<g>
</g>
<g>
</g>
<g>
</g>
<g>
</g>
<g>
</g>
<g>
</g>
<g>
</g>
<g>
</g>
<g>
</g>
<g>
</g>
</svg>
