<?xml version="1.0" encoding="iso-8859-1"?>
<!-- Generator: Adobe Illustrator 19.0.0, SVG Export Plug-In . SVG Version: 6.00 Build 0)  -->
<svg version="1.1" id="Capa_1" xmlns="http://www.w3.org/2000/svg" xmlns:xlink="http://www.w3.org/1999/xlink" x="0px" y="0px"
	 viewBox="0 0 512.001 512.001" style="enable-background:new 0 0 512.001 512.001;" xml:space="preserve">
<g>
	<g>
		<path d="M246.994,152.292c-0.261-4.134-3.828-7.26-7.957-7.013c-13.011,0.819-25.241,4.632-36.248,11.169L72.57,26.232
			c-2.929-2.928-7.678-2.928-10.606,0c-2.929,2.93-2.929,7.677,0,10.607l19.72,19.719l-7.778,7.778L69.9,60.331
			c-1.406-1.406-3.314-2.196-5.303-2.196c-1.989,0-3.897,0.79-5.303,2.197l-16.97,16.97c-2.929,2.929-2.929,7.676,0,10.606
			l119.659,119.655c2.888,15.724-0.706,29.957-10.006,39.249c-13.245,13.229-36.085,14.644-58.189,3.606
			c-1.671-0.834-3.543-0.992-5.264-0.537c-41.183,9.574-71.591,38.249-83.444,78.702c-4.666,15.925-6.059,32.525-4.419,48.994
			c0.623,6.329,1.687,12.672,3.211,18.983c5.087,21.066,15.125,41.045,29.285,58.508c0.114,0.141,0.234,0.279,0.349,0.419
			c0.911,1.116,1.83,2.225,2.775,3.319c0.361,0.419,0.738,0.829,1.104,1.245c0.724,0.822,1.443,1.647,2.187,2.456
			c1.027,1.119,2.077,2.223,3.141,3.317c0.107,0.11,0.209,0.224,0.316,0.334l1.24,1.26c0.017,0.018,0.061,0.061,0.091,0.091
			c0.009,0.009,0.017,0.02,0.026,0.029c0.008,0.008,0.017,0.015,0.025,0.022l0.144,0.145c0.709,0.707,1.428,1.397,2.147,2.088
			c0.104,0.1,0.206,0.202,0.31,0.301c1.289,1.232,2.592,2.439,3.91,3.62c0.003,0.002,0.005,0.005,0.008,0.007
			c1.335,1.197,2.687,2.363,4.052,3.507c0.022,0.019,0.045,0.038,0.067,0.057c11.012,9.225,22.964,16.728,35.705,22.408
			c0.066,0.03,0.132,0.059,0.198,0.088c1.481,0.658,2.973,1.293,4.475,1.901c0.103,0.042,0.205,0.085,0.308,0.127
			c0.248,0.1,0.493,0.206,0.741,0.305c0.169,0.067,0.339,0.121,0.51,0.174c6.014,2.358,12.155,4.321,18.4,5.832
			c10.706,2.591,21.481,3.881,32.121,3.881c14.668,0,29.076-2.453,42.678-7.333c3.898-1.399,5.925-5.693,4.526-9.592
			c-1.399-3.898-5.691-5.923-9.593-4.526c-20.701,7.428-43.595,8.463-66.204,2.992c-2.988-0.723-5.952-1.559-8.887-2.502
			c16.04-29.497,28.416-55.208,17.178-74.118l30.035-25.625c1.592-1.358,2.544-3.32,2.626-5.411c0.083-2.091-0.712-4.121-2.193-5.6
			l-25.983-25.963c-1.479-1.477-3.51-2.26-5.596-2.188c-2.089,0.082-4.049,1.032-5.407,2.622l-19.198,22.467
			c-1.14-3.25-2.287-6.914-3.687-11.389c-1.728-5.524-3.877-12.399-6.813-20.94c-5.123-14.889-13.631-25.025-25.288-30.125
			c-10.694-4.681-23.661-4.926-38.68-0.781c12.742-24.459,34.707-41.814,62.594-48.935c27.215,12.586,55.614,9.699,72.963-7.63
			c12.691-12.68,17.838-31.407,14.325-51.743c0.604-1.035,1.128-1.969,1.616-2.837c2.638-4.692,4.544-8.082,15.326-19.875
			c12.738-13.951,28.26-21.594,46.135-22.72C244.114,159.988,247.254,156.426,246.994,152.292z M95.923,485.556
			c-10.047-4.586-19.63-10.49-28.549-17.59L115.391,427C119.696,439.022,110.533,458.616,95.923,485.556z M126.824,370.665
			l14.503,14.492L57.048,457.06c-0.585,0.453-1.387,0.416-1.948-0.055c-0.061-0.062-0.124-0.122-0.185-0.183
			c-0.47-0.555-0.508-1.355-0.057-1.936L126.824,370.665z M59.688,328.51c7.764,3.397,13.363,10.353,17.117,21.263
			c2.867,8.339,4.894,14.82,6.682,20.537c2.537,8.113,4.398,14.053,6.974,19.82l-46.497,54.415
			c-15.078-19.003-24.58-40.97-27.771-63.35c-0.098-0.694-0.179-1.388-0.264-2.082c-0.071-0.568-0.148-1.136-0.211-1.704
			c-0.112-1.027-0.206-2.054-0.292-3.08c-0.02-0.242-0.046-0.483-0.065-0.726c-0.089-1.151-0.159-2.301-0.215-3.45
			c-0.006-0.124-0.015-0.247-0.02-0.371c-0.054-1.193-0.089-2.385-0.106-3.576c-0.001-0.087-0.004-0.174-0.005-0.261
			c-0.015-1.195-0.011-2.389,0.01-3.579c0.002-0.091,0.002-0.182,0.004-0.272c0.023-1.175,0.067-2.347,0.125-3.517
			c0.006-0.116,0.011-0.231,0.017-0.347c0.061-1.141,0.14-2.279,0.235-3.414c0.013-0.152,0.026-0.305,0.039-0.458
			c0.096-1.101,0.209-2.198,0.337-3.292c0.023-0.193,0.046-0.385,0.07-0.578c0.13-1.06,0.273-2.117,0.432-3.17
			c0.035-0.229,0.072-0.457,0.108-0.685c0.161-1.023,0.334-2.044,0.523-3.061c0.047-0.253,0.099-0.505,0.148-0.758
			c0.194-1.002,0.397-2.001,0.618-2.996c0.053-0.238,0.112-0.474,0.166-0.712c0.234-1.02,0.476-2.039,0.739-3.052
			c0.032-0.122,0.067-0.242,0.099-0.363c0.293-1.11,0.598-2.216,0.926-3.315C40.411,323.875,52.841,325.515,59.688,328.51z
			 M92.29,67.165l12.016,12.015l5.522,5.522l-7.698,7.858L84.512,74.943L92.29,67.165z M167.526,191.892L58.234,82.604l6.363-6.364
			l4.001,4.001c0.002,0.001,0.003,0.003,0.004,0.005l28.28,28.279c0.003,0.003,0.006,0.005,0.009,0.008l75.886,75.884
			C170.348,187.492,168.806,189.781,167.526,191.892z M182.771,172.85c-0.058,0.063-0.108,0.119-0.165,0.182l-69.868-69.866
			l7.697-7.858l70.048,70.045C187.812,167.67,185.231,170.157,182.771,172.85z"/>
	</g>
</g>
<g>
	<g>
		<path d="M232.39,342.071l-0.01,0.01c-1.29-2.28-3.76-3.82-6.57-3.82c-4.18,0-7.57,3.39-7.57,7.57c0,1.66,0.53,3.2,1.45,4.44
			c0.76,3.01-1.31,10.2-14.31,19.53c-17.44,12.51-20.62,25.48-20.22,34.15c0.49,10.5,6.4,18.6,11.68,21.69
			c1.19,0.7,2.5,1.03,3.78,1.03c2.58,0,5.09-1.33,6.49-3.72c2.09-3.57,0.88-8.16-2.69-10.26c-1.02-0.61-4.06-4.16-4.28-9.54
			c-0.28-7.08,4.56-14.4,13.99-21.17C243.7,360.761,232.86,342.831,232.39,342.071z"/>
	</g>
</g>
<g>
	<g>
		<path d="M199.525,347.704l-35.163-35.136c-2.93-2.927-7.679-2.925-10.606,0.004c-2.928,2.931-2.926,7.679,0.004,10.607
			l35.163,35.136c1.464,1.463,3.383,2.194,5.301,2.194c1.92,0,3.841-0.733,5.305-2.198
			C202.457,355.38,202.455,350.632,199.525,347.704z"/>
	</g>
</g>
<g>
	<g>
		<path d="M508.147,37.327L474.612,3.845c-4.509-4.502-11.391-5.13-16.008-1.461l-44.737,35.565l-2.212-3.365
			c-0.283-0.429-0.608-0.828-0.973-1.191c-4.295-4.28-9.997-6.637-16.054-6.637c-6.079,0-11.787,2.36-16.069,6.642
			c-4.3,4.293-6.667,10.001-6.664,16.072c0.002,6.065,2.371,11.764,6.668,16.047c0.366,0.365,0.77,0.691,1.203,0.974l9.79,6.371
			l-6.28,5.485l-6.506-9.24c-0.248-0.352-0.525-0.682-0.83-0.986c-4.286-4.285-9.99-6.645-16.063-6.645
			c-6.064,0-11.77,2.357-16.074,6.646c-8.854,8.854-8.854,23.261,0,32.115c0.333,0.334,0.697,0.635,1.087,0.899l11.058,7.518
			l-55.04,53.007c-8.903-5.223-18.076-9.293-27.347-12.094c-3.963-1.196-8.15,1.045-9.349,5.01c-1.198,3.966,1.045,8.151,5.01,9.349
			c6.871,2.076,13.705,4.966,20.411,8.595l-96.407,92.847c-1.451,1.397-2.279,3.319-2.297,5.334
			c-0.019,2.014,0.774,3.951,2.199,5.374l42.906,42.861c1.407,1.406,3.314,2.194,5.301,2.194c0.023,0,0.045,0,0.068,0
			c2.012-0.019,3.931-0.845,5.328-2.292l93.712-97.093c9.009,15.545,13.541,31.576,13.141,46.818
			c-0.36,13.732-4.682,26.251-12.871,37.4c-0.068,0.082-0.13,0.168-0.194,0.253c-3.601,4.858-7.927,9.459-12.997,13.781
			c-11.252,9.587-13.321,10.763-17.076,12.899c-1.062,0.603-2.296,1.306-3.859,2.256c-20.388-3.544-39.16,1.589-51.871,14.287
			c-17.358,17.337-20.252,45.716-7.641,72.911c-5.706,22.284-18.042,40.996-35.791,54.23c-3.321,2.477-4.005,7.176-1.529,10.496
			c1.472,1.975,3.731,3.017,6.018,3.016c1.559,0,3.132-0.484,4.478-1.487c21.301-15.883,35.843-38.5,42.054-65.403
			c0.393-1.7,0.18-3.484-0.601-5.045c-11.049-22.07-9.631-44.877,3.614-58.105c9.274-9.264,23.449-12.857,39.131-10.027
			l135.726,135.721c1.464,1.464,3.384,2.196,5.303,2.196s3.839-0.732,5.303-2.196l16.97-16.969c1.799-1.799,2.488-4.284,2.078-6.612
			l0.614-2.172c4.825-16.984-2.594-38.495-18.901-54.802l-21.605-21.605c-2.929-2.928-7.678-2.928-10.606,0
			c-2.929,2.93-2.929,7.677,0,10.607l21.605,21.605c9.494,9.493,15.249,21.224,15.891,31.447L339.246,329.668
			c2.787-2.497,5.38-5.091,7.783-7.773l49.035,49.033c1.464,1.464,3.384,2.196,5.303,2.196s3.839-0.732,5.303-2.196
			c2.929-2.93,2.929-7.677,0-10.607l-50.504-50.502c7.796-12.386,12.028-26.185,12.413-40.863
			c0.505-19.256-5.491-39.325-17.355-58.38l52.407-54.298l7.481,10.961c0.265,0.389,0.566,0.752,0.9,1.084
			c4.294,4.281,9.996,6.638,16.055,6.638c6.065,0,11.771-2.357,16.069-6.642c4.297-4.289,6.663-9.993,6.664-16.061
			c0-6.068-2.366-11.773-6.663-16.063c-0.306-0.305-0.637-0.583-0.991-0.832l-9.321-6.541l5.494-6.322l6.46,9.893
			c0.285,0.437,0.616,0.843,0.986,1.212c4.295,4.28,9.997,6.637,16.054,6.637c6.058,0,11.76-2.357,16.058-6.642
			c4.297-4.289,6.664-9.993,6.664-16.061s-2.366-11.773-6.664-16.063c-0.363-0.362-0.762-0.687-1.191-0.968l-3.409-2.231
			l35.379-44.992C513.285,48.671,512.637,41.811,508.147,37.327z M451.841,463.471l-6.364,6.363L320.208,344.57
			c2.107-1.266,4.214-2.689,7.477-5.249L451.841,463.471z M388.71,54.415c-1.174-1.383-1.815-3.118-1.815-4.952
			c-0.001-2.058,0.802-3.993,2.266-5.454c1.453-1.453,3.395-2.254,5.467-2.254c1.844,0,3.592,0.644,4.989,1.825l3.14,4.775
			c-0.553,1.232-0.898,2.568-0.977,3.958c-0.157,2.765,0.675,5.526,2.302,7.863l-2.783,2.431L388.71,54.415z M354.009,89.197
			c-2.598-3.025-2.464-7.604,0.392-10.461c1.464-1.459,3.408-2.262,5.476-2.262c1.884,0,3.662,0.665,5.062,1.884l6.977,9.91
			l-8.436,7.368L354.009,89.197z M241.238,302.933l-32.099-32.065l38.193-36.782l30.713,30.712L241.238,302.933z M288.464,254.002
			l-30.326-30.324l17.831-17.173l29.686,29.686L288.464,254.002z M316.074,225.396l-29.299-29.297l17.83-17.172l28.659,28.658
			L316.074,225.396z M343.683,196.79l-28.272-28.271l17.831-17.172l27.632,27.631L343.683,196.79z M371.293,168.183l-27.245-27.244
			l21.123-20.343l26.508,26.464L371.293,168.183z M433.909,147.206c1.223,1.402,1.891,3.176,1.891,5.052
			c0,2.057-0.803,3.99-2.257,5.442c-1.463,1.458-3.408,2.262-5.475,2.262c-1.863,0-3.628-0.656-5.031-1.859l-6.448-9.446
			l7.344-8.451L433.909,147.206z M402.099,136.266l-26.121-26.077l38.84-37.405l24.719,24.693L402.099,136.266z M468.282,122.98
			c-1.464,1.459-3.405,2.263-5.465,2.263c-1.841,0-3.586-0.642-4.981-1.818l-8.29-12.695l2.379-2.737
			c2.183,1.564,4.749,2.427,7.351,2.427c0.236,0,0.474-0.008,0.711-0.021c1.379-0.083,2.704-0.428,3.926-0.977l4.803,3.143
			c1.181,1.391,1.824,3.133,1.824,4.974C470.539,119.595,469.737,121.529,468.282,122.98z M458.695,93.826l-40.344-40.28
			l47.217-37.535l30.428,30.379L458.695,93.826z"/>
	</g>
</g>
<g>
	<g>
		<path d="M169.93,279.73l0.02-0.03c-0.94-0.59-6.04-3.48-13.87-1.92c-8.94,1.77-17.71,8.56-26.06,20.17
			c-6.77,9.42-14.1,14.25-21.2,13.97c-5.38-0.21-8.94-3.25-9.56-4.27c-2.09-3.58-6.69-4.78-10.26-2.68
			c-3.58,2.09-4.78,6.69-2.68,10.26c3.09,5.28,11.2,11.18,21.7,11.67c0.45,0.02,0.92,0.03,1.4,0.03c8.64,0,20.91-3.72,32.78-20.23
			c9.29-12.92,16.48-15.04,19.51-14.3c1.24,0.91,2.77,1.44,4.42,1.44c4.19,0,7.58-3.4,7.58-7.58
			C173.71,283.461,172.19,281.021,169.93,279.73z"/>
	</g>
</g>
<g>
</g>
<g>
</g>
<g>
</g>
<g>
</g>
<g>
</g>
<g>
</g>
<g>
</g>
<g>
</g>
<g>
</g>
<g>
</g>
<g>
</g>
<g>
</g>
<g>
</g>
<g>
</g>
<g>
</g>
</svg>
