<?xml version="1.0" encoding="iso-8859-1"?>
<!-- Generator: Adobe Illustrator 19.0.0, SVG Export Plug-In . SVG Version: 6.00 Build 0)  -->
<svg version="1.1" id="Capa_1" xmlns="http://www.w3.org/2000/svg" xmlns:xlink="http://www.w3.org/1999/xlink" x="0px" y="0px"
	 viewBox="0 0 512 512" style="enable-background:new 0 0 512 512;" xml:space="preserve">
<g>
	<g>
		<path d="M393.796,404.859c-1.714-3.77-6.159-5.437-9.932-3.725c-17.237,7.831-36.26,14.058-56.211,18.555
			c-0.162,0.029-0.32,0.067-0.478,0.106c-22.921,5.13-47.058,7.969-71.175,8.205c-39.717-0.389-80.607-8.025-115.142-21.506
			c-33.471-13.064-58.848-30.666-71.455-49.562c-13.811-20.7-14.516-50.65-2.095-89.017c11.014-34.021,29.985-67.462,43.298-89.658
			c3.068-5.12,6.058-10.251,8.887-15.251c2.04-3.605,0.771-8.182-2.834-10.221c-3.606-2.039-8.182-0.772-10.223,2.834
			c-2.768,4.893-5.695,9.914-8.698,14.925c-13.689,22.824-33.216,57.271-44.703,92.751c-13.905,42.949-12.597,77.254,3.888,101.961
			c20.013,29.995,64.952,54.682,118.566,67.722V467h-14.502c-12.408,0-22.503,10.094-22.503,22.5s10.095,22.5,22.503,22.5h190.026
			c12.408,0,22.503-10.094,22.503-22.5S363.421,467,351.013,467h-14.502v-33.982c18.938-4.603,37.019-10.714,53.559-18.228
			C393.841,413.077,395.51,408.631,393.796,404.859z M351.013,482c4.136,0,7.501,3.364,7.501,7.5s-3.365,7.5-7.501,7.5H160.987
			c-4.136,0-7.501-3.364-7.501-7.5s3.365-7.5,7.501-7.5h45.554c4.143,0,7.501-3.357,7.501-7.5s-3.358-7.5-7.501-7.5h-16.05v-30.723
			c21.065,4.148,43.179,6.51,65.437,6.723c0.024,0,0.048,0,0.072,0s0.048,0,0.072,0c22.063-0.211,44.163-2.523,65.437-6.698V467
			h-82.964c-4.143,0-7.501,3.357-7.501,7.5s3.358,7.5,7.501,7.5H351.013z"/>
	</g>
</g>
<g>
	<g>
		<path d="M458.965,263.296c-11.487-35.48-31.014-69.927-44.702-92.749c-25.776-43.004-38.601-74.494-44.975-94.98
			c16.877-5.237,28.754-19.848,28.754-36.748C398.041,17.414,379,0,355.595,0c-22.771,0-41.405,16.485-42.398,37.09H198.803
			C197.81,16.485,179.176,0,156.405,0C133,0,113.959,17.414,113.959,38.818c0,16.901,11.879,31.513,28.758,36.749
			c-4.874,15.707-12.076,33.22-21.468,52.185c-1.838,3.712-0.319,8.211,3.394,10.049c3.713,1.84,8.212,0.319,10.051-3.393
			c11.375-22.969,19.694-44.013,24.726-62.546c0.575-2.118,0.193-4.382-1.045-6.194c-1.238-1.813-3.207-2.991-5.39-3.228
			c-13.696-1.478-24.024-11.633-24.024-23.622c0-13.134,12.311-23.818,27.444-23.818c15.132,0,27.444,10.685,27.444,23.818
			c0,5.262-1.59,54.056-56.661,145.914c-35.649,59.465-42.393,109.038-19.503,143.361c15.699,23.529,45.168,39.492,86.537,47.248
			c0.498,0.146,1.017,0.24,1.552,0.28c9.243,1.675,19.069,2.946,29.462,3.805c0.181,0.022,0.365,0.035,0.55,0.044
			c9.586,0.777,19.633,1.218,30.161,1.292c0.035,0,0.069,0,0.104,0c10.527-0.073,20.575-0.514,30.161-1.292
			c0.185-0.009,0.369-0.022,0.55-0.044c10.393-0.859,20.219-2.13,29.462-3.805c0.535-0.04,1.055-0.133,1.553-0.28
			c41.37-7.756,70.838-23.719,86.538-47.249c22.89-34.322,16.147-83.896-19.503-143.361
			C329.741,92.874,328.151,44.08,328.151,38.818c0-13.134,12.311-23.818,27.444-23.818c15.132,0,27.444,10.685,27.444,23.818
			c0,11.989-10.328,22.145-24.024,23.622c-2.182,0.236-4.152,1.415-5.39,3.228c-1.237,1.813-1.619,4.076-1.045,6.194
			c5.651,20.813,18.706,56.165,48.815,106.397c13.311,22.194,32.282,55.635,43.296,89.656c12.421,38.366,11.716,68.316-2.095,89.017
			c-6.906,10.351-17.548,20.265-31.631,29.466c-3.468,2.266-4.443,6.914-2.176,10.381c1.439,2.202,3.838,3.398,6.286,3.398
			c1.407,0,2.831-0.396,4.096-1.223c15.788-10.315,27.868-21.653,35.905-33.698C471.561,340.55,472.869,306.245,458.965,263.296z
			 M188.841,359.013c-32.884-7.338-56.209-20.558-68.675-39.242c-19.446-29.157-12.568-73.186,19.889-127.326
			c26.159-43.633,40.708-78.012,48.786-103.206V359.013z M218.665,363.781c-5.107-0.537-10.048-1.181-14.822-1.932V82.09h14.822
			V363.781z M248.499,365.641c-5.073-0.122-10.013-0.334-14.832-0.629V82.09h14.832V365.641z M278.333,365.012
			c-4.819,0.294-9.759,0.507-14.832,0.629V82.09h14.832V365.012z M308.157,361.849c-4.773,0.751-9.715,1.395-14.822,1.932V82.09
			h14.822V361.849z M194.957,67.09c1.333-5.867,2.216-10.867,2.798-15h116.491c0.581,4.133,1.464,9.133,2.797,15H194.957z
			 M371.945,192.444c32.457,54.141,39.335,98.169,19.89,127.326c-12.467,18.685-35.792,31.906-68.676,39.243V89.239
			C331.238,114.432,345.787,148.811,371.945,192.444z"/>
	</g>
</g>
<g>
</g>
<g>
</g>
<g>
</g>
<g>
</g>
<g>
</g>
<g>
</g>
<g>
</g>
<g>
</g>
<g>
</g>
<g>
</g>
<g>
</g>
<g>
</g>
<g>
</g>
<g>
</g>
<g>
</g>
</svg>
