<?xml version="1.0" encoding="iso-8859-1"?>
<!-- Generator: Adobe Illustrator 19.0.0, SVG Export Plug-In . SVG Version: 6.00 Build 0)  -->
<svg version="1.1" id="Capa_1" xmlns="http://www.w3.org/2000/svg" xmlns:xlink="http://www.w3.org/1999/xlink" x="0px" y="0px"
	 viewBox="0 0 512.002 512.002" style="enable-background:new 0 0 512.002 512.002;" xml:space="preserve">
<g>
	<g>
		<path d="M509.09,110.453c-9.338-9.758-97.784-98.204-107.523-107.525c-2.673-2.575-6.501-3.528-10.241-2.552
			c-4.109,1.075-7.422,4.272-8.646,8.342c-1.539,5.116-2.987,10.044-4.393,14.828c-18.08,61.517-29.103,99.017-142.795,214.835
			l-0.488-0.488c-4.072-4.069-10.793-3.725-15.304,0.786l-15.079,15.079c-4.511,4.512-4.855,11.233-0.786,15.304l0.967,0.967
			l-18.724,19.748c-2.85,3.006-2.724,7.753,0.282,10.603c1.45,1.375,3.306,2.058,5.159,2.058c1.986,0,3.969-0.784,5.443-2.34
			l18.449-19.458l15.949,15.949L106.584,414.904c-3.006,2.85-3.132,7.597-0.282,10.603c1.475,1.556,3.457,2.34,5.443,2.34
			c1.853,0,3.709-0.683,5.159-2.058l125.067-118.59l0.967,0.967c1.901,1.9,4.381,2.839,6.943,2.839c2.924,0,5.956-1.222,8.36-3.625
			l15.08-15.079c4.511-4.512,4.855-11.233,0.786-15.304l-0.487-0.487c85.306-83.713,125.188-108.246,155.501-122.147
			c3.766-1.727,5.418-6.179,3.691-9.943c-1.726-3.766-6.179-5.419-9.943-3.691c-42.953,19.697-89.558,56.153-159.856,125.176
			l-16.915-16.915C362.508,130.42,373.934,91.552,392.679,27.776c0.935-3.182,1.888-6.427,2.875-9.75
			c18.329,18.064,80.318,80.054,98.42,98.421c-3.324,0.987-6.571,1.941-9.754,2.877c-10.732,3.154-20.869,6.134-30.8,9.458
			c-3.928,1.315-6.046,5.565-4.731,9.493c1.315,3.929,5.567,6.044,9.493,4.731c9.667-3.236,19.673-6.178,30.268-9.291
			c4.785-1.406,9.715-2.855,14.832-4.395c4.07-1.224,7.268-4.536,8.343-8.646C512.602,116.936,511.649,113.108,509.09,110.453z
			 M260.152,284.256l-9.955,9.955l-32.407-32.407l9.955-9.955L260.152,284.256z"/>
	</g>
</g>
<g>
	<g>
		<path d="M174.175,313.23c-3.004-2.849-7.752-2.725-10.603,0.282L50.931,432.305l-45.78,30.334
			c-2.889,1.914-4.745,4.989-5.092,8.437c-0.347,3.449,0.86,6.832,3.311,9.283l28.272,28.273c2.175,2.174,5.083,3.369,8.119,3.369
			c0.386,0,0.774-0.02,1.164-0.059c3.447-0.347,6.522-2.203,8.436-5.091l30.334-45.781l13.717-13.006
			c3.006-2.85,3.132-7.597,0.282-10.603c-2.848-3.007-7.596-3.131-10.601-0.282l-9.041,8.572l-7.802-7.801l108.207-114.117
			C177.307,320.828,177.181,316.081,174.175,313.23z M39.222,494.996l-22.217-22.217l37.808-25.052l9.461,9.461L39.222,494.996z"/>
	</g>
</g>
<g>
</g>
<g>
</g>
<g>
</g>
<g>
</g>
<g>
</g>
<g>
</g>
<g>
</g>
<g>
</g>
<g>
</g>
<g>
</g>
<g>
</g>
<g>
</g>
<g>
</g>
<g>
</g>
<g>
</g>
</svg>
