<?xml version="1.0" encoding="iso-8859-1"?>
<!-- Generator: Adobe Illustrator 19.0.0, SVG Export Plug-In . SVG Version: 6.00 Build 0)  -->
<svg version="1.1" id="Capa_1" xmlns="http://www.w3.org/2000/svg" xmlns:xlink="http://www.w3.org/1999/xlink" x="0px" y="0px"
	 viewBox="0 0 511.999 511.999" style="enable-background:new 0 0 511.999 511.999;" xml:space="preserve">
<g>
	<g>
		<g>
			<path d="M445.434,199.04l-10.21-76.305c-0.549-4.104-4.318-6.993-8.428-6.438c-4.105,0.549-6.988,4.322-6.439,8.429
				l10.142,75.799c-0.069,12.202-2.728,17.771-4.671,19.867c-0.063,0.061-0.122,0.125-0.182,0.188
				c-0.412,0.409-0.787,0.662-1.087,0.784c-2.801-0.239-5.008-2.605-5.008-5.48c0-0.3-0.018-0.599-0.054-0.896l-5.897-48.982
				c0,0,0-0.001,0-0.002L399.73,50.805c-0.052-0.435,0.126-0.739,0.286-0.919c0.156-0.176,0.43-0.386,0.853-0.386h0.001h0.333
				c5.251,0,9.686,3.944,10.328,9.273l4.543,33.952c0.549,4.104,4.317,6.984,8.428,6.438c4.105-0.549,6.988-4.322,6.439-8.429
				l-4.53-33.854c-1.429-11.87-10.91-21.014-22.557-22.233V23.5c0-12.958-10.542-23.5-23.5-23.5H191.999c-4.142,0-7.5,3.357-7.5,7.5
				s3.358,7.5,7.5,7.5h188.354c4.687,0,8.5,3.813,8.5,8.5v11h-265v-11c0-4.687,3.813-8.5,8.5-8.5h27.646c4.142,0,7.5-3.357,7.5-7.5
				s-3.358-7.5-7.5-7.5h-27.646c-12.958,0-23.5,10.542-23.5,23.5v11.091c-11.965,0.916-21.804,10.177-23.258,22.195l-19.03,142.25
				c-0.044,0.329-0.066,0.661-0.066,0.994c0,12.604,2.33,22.147,6.933,28.439v17.142c0,16.982,13.815,30.798,30.797,30.798
				c0.832,0,1.653-0.043,2.466-0.117c8.204,49.529,21.544,92.103,34.838,130.83c1.068,3.111,3.978,5.067,7.093,5.067
				c0.808,0,1.629-0.132,2.436-0.408c3.918-1.345,6.003-5.611,4.659-9.528c-13.364-38.933-26.763-81.784-34.737-131.595
				c6.451-5.011,10.613-12.834,10.613-21.617v-52.752c0-10.599-7.634-19.442-17.691-21.335c0.063-5.271,0.193-10.473,0.395-15.535
				L124.408,75.5h111.446v99.391c-12.217,6.39-20.114,19.139-20.114,33.229v35.34c0,20.683,16.827,37.51,37.51,37.51h6.21
				c20.683,0,37.51-16.827,37.51-37.51v-35.34c0-14.086-7.897-26.833-20.116-33.226V75.5h110.741l11.074,91.981
				c0.06,2.419,0.106,4.871,0.136,7.342c-10.409,1.601-18.405,10.617-18.405,21.467v52.75c0,9.073,4.441,17.124,11.259,22.106
				c-9.576,59.514-26.925,109.103-42.283,152.993c-5.252,15.008-10.244,29.278-14.528,42.86H177.854
				c-3.295-10.451-7.084-21.546-11.622-34.558c-1.364-3.91-5.641-5.974-9.551-4.612c-3.911,1.364-5.976,5.641-4.612,9.552
				c3.999,11.468,7.408,21.418,10.394,30.716c-2.161,1.316-3.609,3.687-3.609,6.402v30c0,4.143,3.358,7.5,7.5,7.5h180
				c4.142,0,7.5-3.357,7.5-7.5v-30c0-2.716-1.448-5.087-3.609-6.403c3.971-12.359,8.518-25.369,13.289-39.003
				c15.326-43.796,32.605-93.197,42.471-152.747c0.584,0.037,1.172,0.063,1.765,0.063c16.983,0,30.8-13.816,30.8-30.8v-17.07
				c3.811-5.236,6.929-13.957,6.929-28.504C445.499,199.702,445.478,199.37,445.434,199.04z M100.475,58.682
				c0.633-5.234,5.072-9.182,10.324-9.182h0.33c0.426,0,0.702,0.21,0.858,0.387c0.159,0.179,0.337,0.484,0.286,0.917L99.4,157.698
				c-0.004,0.028-0.006,0.058-0.01,0.086l-2.022,16.79h-2.221c-3.824,0-7.418,0.997-10.542,2.74L100.475,58.682z M116.598,196.289
				v52.752c0,6.819-5.548,12.368-12.369,12.368c-8.711,0-15.797-7.087-15.797-15.798v-49.322c0-3.702,3.012-6.715,6.715-6.715
				h14.736C113.585,189.574,116.598,192.587,116.598,196.289z M250.853,49.799h11V216.17c0-0.007,0-0.009,0,0.011
				c-0.001,0.018-0.001,0.018-0.001,0.013c-0.007,3.026-2.471,5.487-5.499,5.487c-3.033,0-5.5-2.468-5.5-5.5V49.799z M126.213,60.5
				l0.952-7.905c0.124-1.035,0.133-2.07,0.059-3.095h108.629v11H126.213z M281.97,208.12v35.34c0,12.412-10.098,22.51-22.51,22.51
				h-6.21c-12.412,0-22.51-10.098-22.51-22.51v-35.34c0-5.332,1.886-10.342,5.114-14.279v22.34c0,11.304,9.196,20.5,20.5,20.5
				s20.5-9.196,20.5-20.5v-22.335C280.082,197.782,281.97,202.791,281.97,208.12z M276.853,60.5v-11h107.924
				c-0.074,1.025-0.065,2.062,0.06,3.098l0.951,7.902H276.853z M338.853,497h-165v-15h165V497z M423.569,245.61
				c0,8.712-7.088,15.8-15.8,15.8c-6.821,0-12.37-5.549-12.37-12.37v-52.75c0-3.439,2.598-6.279,5.934-6.67l3.222,26.763
				c0.254,10.584,8.567,19.187,19.014,19.927V245.61z"/>
			<path d="M261.853,216.181v-0.011c0,0.007-0.001,0.018-0.001,0.024C261.853,216.189,261.853,216.185,261.853,216.181z"/>
		</g>
	</g>
</g>
<g>
</g>
<g>
</g>
<g>
</g>
<g>
</g>
<g>
</g>
<g>
</g>
<g>
</g>
<g>
</g>
<g>
</g>
<g>
</g>
<g>
</g>
<g>
</g>
<g>
</g>
<g>
</g>
<g>
</g>
</svg>
