<?xml version="1.0" encoding="iso-8859-1"?>
<!-- Generator: Adobe Illustrator 19.0.0, SVG Export Plug-In . SVG Version: 6.00 Build 0)  -->
<svg version="1.1" id="Capa_1" xmlns="http://www.w3.org/2000/svg" xmlns:xlink="http://www.w3.org/1999/xlink" x="0px" y="0px"
	 viewBox="0 0 512.002 512.002" style="enable-background:new 0 0 512.002 512.002;" xml:space="preserve">
<g>
	<g>
		<path d="M280.77,185.692c-2.173-3.524-6.794-4.62-10.32-2.449c-17.397,10.723-35.918,19.82-55.048,27.041
			c-68.694,25.932-155.821,62.085-180.789,87.053c-48.179,48.182-45.806,123.22,5.519,174.548
			c24.291,24.291,55.159,38.492,86.918,39.986c1.839,0.087,3.669,0.13,5.496,0.13c30.711,0,59.695-12.169,82.127-34.605
			c13.146-13.143,29.854-43.112,51.08-91.62c1.663-3.796-0.067-8.218-3.862-9.879c-3.793-1.658-8.217,0.07-9.878,3.864
			c-25.133,57.438-39.944,79.028-47.945,87.026c-20.745,20.75-47.841,31.441-76.312,30.1c-28.021-1.318-55.372-13.965-77.016-35.61
			c-21.645-21.645-34.291-48.997-35.611-77.019c-1.34-28.467,9.346-55.569,30.092-76.314
			c18.005-18.007,80.325-47.706,175.478-83.627c20.024-7.557,39.411-17.08,57.622-28.305
			C281.846,193.839,282.943,189.218,280.77,185.692z"/>
	</g>
</g>
<g>
	<g>
		<path d="M155.222,435.704l-78.908-78.912c-1.407-1.406-3.314-2.196-5.304-2.196s-3.896,0.79-5.304,2.196L42.91,379.589
			c-1.406,1.407-2.196,3.314-2.196,5.304s0.79,3.897,2.197,5.304l12.285,12.284c2.928,2.928,7.676,2.929,10.606-0.001
			c2.929-2.929,2.929-7.678-0.001-10.606l-6.981-6.98l12.19-12.19l68.302,68.306l-12.19,12.19l-38.634-38.638
			c-2.929-2.928-7.676-2.928-10.607,0c-2.929,2.93-2.929,7.678,0,10.607l43.937,43.939c1.407,1.406,3.314,2.196,5.304,2.196
			c1.989,0,3.896-0.79,5.304-2.196l22.796-22.797C158.151,443.381,158.151,438.633,155.222,435.704z"/>
	</g>
</g>
<g>
	<g>
		<path d="M275.922,271.158l-35.07-35.072c-2.929-2.927-7.676-2.929-10.607,0c-2.929,2.93-2.929,7.678,0,10.607l35.07,35.072
			c1.464,1.464,3.383,2.196,5.303,2.196c1.919,0,3.839-0.732,5.304-2.196C278.851,278.835,278.851,274.087,275.922,271.158z"/>
	</g>
</g>
<g>
	<g>
		<path d="M247.613,299.469l-35.071-35.072c-2.93-2.928-7.677-2.928-10.607,0c-2.929,2.93-2.929,7.678,0,10.607l35.071,35.072
			c1.464,1.463,3.384,2.196,5.303,2.196s3.839-0.732,5.304-2.196C250.542,307.146,250.542,302.398,247.613,299.469z"/>
	</g>
</g>
<g>
	<g>
		<path d="M219.304,327.779l-35.07-35.072c-2.93-2.927-7.677-2.929-10.607,0c-2.929,2.93-2.929,7.678,0,10.607l35.07,35.072
			c1.464,1.464,3.383,2.196,5.303,2.196c1.919,0,3.839-0.732,5.304-2.196C222.233,335.456,222.233,330.708,219.304,327.779z"/>
	</g>
</g>
<g>
	<g>
		<path d="M190.995,356.09l-35.071-35.072c-2.93-2.928-7.677-2.928-10.607,0c-2.929,2.93-2.929,7.678,0,10.607l35.071,35.072
			c1.464,1.463,3.384,2.196,5.303,2.196s3.839-0.732,5.304-2.196C193.924,363.767,193.924,359.019,190.995,356.09z"/>
	</g>
</g>
<g>
	<g>
		<path d="M512.002,43.251c0-23.848-19.402-43.25-43.249-43.25c-21.525,0-39.423,15.81-42.705,36.426l-4.498,4.11l-5.89-8.813
			c-0.275-0.412-0.591-0.796-0.941-1.146c-4.314-4.3-9.998-6.667-16.003-6.667c-5.789,0-11.202,2.226-15.238,6.262
			c-4.048,4.04-6.277,9.456-6.278,15.249c-0.001,6.016,2.374,11.7,6.687,16.007c0.353,0.352,0.739,0.668,1.155,0.943l7.306,4.844
			l-13.704,12.521l-4.713-6.603c-0.243-0.34-0.514-0.659-0.81-0.954c-4.314-4.301-9.998-6.669-16.004-6.669
			c-5.789,0-11.202,2.226-15.239,6.263c-4.049,4.041-6.278,9.458-6.277,15.252c0,6.016,2.375,11.698,6.687,16.004
			c0.318,0.316,0.664,0.604,1.033,0.86l5.057,3.497l-17.396,15.894c-4.365,3.981-7.028,9.03-7.125,13.507
			c-0.034,1.57,0.253,3.065,0.812,4.416c-8.988,8.654-18.528,16.832-28.431,24.356c-3.299,2.506-3.94,7.211-1.435,10.509
			c1.476,1.942,3.713,2.963,5.977,2.963c1.581,0,3.176-0.498,4.531-1.528c10.242-7.783,20.111-16.234,29.417-25.168l24.954,24.937
			c-31.625,32.903-55.845,71.229-72.002,114.042c-7.924,20.997-15.702,40.787-23.119,58.82c-1.575,3.831,0.253,8.214,4.083,9.79
			c0.934,0.384,1.9,0.565,2.85,0.565c2.95,0,5.747-1.752,6.939-4.648c7.472-18.169,15.305-38.098,23.279-59.231
			c15.491-41.047,38.741-77.775,69.114-109.283c1.274,0.524,2.674,0.803,4.142,0.803c0.093,0,0.186-0.001,0.279-0.004
			c4.484-0.104,9.543-2.783,13.536-7.17l15.8-17.387l3.531,5.102c0.259,0.373,0.551,0.723,0.872,1.043
			c4.314,4.3,9.998,6.668,16.004,6.668c5.79,0,11.203-2.226,15.243-6.267c8.496-8.497,8.314-22.517-0.406-31.252
			c-0.296-0.296-0.615-0.567-0.957-0.811l-6.739-4.799l12.532-13.791l4.966,7.485c0.278,0.42,0.599,0.81,0.955,1.165
			c4.314,4.301,9.995,6.669,15.995,6.669c5.794,0,11.21-2.226,15.253-6.267c8.496-8.497,8.314-22.517-0.405-31.253
			c-0.35-0.35-0.733-0.665-1.145-0.939l-9.083-6.063l3.836-4.221C495.918,82.984,512.002,64.963,512.002,43.251z M392.2,45.424
			c0-1.782,0.666-3.428,1.88-4.639c1.208-1.209,2.854-1.874,4.637-1.874c1.807,0,3.545,0.658,4.955,1.866l6.678,9.993l-6.586,6.017
			l-9.708-6.435C392.854,48.952,392.2,47.224,392.2,45.424z M352.482,82.384c1.208-1.209,2.854-1.874,4.637-1.874
			c1.839,0,3.605,0.682,5.029,1.931l5.343,7.486l-7.749,7.079l-7.244-5.008c-1.227-1.407-1.896-3.152-1.896-4.973
			C350.602,85.243,351.267,83.596,352.482,82.384z M429.63,159.508c-1.207,1.208-2.852,1.873-4.635,1.873
			c-1.824,0-3.577-0.671-4.994-1.899l-5.058-7.309l7.034-7.74l7.6,5.413C432.109,152.736,432.169,156.97,429.63,159.508z
			 M377.691,170.862c-0.605,0.665-1.187,1.157-1.685,1.513l-35.832-35.806c-0.027-0.028-0.05-0.058-0.077-0.085
			c-0.029-0.029-0.061-0.053-0.09-0.082l-0.393-0.393c0.351-0.488,0.834-1.059,1.483-1.65l41.314-37.746
			c0.005-0.004,0.009-0.009,0.014-0.013l44.884-41.007c4.125,13.828,14.988,24.776,28.769,29.009L377.691,170.862z M471.24,108.317
			c2.47,2.889,2.508,7.073-0.009,9.589c-1.209,1.209-2.859,1.875-4.647,1.875c-1.798,0-3.528-0.656-4.936-1.859l-6.574-9.91
			l5.93-6.526L471.24,108.317z M468.753,71.501c-15.577,0-28.249-12.673-28.249-28.25s12.673-28.25,28.249-28.25
			c15.577,0,28.249,12.673,28.249,28.25S484.33,71.501,468.753,71.501z"/>
	</g>
</g>
<g>
</g>
<g>
</g>
<g>
</g>
<g>
</g>
<g>
</g>
<g>
</g>
<g>
</g>
<g>
</g>
<g>
</g>
<g>
</g>
<g>
</g>
<g>
</g>
<g>
</g>
<g>
</g>
<g>
</g>
</svg>
