<?xml version="1.0" encoding="iso-8859-1"?>
<!-- Generator: Adobe Illustrator 19.0.0, SVG Export Plug-In . SVG Version: 6.00 Build 0)  -->
<svg version="1.1" id="Capa_1" xmlns="http://www.w3.org/2000/svg" xmlns:xlink="http://www.w3.org/1999/xlink" x="0px" y="0px"
	 viewBox="0 0 512 512" style="enable-background:new 0 0 512 512;" xml:space="preserve">
<g>
	<g>
		<path d="M504.5,33.5h-24.25c-4.143,0-7.5,3.357-7.5,7.5s3.357,7.5,7.5,7.5H497v415H15V127.684c0-4.143-3.357-7.5-7.5-7.5
			s-7.5,3.357-7.5,7.5V471c0,4.143,3.357,7.5,7.5,7.5h497c4.143,0,7.5-3.357,7.5-7.5V41C512,36.857,508.643,33.5,504.5,33.5z"/>
	</g>
</g>
<g>
	<g>
		<path d="M448.25,33.5H7.5C3.357,33.5,0,36.857,0,41v54.5c0,4.143,3.357,7.5,7.5,7.5s7.5-3.357,7.5-7.5v-47h433.25
			c4.143,0,7.5-3.357,7.5-7.5S452.393,33.5,448.25,33.5z"/>
	</g>
</g>
<g>
	<g>
		<path d="M474.5,391.667c4.143,0,7.5-3.357,7.5-7.5V71c0-4.143-3.357-7.5-7.5-7.5h-437c-4.143,0-7.5,3.357-7.5,7.5v370
			c0,4.143,3.357,7.5,7.5,7.5h437c4.143,0,7.5-3.357,7.5-7.5v-24.833c0-4.143-3.357-7.5-7.5-7.5s-7.5,3.357-7.5,7.5V433.5H45v-355
			h422v305.667C467,388.31,470.357,391.667,474.5,391.667z"/>
	</g>
</g>
<g>
	<g>
		<path d="M122.788,94.703c0,0,0,0,0-0.001c-4.803-3.611-10.722-5.138-16.676-4.296c-5.95,0.841-11.217,3.949-14.83,8.752
			c-3.612,4.803-5.139,10.725-4.297,16.676c0.841,5.95,3.949,11.217,8.752,14.829c3.94,2.965,8.634,4.524,13.479,4.524
			c1.061,0,2.129-0.075,3.197-0.227c5.95-0.841,11.217-3.949,14.829-8.752C134.7,116.295,132.702,102.161,122.788,94.703z
			 M115.255,117.191c-1.204,1.602-2.959,2.638-4.942,2.918c-1.982,0.278-3.956-0.229-5.558-1.434
			c-1.601-1.203-2.637-2.959-2.917-4.942c-0.281-1.983,0.228-3.957,1.433-5.558c1.203-1.601,2.959-2.637,4.942-2.917
			c0.355-0.051,0.712-0.075,1.065-0.075c1.614,0,3.18,0.52,4.492,1.508C117.075,109.177,117.741,113.888,115.255,117.191z"/>
	</g>
</g>
<g>
	<g>
		<path d="M227.953,109.533c-0.841-5.95-3.949-11.217-8.752-14.83c-9.913-7.457-24.045-5.461-31.506,4.454
			c-3.612,4.803-5.139,10.725-4.297,16.676c0.841,5.951,3.95,11.218,8.752,14.83c3.94,2.965,8.634,4.524,13.479,4.524
			c1.061,0,2.129-0.075,3.197-0.227c5.95-0.841,11.217-3.949,14.829-8.751C227.268,121.406,228.795,115.484,227.953,109.533z
			 M211.668,117.192c-1.204,1.602-2.959,2.638-4.942,2.918c-1.982,0.278-3.956-0.229-5.558-1.434
			c-1.601-1.203-2.637-2.959-2.917-4.942c-0.281-1.984,0.228-3.958,1.432-5.558c1.473-1.957,3.725-2.988,6.003-2.988
			c1.568,0,3.15,0.489,4.498,1.503c1.601,1.205,2.638,2.961,2.918,4.944C213.382,113.617,212.873,115.591,211.668,117.192z"/>
	</g>
</g>
<g>
	<g>
		<path d="M316.06,94.703c-4.803-3.612-10.724-5.143-16.675-4.298c-5.951,0.841-11.218,3.949-14.831,8.752
			c-3.612,4.803-5.139,10.725-4.297,16.676c0.841,5.951,3.949,11.218,8.752,14.83c3.94,2.965,8.634,4.524,13.479,4.524
			c1.061,0,2.129-0.075,3.197-0.227c5.95-0.841,11.217-3.949,14.829-8.752C327.972,116.295,325.974,102.161,316.06,94.703z
			 M308.525,117.192c-1.204,1.602-2.959,2.638-4.942,2.918c-1.982,0.278-3.956-0.229-5.558-1.434
			c-1.601-1.203-2.637-2.959-2.917-4.942c-0.28-1.984,0.229-3.958,1.434-5.558c1.203-1.601,2.959-2.637,4.942-2.917
			c0.356-0.051,0.712-0.075,1.065-0.075c1.615,0,3.18,0.52,4.492,1.507C310.346,109.177,311.012,113.888,308.525,117.192z"/>
	</g>
</g>
<g>
	<g>
		<path d="M412.891,94.703c-4.802-3.612-10.721-5.143-16.675-4.298c-5.951,0.841-11.218,3.949-14.831,8.752
			c-3.612,4.803-5.139,10.725-4.297,16.676c0.841,5.951,3.949,11.218,8.752,14.83c3.94,2.965,8.634,4.524,13.479,4.524
			c1.061,0,2.129-0.075,3.197-0.227c5.95-0.841,11.217-3.949,14.829-8.752C424.803,116.295,422.805,102.161,412.891,94.703z
			 M405.356,117.192c-1.204,1.602-2.959,2.638-4.942,2.918c-1.982,0.278-3.957-0.229-5.558-1.434
			c-1.601-1.203-2.637-2.959-2.917-4.942c-0.28-1.984,0.229-3.958,1.434-5.558c1.203-1.601,2.959-2.637,4.942-2.917
			c0.356-0.051,0.712-0.075,1.065-0.075c1.615,0,3.18,0.52,4.492,1.507C407.177,109.177,407.843,113.888,405.356,117.192z"/>
	</g>
</g>
<g>
	<g>
		<path d="M139.763,150.849h-60c-4.143,0-7.5,3.357-7.5,7.5v60c0,4.143,3.357,7.5,7.5,7.5h60c4.143,0,7.5-3.357,7.5-7.5v-60
			C147.263,154.206,143.906,150.849,139.763,150.849z M132.263,210.849h-45v-45h45V210.849z"/>
	</g>
</g>
<g>
	<g>
		<path d="M235.964,150.849h-60c-4.143,0-7.5,3.357-7.5,7.5v60c0,4.143,3.357,7.5,7.5,7.5h60c4.143,0,7.5-3.357,7.5-7.5v-60
			C243.464,154.206,240.107,150.849,235.964,150.849z M228.464,210.849h-45v-45h45V210.849z"/>
	</g>
</g>
<g>
	<g>
		<path d="M332.664,150.849h-60c-4.143,0-7.5,3.357-7.5,7.5v60c0,4.143,3.357,7.5,7.5,7.5h60c4.143,0,7.5-3.357,7.5-7.5v-60
			C340.164,154.206,336.807,150.849,332.664,150.849z M325.164,210.849h-45v-45h45V210.849z"/>
	</g>
</g>
<g>
	<g>
		<path d="M429.365,150.849h-60c-4.143,0-7.5,3.357-7.5,7.5v60c0,4.143,3.357,7.5,7.5,7.5h60c4.143,0,7.5-3.357,7.5-7.5v-60
			C436.865,154.206,433.508,150.849,429.365,150.849z M421.865,210.849h-45v-45h45V210.849z"/>
	</g>
</g>
<g>
	<g>
		<path d="M139.763,246.546h-60c-4.143,0-7.5,3.357-7.5,7.5v60c0,4.143,3.357,7.5,7.5,7.5h60c4.143,0,7.5-3.357,7.5-7.5v-60
			C147.263,249.903,143.906,246.546,139.763,246.546z M132.263,306.546h-45v-45h45V306.546z"/>
	</g>
</g>
<g>
	<g>
		<path d="M235.964,246.546h-60c-4.143,0-7.5,3.357-7.5,7.5v60c0,4.143,3.357,7.5,7.5,7.5h60c4.143,0,7.5-3.357,7.5-7.5v-60
			C243.464,249.903,240.107,246.546,235.964,246.546z M228.464,306.546h-45v-45h45V306.546z"/>
	</g>
</g>
<g>
	<g>
		<path d="M332.664,246.546h-60c-4.143,0-7.5,3.357-7.5,7.5v60c0,4.143,3.357,7.5,7.5,7.5h60c4.143,0,7.5-3.357,7.5-7.5v-60
			C340.164,249.903,336.807,246.546,332.664,246.546z M325.164,306.546h-45v-45h45V306.546z"/>
	</g>
</g>
<g>
	<g>
		<path d="M429.365,246.546h-60c-4.143,0-7.5,3.357-7.5,7.5v60c0,4.143,3.357,7.5,7.5,7.5h60c4.143,0,7.5-3.357,7.5-7.5v-60
			C436.865,249.903,433.508,246.546,429.365,246.546z M421.865,306.546h-45v-45h45V306.546z"/>
	</g>
</g>
<g>
	<g>
		<path d="M139.763,342.243h-60c-4.143,0-7.5,3.357-7.5,7.5v60c0,4.143,3.357,7.5,7.5,7.5h60c4.143,0,7.5-3.357,7.5-7.5v-60
			C147.263,345.601,143.905,342.243,139.763,342.243z M132.263,402.243h-45v-45h45V402.243z"/>
	</g>
</g>
<g>
	<g>
		<path d="M235.964,342.243h-60c-4.143,0-7.5,3.357-7.5,7.5v60c0,4.143,3.357,7.5,7.5,7.5h60c4.143,0,7.5-3.357,7.5-7.5v-60
			C243.464,345.601,240.106,342.243,235.964,342.243z M228.464,402.243h-45v-45h45V402.243z"/>
	</g>
</g>
<g>
	<g>
		<path d="M332.664,342.243h-60c-4.143,0-7.5,3.357-7.5,7.5v60c0,4.143,3.357,7.5,7.5,7.5h60c4.143,0,7.5-3.357,7.5-7.5v-60
			C340.164,345.601,336.807,342.243,332.664,342.243z M325.164,402.243h-45v-45h45V402.243z"/>
	</g>
</g>
<g>
	<g>
		<path d="M429.365,342.243h-60c-4.143,0-7.5,3.357-7.5,7.5v60c0,4.143,3.357,7.5,7.5,7.5h60c4.143,0,7.5-3.357,7.5-7.5v-60
			C436.865,345.601,433.508,342.243,429.365,342.243z M421.865,402.243h-45v-45h45V402.243z"/>
	</g>
</g>
<g>
</g>
<g>
</g>
<g>
</g>
<g>
</g>
<g>
</g>
<g>
</g>
<g>
</g>
<g>
</g>
<g>
</g>
<g>
</g>
<g>
</g>
<g>
</g>
<g>
</g>
<g>
</g>
<g>
</g>
</svg>
