<?xml version="1.0" encoding="iso-8859-1"?>
<!-- Generator: Adobe Illustrator 19.0.0, SVG Export Plug-In . SVG Version: 6.00 Build 0)  -->
<svg version="1.1" id="Capa_1" xmlns="http://www.w3.org/2000/svg" xmlns:xlink="http://www.w3.org/1999/xlink" x="0px" y="0px"
	 viewBox="0 0 512 512" style="enable-background:new 0 0 512 512;" xml:space="preserve">
<g>
	<g>
		<path d="M504.5,107.5h-31V85c0-4.143-3.357-7.5-7.5-7.5h-60c-4.143,0-7.5,3.357-7.5,7.5v0.5h-45V85c0-4.143-3.357-7.5-7.5-7.5h-60
			c-4.143,0-7.5,3.357-7.5,7.5v0.5h-45V85c0-4.143-3.358-7.5-7.5-7.5h-60c-4.142,0-7.5,3.357-7.5,7.5v0.5h-45V85
			c0-4.143-3.358-7.5-7.5-7.5H46c-4.142,0-7.5,3.357-7.5,7.5v22.5h-31c-4.142,0-7.5,3.357-7.5,7.5v30c0,4.143,3.358,7.5,7.5,7.5h3
			v7.167c0,4.143,3.358,7.5,7.5,7.5s7.5-3.357,7.5-7.5V152.5h15v267h-15V192c0-4.143-3.358-7.5-7.5-7.5s-7.5,3.357-7.5,7.5v235
			c0,4.143,3.358,7.5,7.5,7.5h30c4.142,0,7.5-3.357,7.5-7.5V152.5h28v93.758c0,4.143,3.358,7.5,7.5,7.5h22.5v0.495
			c0,4.143,3.358,7.5,7.5,7.5h22.5v1.127c0,4.143,3.358,7.5,7.5,7.5h22.5v1.808c0,4.143,3.358,7.5,7.5,7.5h22.5v2.543
			c0,4.143,3.358,7.5,7.5,7.5h22.5v3.335c0,4.143,3.358,7.5,7.5,7.5h22.5v4.191c0,4.143,3.357,7.5,7.5,7.5h22.5v5.114
			c0,4.143,3.357,7.5,7.5,7.5h22.5v6.11c0,4.143,3.357,7.5,7.5,7.5h22.5v7.186c0,4.143,3.357,7.5,7.5,7.5h22.5v8.344
			c0,4.143,3.357,7.5,7.5,7.5h30c4.143,0,7.5-3.357,7.5-7.5V152.5h28V384c0,4.143,3.357,7.5,7.5,7.5s7.5-3.357,7.5-7.5V152.5h15v267
			h-15V416c0-4.143-3.357-7.5-7.5-7.5s-7.5,3.357-7.5,7.5v11c0,4.143,3.357,7.5,7.5,7.5h30c4.143,0,7.5-3.357,7.5-7.5V152.5h3
			c4.143,0,7.5-3.357,7.5-7.5v-30C512,110.857,508.643,107.5,504.5,107.5z M413.5,93v-0.5h45v15h-45V93z M353.5,100.5h45v7h-45
			V100.5z M293.5,93v-0.5h45V93v14.5h-45V93z M233.5,100.5h45v7h-45V100.5z M173.5,93v-0.5h45V93v14.5h-45V93z M113.5,100.5h45v7
			h-45V100.5z M53.5,92.5h45V93v14.5h-45V92.5z M113.5,238.758h-15V152.5h15V238.758z M143.5,246.753h-15v-0.495V152.5h15V246.753z
			 M173.5,255.38h-15v-1.127V152.5h15V255.38z M203.5,264.688h-15v-1.808V152.5h15V264.688z M263.5,285.565h-15v-60.687
			c0-4.143-3.358-7.5-7.5-7.5c-4.142,0-7.5,3.357-7.5,7.5v49.852h-15v-2.543V152.5h15v39.167c0,4.143,3.358,7.5,7.5,7.5
			c4.142,0,7.5-3.357,7.5-7.5V152.5h15V285.565z M293.5,297.257h-15v0v-4.191V152.5h15V297.257z M323.5,309.871h-15v-5.114V152.5h15
			V309.871z M353.5,323.481h-15v0v-6.11V152.5h15V323.481z M383.5,338.167h-15v-7.186V152.5h15V338.167z M413.5,354.011h-15v-8.344
			V152.5h15V354.011z M497,137.5H15v-15h482V137.5z"/>
	</g>
</g>
<g>
</g>
<g>
</g>
<g>
</g>
<g>
</g>
<g>
</g>
<g>
</g>
<g>
</g>
<g>
</g>
<g>
</g>
<g>
</g>
<g>
</g>
<g>
</g>
<g>
</g>
<g>
</g>
<g>
</g>
</svg>
