<?xml version="1.0" encoding="iso-8859-1"?>
<!-- Generator: Adobe Illustrator 19.0.0, SVG Export Plug-In . SVG Version: 6.00 Build 0)  -->
<svg version="1.1" id="Capa_1" xmlns="http://www.w3.org/2000/svg" xmlns:xlink="http://www.w3.org/1999/xlink" x="0px" y="0px"
	 viewBox="0 0 511.999 511.999" style="enable-background:new 0 0 511.999 511.999;" xml:space="preserve">
<g>
	<g>
		<path d="M206.433,485.476c-2.276-3.46-6.925-4.42-10.387-2.146c-20.179,13.266-42.64,16.935-66.759,10.91
			c-22.736-5.68-46.004-19.94-67.29-41.237c-24.331-24.344-39.213-50.779-43.036-76.449c-4.121-27.664,4.734-52.641,26.321-74.238
			c22.319-22.332,52.003-34.613,83.636-34.613c0.157,0,0.32,0.001,0.474,0.001c4.129,0,7.484-3.34,7.5-7.473
			c0.015-4.142-3.331-7.512-7.473-7.528c-0.168-0.001-0.334-0.001-0.503-0.001c-35.638,0-69.091,13.843-94.244,39.01
			c-24.775,24.786-35.338,54.89-30.547,87.051c4.301,28.873,20.645,58.211,47.264,84.843c23.209,23.221,48.889,38.847,74.263,45.186
			c8.579,2.143,17.083,3.207,25.432,3.207c18.859,0,36.921-5.433,53.202-16.135C207.747,493.588,208.709,488.938,206.433,485.476z"
			/>
	</g>
</g>
<g>
	<g>
		<path d="M506.804,55.432L459.357,7.96c-1.407-1.407-3.315-2.198-5.305-2.198s-3.898,0.791-5.305,2.198l-4.509,4.511l-5.704-5.707
			C434.175,2.402,428.378,0,422.21,0c-6.167,0-11.964,2.402-16.323,6.764c-8.993,8.997-8.994,23.637,0,32.635l5.72,5.723
			l-3.352,3.354l-5.704-5.708c-4.36-4.363-10.157-6.764-16.324-6.764s-11.964,2.401-16.324,6.764
			c-8.993,8.998-8.993,23.637,0,32.635l5.72,5.723l-36.253,36.272l-9.096-9.103c-2.928-2.931-7.676-2.931-10.607-0.004
			c-2.93,2.929-2.932,7.677-0.004,10.608l9.102,9.109l-18.374,18.384l-9.098-9.105c-2.928-2.931-7.676-2.931-10.607-0.004
			c-2.93,2.929-2.932,7.677-0.004,10.608l9.104,9.111l-18.36,18.37l-9.106-9.106c-2.929-2.928-7.678-2.928-10.607,0
			c-2.929,2.93-2.929,7.678,0,10.608l9.108,9.108l-18.372,18.382l-9.098-9.104c-2.928-2.931-7.677-2.932-10.607-0.003
			c-2.93,2.928-2.932,7.676-0.004,10.607l9.104,9.11l-29.301,29.317c-12.66,12.666-31.496,17.615-49.16,12.912
			c-4.004-1.064-8.112,1.316-9.177,5.32c-1.065,4.002,1.316,8.112,5.318,9.177c5.681,1.512,11.455,2.248,17.182,2.248
			c17.278,0,34.106-6.706,46.445-19.053l14.804-14.812l36.846,36.858l-14.813,14.821c-16.428,16.436-22.863,40.827-16.794,63.653
			c10.092,37.956,0.893,78.278-24.608,107.858c-2.705,3.138-2.354,7.873,0.784,10.579c1.417,1.222,3.159,1.819,4.894,1.819
			c2.106,0,4.201-0.883,5.684-2.603c28.738-33.337,39.109-78.761,27.743-121.509c-4.7-17.675,0.246-36.524,12.907-49.193
			l192.581-192.682c2.928-2.93,2.927-7.678-0.002-10.607c-2.931-2.929-7.68-2.928-10.607,0.003l-27.037,27.051L388.691,89.27
			l65.363-65.397l36.842,36.861l-15.414,15.423c-2.928,2.93-2.927,7.678,0.003,10.607c2.929,2.928,7.678,2.927,10.607-0.003
			l20.714-20.725C509.731,63.107,509.731,58.361,506.804,55.432z M285.408,266.331l-36.846-36.859l18.368-18.377l36.846,36.858
			L285.408,266.331z M314.38,237.342l-36.846-36.858l18.368-18.378l36.846,36.858L314.38,237.342z M343.352,208.354l-36.846-36.858
			l18.368-18.378l36.846,36.858L343.352,208.354z M372.325,179.366l-36.846-36.858l18.882-18.892l36.846,36.858L372.325,179.366z
			 M414.928,136.741l-13.117,13.124l-36.846-36.858l13.12-13.128L414.928,136.741z M386.226,70.515l-5.715-5.717
			c-3.148-3.151-3.148-8.276,0-11.426c1.526-1.526,3.556-2.367,5.715-2.367s4.189,0.841,5.715,2.367l5.709,5.713L386.226,70.515z
			 M422.21,34.511l-5.715-5.717c-3.148-3.15-3.148-8.275,0.001-11.425c1.526-1.527,3.555-2.368,5.714-2.368s4.189,0.841,5.715,2.368
			l5.709,5.712L422.21,34.511z"/>
	</g>
</g>
<g>
	<g>
		<path d="M192.481,390.265l-67.78-67.816c-1.407-1.406-3.315-2.198-5.305-2.198c-1.99,0-3.898,0.791-5.305,2.198l-22.029,22.04
			c-2.927,2.929-2.927,7.675,0,10.604l67.78,67.816c1.407,1.407,3.315,2.198,5.305,2.198s3.898-0.791,5.305-2.198l22.029-22.04
			C195.408,397.94,195.408,393.194,192.481,390.265z M165.147,406.998l-57.176-57.206l11.424-11.43l57.176,57.206L165.147,406.998z"
			/>
	</g>
</g>
<g>
	<g>
		<circle cx="458.269" cy="56.821" r="7.5"/>
	</g>
</g>
<g>
	<g>
		<circle cx="422.309" cy="92.8" r="7.5"/>
	</g>
</g>
<g>
</g>
<g>
</g>
<g>
</g>
<g>
</g>
<g>
</g>
<g>
</g>
<g>
</g>
<g>
</g>
<g>
</g>
<g>
</g>
<g>
</g>
<g>
</g>
<g>
</g>
<g>
</g>
<g>
</g>
</svg>
