<?xml version="1.0" encoding="iso-8859-1"?>
<!-- Generator: Adobe Illustrator 19.0.0, SVG Export Plug-In . SVG Version: 6.00 Build 0)  -->
<svg version="1.1" id="Capa_1" xmlns="http://www.w3.org/2000/svg" xmlns:xlink="http://www.w3.org/1999/xlink" x="0px" y="0px"
	 viewBox="0 0 512 512" style="enable-background:new 0 0 512 512;" xml:space="preserve">
<g>
	<g>
		<path d="M484.5,225.5h-4.667c-4.143,0-7.5,3.357-7.5,7.5s3.357,7.5,7.5,7.5h4.667c6.893,0,12.5,5.607,12.5,12.5v127
			c0,6.893-5.607,12.5-12.5,12.5H482V272c0-4.143-3.357-7.5-7.5-7.5H168.6c-4.143,0-7.5,3.357-7.5,7.5v79.667
			c0,4.143,3.357,7.5,7.5,7.5s7.5-3.357,7.5-7.5V279.5h15.161V342c0,4.143,3.357,7.5,7.5,7.5h6.039v43h-28.7V384
			c0-4.143-3.357-7.5-7.5-7.5s-7.5,3.357-7.5,7.5v8.5h-22.6c-9.098,0-16.5-7.402-16.5-16.5V257c0-9.098,7.402-16.5,16.5-16.5H448
			c4.143,0,7.5-3.357,7.5-7.5s-3.357-7.5-7.5-7.5H138.5c-17.369,0-31.5,14.131-31.5,31.5v2H84.5c-4.143,0-7.5,3.357-7.5,7.5v30
			H44.25c-1.792,0-3.25-1.458-3.25-3.25v-134.5c0-1.792,1.458-3.25,3.25-3.25H63.5c4.143,0,7.5-3.357,7.5-7.5s-3.357-7.5-7.5-7.5
			H44.25c-10.063,0-18.25,8.187-18.25,18.25v134.5c0,10.063,8.187,18.25,18.25,18.25H77v11H43.14C27.623,322.5,15,309.877,15,294.36
			V157.64c0-15.517,12.623-28.14,28.14-28.14h164.068v11H95.75c-4.143,0-7.5,3.357-7.5,7.5s3.357,7.5,7.5,7.5h111.458v0.5
			c0,4.143,3.357,7.5,7.5,7.5h30c4.143,0,7.5-3.357,7.5-7.5v-0.082l59.639-4.821c3.895-0.314,6.896-3.567,6.896-7.476v-19.244
			c0-3.908-3.001-7.161-6.896-7.476l-59.639-4.821V112c0-4.143-3.357-7.5-7.5-7.5h-30c-4.143,0-7.5,3.357-7.5,7.5v2.5H43.14
			C19.353,114.5,0,133.853,0,157.64v136.72c0,23.787,19.353,43.14,43.14,43.14H77v29c0,4.143,3.357,7.5,7.5,7.5H107v2
			c0,17.369,14.131,31.5,31.5,31.5h346c15.163,0,27.5-12.337,27.5-27.5V253C512,237.837,499.663,225.5,484.5,225.5z
			 M252.208,127.131l51.534,4.165v5.408l-51.534,4.165V127.131z M222.208,148.039c0-0.013,0.002-0.025,0.002-0.039
			c0-0.014-0.002-0.026-0.002-0.039v-25.923c0-0.013,0.002-0.025,0.002-0.039c0-0.014-0.002-0.026-0.002-0.039v-2.46h15v29h-15
			V148.039z M107,359H92v-85h15V359z M217.261,334.5h-11v-55h6.039h4.961V334.5z M248.5,392.5h-28.7v-43h4.961
			c4.143,0,7.5-3.357,7.5-7.5v-62.5h3.239V342c0,4.143,3.357,7.5,7.5,7.5h5.5V392.5z M261.5,334.5h-11v-55h5.5h5.5V334.5z
			 M292.2,392.5h-28.7v-43h5.5c4.143,0,7.5-3.357,7.5-7.5v-62.5h2.951V342c0,4.143,3.357,7.5,7.5,7.5h5.249V392.5z M305.451,334.5
			h-11v-55h5.249h5.751V334.5z M335.9,392.5h-28.7v-43h5.751c4.143,0,7.5-3.357,7.5-7.5v-62.5H335.9V392.5z M379.6,392.5h-28.7v-113
			h15.7V342c0,4.143,3.357,7.5,7.5,7.5h5.5V392.5z M392.6,334.5h-11v-55h5.5h5.5V334.5z M423.3,392.5h-28.7v-43h5.5
			c4.143,0,7.5-3.357,7.5-7.5v-62.5h2.7V342c0,4.143,3.357,7.5,7.5,7.5h5.5V392.5z M436.3,334.5h-11v-55h5.5h5.5V334.5z M467,392.5
			h-28.7v-43h5.5c4.143,0,7.5-3.357,7.5-7.5v-62.5H467V392.5z"/>
	</g>
</g>
<g>
</g>
<g>
</g>
<g>
</g>
<g>
</g>
<g>
</g>
<g>
</g>
<g>
</g>
<g>
</g>
<g>
</g>
<g>
</g>
<g>
</g>
<g>
</g>
<g>
</g>
<g>
</g>
<g>
</g>
</svg>
