<?xml version="1.0" encoding="iso-8859-1"?>
<!-- Generator: Adobe Illustrator 19.0.0, SVG Export Plug-In . SVG Version: 6.00 Build 0)  -->
<svg version="1.1" id="Capa_1" xmlns="http://www.w3.org/2000/svg" xmlns:xlink="http://www.w3.org/1999/xlink" x="0px" y="0px"
	 viewBox="0 0 512 512" style="enable-background:new 0 0 512 512;" xml:space="preserve">
<g>
	<g>
		<path d="M504.5,364.5c-4.142,0-7.5,3.357-7.5,7.5v9.5h-15V261c0-4.143-3.358-7.5-7.5-7.5h-30.7h-13h-13h-17.7h-13h-13h-30.7
			h-30.161H299.7h-12.461H269h-13h-13h-17.952H212.3h-13.251H168.6h-30.7h-13h-13H94.2h-13h-13H37.5c-4.142,0-7.5,3.357-7.5,7.5
			v120.5H15V288c0-4.143-3.358-7.5-7.5-7.5S0,283.857,0,288v101c0,4.143,3.358,7.5,7.5,7.5h30h43.7h43.7h43.7h43.7H256h43.7h43.7
			h43.7h43.7h43.7h30c4.142,0,7.5-3.357,7.5-7.5v-17C512,367.857,508.642,364.5,504.5,364.5z M73.7,381.5H45v-113h15.7V331
			c0,4.143,3.358,7.5,7.5,7.5h5.5V381.5z M86.7,323.5h-11v-55h5.5h5.5V323.5z M117.4,381.5H88.7v-43h5.5c4.142,0,7.5-3.357,7.5-7.5
			v-62.5h2.7V331c0,4.143,3.358,7.5,7.5,7.5h5.5V381.5z M130.4,323.5h-11v-55h5.5h5.5V323.5z M161.1,381.5h-28.7v-43h5.5
			c4.142,0,7.5-3.357,7.5-7.5v-62.5h15.7V381.5z M204.799,381.5h-28.7v-113h0.001h15.448V331c0,4.143,3.358,7.5,7.5,7.5h5.751V381.5
			z M217.548,323.5h-11v-55h5.751h5.249V323.5z M248.501,381.5h-28.7v-43h5.248c4.142,0,7.5-3.357,7.5-7.5v-62.5h2.952V331
			c0,4.143,3.358,7.5,7.5,7.5h5.5V381.5z M261.5,323.5h-11v-55h5.5h5.5V323.5z M292.2,381.5h-28.7v-43h5.5
			c4.142,0,7.5-3.357,7.5-7.5v-62.5h3.239V331c0,4.143,3.358,7.5,7.5,7.5h4.961V381.5z M305.739,323.5h-11v-55h4.961h6.039V323.5z
			 M335.9,381.5h-28.7v-43h6.039c4.142,0,7.5-3.357,7.5-7.5v-62.5H335.9V381.5z M379.6,381.5h-28.7v-113h15.7V331
			c0,4.143,3.358,7.5,7.5,7.5h5.5V381.5z M392.6,323.5h-11v-55h5.5h5.5V323.5z M423.3,381.5h-28.7v-43h5.5
			c4.142,0,7.5-3.357,7.5-7.5v-62.5h2.7V331c0,4.143,3.358,7.5,7.5,7.5h5.5V381.5z M436.3,323.5h-11v-55h5.5h5.5V323.5z M467,381.5
			h-28.7v-43h5.5c4.142,0,7.5-3.357,7.5-7.5v-62.5H467V381.5z"/>
	</g>
</g>
<g>
	<g>
		<path d="M504.5,115.5H480c-4.142,0-7.5,3.357-7.5,7.5s3.358,7.5,7.5,7.5h17v84.389H15V130.5h433c4.142,0,7.5-3.357,7.5-7.5
			s-3.358-7.5-7.5-7.5H7.5c-4.142,0-7.5,3.357-7.5,7.5v99.389v0.378V256c0,4.143,3.358,7.5,7.5,7.5s7.5-3.357,7.5-7.5v-25.733h482
			v109.4c0,4.143,3.358,7.5,7.5,7.5c4.142,0,7.5-3.357,7.5-7.5v-116.9v-0.378V123C512,118.857,508.642,115.5,504.5,115.5z"/>
	</g>
</g>
<g>
	<g>
		<path d="M351,144.879H161c-4.142,0-7.5,3.357-7.5,7.5v40c0,4.143,3.358,7.5,7.5,7.5h190c4.142,0,7.5-3.357,7.5-7.5v-40
			C358.5,148.236,355.142,144.879,351,144.879z M343.5,184.879h-175v-25h175V184.879z"/>
	</g>
</g>
<g>
	<g>
		<path d="M132,144.879h-30c-4.142,0-7.5,3.357-7.5,7.5v40c0,4.143,3.358,7.5,7.5,7.5h30c4.142,0,7.5-3.357,7.5-7.5v-40
			C139.5,148.236,136.142,144.879,132,144.879z M124.5,184.879h-15v-25h15V184.879z"/>
	</g>
</g>
<g>
	<g>
		<path d="M410,144.879h-30c-4.142,0-7.5,3.357-7.5,7.5v40c0,4.143,3.358,7.5,7.5,7.5h30c4.142,0,7.5-3.357,7.5-7.5v-40
			C417.5,148.236,414.142,144.879,410,144.879z M402.5,184.879h-15v-25h15V184.879z"/>
	</g>
</g>
<g>
	<g>
		<path d="M75.642,151.522h-18c-4.142,0-7.5,3.357-7.5,7.5s3.358,7.5,7.5,7.5h18c4.142,0,7.5-3.357,7.5-7.5
			S79.784,151.522,75.642,151.522z"/>
	</g>
</g>
<g>
	<g>
		<path d="M75.642,177.522h-18c-4.142,0-7.5,3.357-7.5,7.5s3.358,7.5,7.5,7.5h18c4.142,0,7.5-3.357,7.5-7.5
			S79.784,177.522,75.642,177.522z"/>
	</g>
</g>
<g>
	<g>
		<path d="M454.358,151.522h-18c-4.142,0-7.5,3.357-7.5,7.5s3.358,7.5,7.5,7.5h18c4.142,0,7.5-3.357,7.5-7.5
			S458.5,151.522,454.358,151.522z"/>
	</g>
</g>
<g>
	<g>
		<path d="M454.358,177.522h-18c-4.142,0-7.5,3.357-7.5,7.5s3.358,7.5,7.5,7.5h18c4.142,0,7.5-3.357,7.5-7.5
			S458.5,177.522,454.358,177.522z"/>
	</g>
</g>
<g>
</g>
<g>
</g>
<g>
</g>
<g>
</g>
<g>
</g>
<g>
</g>
<g>
</g>
<g>
</g>
<g>
</g>
<g>
</g>
<g>
</g>
<g>
</g>
<g>
</g>
<g>
</g>
<g>
</g>
</svg>
