<?xml version="1.0" encoding="iso-8859-1"?>
<!-- Generator: Adobe Illustrator 19.0.0, SVG Export Plug-In . SVG Version: 6.00 Build 0)  -->
<svg version="1.1" id="Capa_1" xmlns="http://www.w3.org/2000/svg" xmlns:xlink="http://www.w3.org/1999/xlink" x="0px" y="0px"
	 viewBox="0 0 512 512" style="enable-background:new 0 0 512 512;" xml:space="preserve">
<g>
	<g>
		<path d="M504.5,282.495h-6V227c0-4.143-3.358-7.5-7.5-7.5h-32.5V100.981c0-4.143-3.358-7.5-7.5-7.5h-22.5V68.354
			c0-4.143-3.358-7.5-7.5-7.5h-22.5V27.278c0-4.143-3.358-7.5-7.5-7.5h-30c-4.142,0-7.5,3.357-7.5,7.5v31.101H331
			c-4.142,0-7.5,3.357-7.5,7.5v27.603h-15V65.879c0-4.143-3.358-7.5-7.5-7.5h-22.5V21c0-4.143-3.358-7.5-7.5-7.5h-30
			c-4.142,0-7.5,3.357-7.5,7.5v37.379H211c-4.142,0-7.5,3.357-7.5,7.5v27.603h-15V65.879c0-4.143-3.358-7.5-7.5-7.5h-22.5V27.278
			c0-4.143-3.358-7.5-7.5-7.5h-30c-4.142,0-7.5,3.357-7.5,7.5v33.575H91c-4.142,0-7.5,3.357-7.5,7.5v25.128H61
			c-4.142,0-7.5,3.357-7.5,7.5V219.5H21c-4.142,0-7.5,3.357-7.5,7.5v55.495h-6c-4.142,0-7.5,3.357-7.5,7.5v60
			c0,4.143,3.358,7.5,7.5,7.5h2v20.838c0,4.143,3.358,7.5,7.5,7.5s7.5-3.357,7.5-7.5V357.5h15v126h-15v-72.833
			c0-4.143-3.358-7.5-7.5-7.5s-7.5,3.357-7.5,7.5V491c0,4.143,3.358,7.5,7.5,7.5h30h86.035h245.93H465h30c4.142,0,7.5-3.357,7.5-7.5
			v-16c0-4.143-3.358-7.5-7.5-7.5c-4.142,0-7.5,3.357-7.5,7.5v8.5h-15v-126h15v85.625c0,4.143,3.358,7.5,7.5,7.5
			c4.142,0,7.5-3.357,7.5-7.5v-85.63h2c4.142,0,7.5-3.357,7.5-7.5v-60C512,285.853,508.642,282.495,504.5,282.495z M428.5,108.481
			h15V219.5h-15V108.481z M398.5,75.854h15v25.128V219.5h-15V75.854z M368.5,65.879V34.778h15v33.575V219.5h-15V65.879z
			 M338.5,100.981V73.379h15V219.5h-15V100.981z M308.5,108.481h15V219.5h-15V108.481z M278.5,73.379h15v27.603V219.5h-15V73.379z
			 M248.5,65.879V28.5h15v37.379V219.5h-15V65.879z M218.5,100.981V73.379h15V219.5h-15V100.981z M188.5,108.481h15V219.5h-15
			V108.481z M158.5,73.379h15v27.603V219.5h-15V73.379z M128.5,68.354V34.778h15v31.101V219.5h-15V68.354z M98.5,100.981V75.854h15
			V219.5h-15V100.981z M68.5,108.481h15V219.5h-15V108.481z M28.5,234.5H61h30h30h30h30h30h30h30h30h30h30h30h30h30h32.5v47.995h-9
			c-4.142,0-7.5,3.357-7.5,7.5v18.5h-29.279V290c0-4.143-3.358-7.5-7.5-7.5h-40.796v-18.51c0-4.143-3.358-7.5-7.5-7.5H352
			c-4.142,0-7.5,3.357-7.5,7.5s3.358,7.5,7.5,7.5h22.424v11H137.576v-11H320c4.142,0,7.5-3.357,7.5-7.5s-3.358-7.5-7.5-7.5H130.076
			c-4.142,0-7.5,3.357-7.5,7.5v18.51H81.779c-4.142,0-7.5,3.357-7.5,7.5v18.495H45v-18.5c0-4.143-3.358-7.5-7.5-7.5h-9V234.5z
			 M422.721,297.5v10.995H89.279V297.5H422.721z M371.465,483.5h-230.93v-59h230.93V483.5z M133.035,409.5H119.5v-15h273v15h-13.535
			H133.035z M457.5,483.5h-71.035v-59H400c4.142,0,7.5-3.357,7.5-7.5v-30c0-4.143-3.358-7.5-7.5-7.5H112c-4.142,0-7.5,3.357-7.5,7.5
			v30c0,4.143,3.358,7.5,7.5,7.5h13.535v59H54.5v-126h403V483.5z M497,342.495H15v-45h15v18.5c0,4.143,3.358,7.5,7.5,7.5h44.183
			c0.033,0,0.064,0.005,0.097,0.005h348.441c0.033,0,0.064-0.004,0.097-0.005H474.5c4.142,0,7.5-3.357,7.5-7.5v-18.5h15V342.495z"/>
	</g>
</g>
<g>
</g>
<g>
</g>
<g>
</g>
<g>
</g>
<g>
</g>
<g>
</g>
<g>
</g>
<g>
</g>
<g>
</g>
<g>
</g>
<g>
</g>
<g>
</g>
<g>
</g>
<g>
</g>
<g>
</g>
</svg>
