<?xml version="1.0" encoding="iso-8859-1"?>
<!-- Generator: Adobe Illustrator 19.0.0, SVG Export Plug-In . SVG Version: 6.00 Build 0)  -->
<svg version="1.1" id="Capa_1" xmlns="http://www.w3.org/2000/svg" xmlns:xlink="http://www.w3.org/1999/xlink" x="0px" y="0px"
	 viewBox="0 0 512 512" style="enable-background:new 0 0 512 512;" xml:space="preserve">
<g>
	<g>
		<path d="M509.784,68.329l-49-48.65c-2.482-2.465-6.336-2.887-9.293-1.017c-6.879,4.35-11.318,7.613-10.398,13.134
			c0.571,3.416,0.077,9.367-4.594,19.214c-2.277-0.354-4.684,0.333-6.442,2.081L399.62,83.306c-1.377,1.367-2.162,3.213-2.207,5.149
			l-61.356,61.049l-9.506-9.458l3.706-8.044c7.923-16.526,7.166-35.8-2.028-51.57l-31.13-53.36
			c-2.089-3.578-6.679-4.787-10.258-2.699c-3.578,2.088-4.786,6.68-2.699,10.258l31.129,53.358
			c6.693,11.48,7.231,25.526,1.439,37.572c-0.018,0.037-0.035,0.074-0.052,0.112l-1.431,3.106l-8.367-8.325
			c-2.926-2.912-7.654-2.912-10.58,0l-29.768,29.619c-2.937,2.922-2.948,7.67-0.026,10.606c2.922,2.935,7.671,2.947,10.606,0.026
			l24.478-24.355l23.853,23.734l-76.621,76.159l-23.813-23.694l29.452-29.306c2.937-2.922,2.948-7.67,0.026-10.606
			c-2.923-2.936-7.672-2.948-10.606-0.026L2.21,413.056C0.795,414.463,0,416.377,0,418.372c0,1.996,0.795,3.909,2.21,5.316
			l68.973,68.628c1.463,1.456,3.377,2.184,5.29,2.184c1.913,0,3.827-0.728,5.29-2.184l23.45-23.334l24.371-24.249
			c2.937-2.921,2.948-7.67,0.026-10.606c-2.923-2.936-7.672-2.949-10.606-0.026l-19.081,18.985l-58.34-58.048l149.322-148.576
			l58.34,58.048L141.682,411.536c-2.937,2.922-2.948,7.67-0.026,10.606c2.921,2.936,7.67,2.948,10.606,0.026l256.254-254.974
			c2.937-2.922,2.948-7.67,0.026-10.606c-2.923-2.936-7.672-2.948-10.606-0.026L283.328,270.597l-23.853-23.734l146.919-146.184
			c0.001-0.001,0,0,0.001-0.001l23.854,23.732l-9.63,9.582c-2.937,2.922-2.948,7.67-0.026,10.606
			c2.922,2.936,7.671,2.947,10.606,0.026l11.662-11.604c1.652-0.167,3.259-0.877,4.527-2.138l30.437-30.217
			c1.418-1.408,2.216-3.324,2.216-5.322c0-0.734-0.11-1.456-0.316-2.146c9.608-4.649,15.258-5.426,18.452-5.104
			c5.204,0.517,8.235-3.575,12.624-10.375C512.723,74.742,512.299,70.826,509.784,68.329z M89.29,463.666L76.473,476.42
			l-58.34-58.048l12.817-12.754L89.29,463.666z M272.695,281.177l-12.817,12.753l-58.339-58.048l12.817-12.753L272.695,281.177z
			 M442.104,114.992l-26.552-26.366l19.789-19.645l26.555,26.362L442.104,114.992z M469.373,81.63l-20.99-20.838
			c4.822-9.31,7.424-17.416,7.843-24.502l37.195,36.93C486.625,73.939,478.671,76.727,469.373,81.63z"/>
	</g>
</g>
<g>
</g>
<g>
</g>
<g>
</g>
<g>
</g>
<g>
</g>
<g>
</g>
<g>
</g>
<g>
</g>
<g>
</g>
<g>
</g>
<g>
</g>
<g>
</g>
<g>
</g>
<g>
</g>
<g>
</g>
</svg>
