<?xml version="1.0" encoding="iso-8859-1"?>
<!-- Generator: Adobe Illustrator 19.0.0, SVG Export Plug-In . SVG Version: 6.00 Build 0)  -->
<svg version="1.1" id="Capa_1" xmlns="http://www.w3.org/2000/svg" xmlns:xlink="http://www.w3.org/1999/xlink" x="0px" y="0px"
	 viewBox="0 0 512 512" style="enable-background:new 0 0 512 512;" xml:space="preserve">
<g>
	<g>
		<path d="M488.158,177.616l-24.198-3.248V138.93c0-4.143-3.357-7.5-7.5-7.5h-60c-4.143,0-7.5,3.357-7.5,7.5v25.387l-12.66-1.698
			V129.7c0-4.143-3.357-7.5-7.5-7.5h-60c-4.143,0-7.5,3.357-7.5,7.5v22.867l-12.67-1.699V119.53c0-4.143-3.357-7.5-7.5-7.5h-60
			c-4.142,0-7.5,3.357-7.5,7.5v21.287l-12.667-1.698v-30.785c0-4.143-3.358-7.5-7.5-7.5h-60c-4.142,0-7.5,3.357-7.5,7.5v20.734
			l-12.667-1.699V96c0-4.143-3.358-7.5-7.5-7.5h-60c-4.142,0-7.5,3.357-7.5,7.5v21.315l-7.138-0.958
			c-7.862-1.058-15.796,1.334-21.765,6.557C3.423,128.135,0,135.679,0,143.61v172.78c0,7.932,3.423,15.476,9.393,20.697
			c5.042,4.411,11.486,6.801,18.104,6.801c1.217,0,2.44-0.081,3.661-0.244l7.138-0.958V364c0,4.143,3.358,7.5,7.5,7.5h60
			c4.142,0,7.5-3.357,7.5-7.5v-31.368l12.667-1.699v20.734c0,4.143,3.358,7.5,7.5,7.5h60c4.142,0,7.5-3.357,7.5-7.5v-30.785
			l12.667-1.698v21.287c0,4.143,3.358,7.5,7.5,7.5h60c4.143,0,7.5-3.357,7.5-7.5v-23.673l12.67,12.67v0.833
			c0,1.001,0.2,1.955,0.556,2.828l-23.008,23.009c-7.985,7.983-7.987,20.984-0.001,28.987c3.997,3.997,9.248,5.995,14.498,5.995
			c5.251,0,10.502-1.998,14.499-5.995l24.557-24.557l17.564,17.563c1.465,1.464,3.385,2.196,5.304,2.196
			c1.919,0,3.839-0.732,5.304-2.196c2.929-2.93,2.929-7.678,0-10.607l-17.564-17.563l7.772-7.773l56.932,56.931
			c1.037,1.035,1.607,2.414,1.607,3.882c0,1.468-0.57,2.847-1.618,3.893c-1.034,1.036-2.413,1.607-3.881,1.607
			c-1.469,0-2.848-0.571-3.887-1.613l-16.736-16.736c-2.93-2.928-7.678-2.928-10.607,0c-2.929,2.93-2.929,7.678,0,10.607
			l16.732,16.731c3.869,3.876,9.019,6.011,14.499,6.011c5.479-0.001,10.628-2.136,14.486-6.001
			c3.877-3.869,6.012-9.019,6.012-14.499s-2.135-10.63-6.006-14.494L367.607,337.8h1.192c4.143,0,7.5-3.357,7.5-7.5v-13.632
			l12.66-12.66v17.063c0,4.143,3.357,7.5,7.5,7.5h60c4.143,0,7.5-3.357,7.5-7.5v-35.439l24.196-3.248
			C501.749,280.563,512,268.847,512,255.13v-50.26C512,191.153,501.749,179.438,488.158,177.616z M98.296,356.5h-45v-22.585
			c0-0.015,0-0.03,0-0.045V198.25c0-4.143-3.358-7.5-7.5-7.5c-4.142,0-7.5,3.357-7.5,7.5v129.3l-9.133,1.226
			c-3.625,0.49-7.141-0.57-9.894-2.979C16.516,323.389,15,320.048,15,316.39V143.61c0-3.658,1.516-6.999,4.269-9.407
			c2.752-2.409,6.265-3.473,9.893-2.979l9.134,1.226v34c0,4.143,3.358,7.5,7.5,7.5c4.142,0,7.5-3.357,7.5-7.5v-40.319
			c0-0.015,0-0.03,0-0.045V103.5h45V356.5z M125.963,315.798l-12.667,1.7V142.502l12.667,1.699V315.798z M213.629,304.049
			l-12.667,1.698v-11.438c0-4.143-3.358-7.5-7.5-7.5c-4.142,0-7.5,3.357-7.5,7.5v49.858h-45V115.833h45V261.75
			c0,4.143,3.358,7.5,7.5,7.5c4.142,0,7.5-3.357,7.5-7.5V154.253l12.667,1.698V304.049z M376.3,177.752l12.66,1.699v66.571
			l-12.66,12.66V177.752z M316.3,137.2h45v136.483L346.883,288.1c-1.039-0.59-2.238-0.932-3.518-0.932
			c-3.943,0-7.14,3.197-7.14,7.14c0,1.28,0.341,2.479,0.932,3.518l-4.76,4.76L316.3,286.492V137.2z M288.63,166.002l12.67,1.699
			v92.908c-1.134-1.809-2.479-3.522-4.051-5.094c-2.563-2.563-5.492-4.536-8.619-5.935V166.002z M273.63,332.971h-45v-0.001V127.03
			h45v120.204c-6.322,0.689-12.458,3.445-17.294,8.281c-5.464,5.465-8.474,12.729-8.474,20.457c0,7.729,3.01,14.993,8.474,20.458
			c4.836,4.836,10.973,7.591,17.294,8.281V332.971z M286.642,285.822c-5.43,5.432-14.269,5.432-19.7,0
			c-2.631-2.631-4.08-6.129-4.08-9.851c0-3.721,1.449-7.219,4.081-9.85c2.714-2.715,6.282-4.073,9.849-4.073
			c3.567,0,7.135,1.358,9.85,4.074C292.074,271.554,292.074,280.391,286.642,285.822z M292.987,299.941
			c1.502-1.016,2.932-2.182,4.261-3.511c1.329-1.329,2.496-2.759,3.511-4.262l21.028,21.028l-7.772,7.773L292.987,299.941z
			 M297.236,374.517c-2.146,2.148-5.639,2.145-7.777,0.006c-2.145-2.148-2.146-5.638-0.005-7.778c-0.027,0.027,0,0-0.027,0.027
			l106.977-106.978c1.016,1.504,2.184,2.935,3.514,4.265c1.33,1.329,2.76,2.496,4.263,3.512L297.236,374.517z M448.96,313.57h-45
			v-24.563l16.49-16.49c7.384-0.019,14.761-2.838,20.383-8.458c4.529-4.529,7.235-10.199,8.127-16.094V313.57z M410.525,233.751
			c2.716-2.716,6.283-4.074,9.85-4.074s7.135,1.358,9.851,4.074c5.432,5.432,5.432,14.269,0,19.7
			c-5.431,5.432-14.268,5.434-19.701,0C405.093,248.019,405.093,239.182,410.525,233.751z M448.96,239.237
			c-0.892-5.894-3.598-11.564-8.127-16.094c-10.017-10.015-25.606-11.13-36.873-3.358V146.43h45V239.237z M497,255.13
			c0,6.234-4.658,11.56-10.838,12.387l-22.202,2.979v-80.992l22.204,2.98c6.178,0.827,10.836,6.152,10.836,12.387V255.13z"/>
	</g>
</g>
<g>
	<g>
		<circle cx="76.61" cy="129.7" r="7.5"/>
	</g>
</g>
<g>
	<g>
		<circle cx="76.61" cy="330.3" r="7.5"/>
	</g>
</g>
<g>
	<g>
		<circle cx="163.46" cy="141.95" r="7.5"/>
	</g>
</g>
<g>
	<g>
		<circle cx="163.46" cy="317.5" r="7.5"/>
	</g>
</g>
<g>
	<g>
		<circle cx="251.13" cy="153.95" r="7.5"/>
	</g>
</g>
<g>
	<g>
		<circle cx="251.13" cy="304.95" r="7.5"/>
	</g>
</g>
<g>
	<g>
		<circle cx="338.8" cy="166.45" r="7.5"/>
	</g>
</g>
<g>
	<g>
		<circle cx="426.82" cy="182.45" r="7.14"/>
	</g>
</g>
<g>
	<g>
		<circle cx="426.82" cy="283.84" r="7.14"/>
	</g>
</g>
<g>
</g>
<g>
</g>
<g>
</g>
<g>
</g>
<g>
</g>
<g>
</g>
<g>
</g>
<g>
</g>
<g>
</g>
<g>
</g>
<g>
</g>
<g>
</g>
<g>
</g>
<g>
</g>
<g>
</g>
</svg>
