<?xml version="1.0" encoding="iso-8859-1"?>
<!-- Generator: Adobe Illustrator 19.0.0, SVG Export Plug-In . SVG Version: 6.00 Build 0)  -->
<svg version="1.1" id="Capa_1" xmlns="http://www.w3.org/2000/svg" xmlns:xlink="http://www.w3.org/1999/xlink" x="0px" y="0px"
	 viewBox="0 0 512.001 512.001" style="enable-background:new 0 0 512.001 512.001;" xml:space="preserve">
<g>
	<g>
		<path d="M509.804,67.518l-6.437-6.437l4.758-6.102c4.087-5.044,3.761-12.232-0.779-16.773L473.451,4.311
			c-4.569-4.568-11.786-4.871-16.835-0.726l-5.998,4.748l-6.136-6.135c-2.928-2.93-7.677-2.929-10.607,0
			c-2.929,2.929-2.929,7.678,0.001,10.607l4.901,4.901l-7.663,6.065l-4.102-4.102c-2.928-2.93-7.677-2.929-10.607,0
			c-2.929,2.929-2.929,7.678,0.001,10.607l2.868,2.867l-7.662,6.065l-2.069-2.069c-2.93-2.929-7.678-2.929-10.608,0
			c-2.929,2.929-2.929,7.678,0,10.607l2.255,2.255c-1.59,3.944-3.737,11.221-6.86,25.295L266.319,203.297
			c-0.016,0.016,0.026-0.026,0.01-0.01c-27.537-1.921-67.269-3.064-106.339,1.566c-50.044,5.93-86.32,19.838-107.82,41.338
			c-8.322,8.322-15.841,17.425-22.347,27.056c-2.319,3.433-1.416,8.095,2.017,10.414c1.287,0.87,2.747,1.286,4.191,1.286
			c2.408,0,4.773-1.157,6.222-3.302c5.972-8.84,12.877-17.199,20.524-24.847c40.434-40.433,136.219-41.966,189.368-39.327
			l-33.588,33.586c-16.704-6.909-33.391-5.717-43.817,4.71c-15.849,15.849-10.367,46.163,12.482,69.012
			c14.047,14.046,30.911,21.529,45.505,21.529c9.146,0,17.401-2.94,23.507-9.047c7.993-7.992,10.794-19.886,7.886-33.488
			c-0.733-3.429-1.825-6.87-3.227-10.278l33.625-33.625c0.474,9.38,0.773,18.707,0.847,27.863c0.033,4.122,3.385,7.439,7.499,7.439
			c0.021,0,0.041,0,0.062,0c4.143-0.034,7.473-3.419,7.44-7.561c-0.112-13.728-0.686-27.813-1.67-41.919l128.023-128.023
			c14.03-3.113,21.316-5.265,25.276-6.864l2.26,2.26c1.465,1.464,3.385,2.197,5.304,2.197c1.919,0,3.839-0.732,5.304-2.197
			c2.929-2.929,2.929-7.678,0-10.607l-2.115-2.115l6.014-7.712l2.963,2.963c1.465,1.464,3.385,2.197,5.304,2.197
			c1.919,0,3.839-0.732,5.304-2.197c2.929-2.929,2.929-7.678,0-10.607l-4.276-4.276L494.073,73l5.124,5.124
			c1.465,1.464,3.385,2.197,5.304,2.197c1.919,0,3.839-0.732,5.304-2.197C512.733,75.196,512.733,70.446,509.804,67.518z
			 M245.628,326.654c-9.572,9.572-31.461,3.855-47.799-12.482c-16.338-16.338-22.054-38.227-12.482-47.799
			c3.155-3.155,7.649-4.649,12.841-4.649c10.559,0,24.006,6.179,34.959,17.131c5.016,5.016,9.084,10.563,12.002,16.256
			c0.065,0.137,0.134,0.272,0.208,0.405c1.896,3.774,3.288,7.608,4.097,11.391C250.499,311.807,251.395,320.887,245.628,326.654z
			 M253.389,279.786c-2.792-4.035-6.015-7.916-9.636-11.538c-3.676-3.676-7.546-6.896-11.518-9.656l60.25-60.246l21.172,21.172
			L253.389,279.786z M324.263,208.912l-21.172-21.172l17.52-17.519l21.171,21.171L324.263,208.912z M352.388,180.787l-21.171-21.171
			l17.52-17.519l21.171,21.17L352.388,180.787z M380.514,152.661l-21.17-21.17l17.52-17.519l21.17,21.169L380.514,152.661z
			 M408.639,124.536l-21.169-21.169l13.719-13.718l21.169,21.169L408.639,124.536z M487.618,56.884
			c-0.075,0.09-0.144,0.183-0.215,0.276L456.37,96.955c-3.127,1.246-12.32,3.648-21.019,5.642L409.405,76.65
			c1.997-8.711,4.398-17.915,5.638-21.029l49.403-39.103l30.705,30.706L487.618,56.884z"/>
	</g>
</g>
<g>
	<g>
		<path d="M302.621,312.177c-4.123-0.2-7.652,2.995-7.85,7.133c-2.97,62.075-16.652,106.998-39.567,129.914
			c-25.781,25.781-59.04,42.35-93.651,46.654c-30.851,3.838-61.002-2.235-85.901-17.142l23.859-23.859
			c1.407-1.406,2.197-3.314,2.197-5.303s-0.79-3.897-2.197-5.303l-31.78-31.78c-1.406-1.407-3.314-2.197-5.303-2.197
			c-1.989,0-3.897,0.79-5.303,2.197l-23.854,23.853c-10.168-16.995-16.316-36.584-17.873-57.189
			c-1.776-23.512,2.418-47.912,12.128-70.564c1.632-3.807-0.131-8.216-3.938-9.848c-3.805-1.631-8.216,0.13-9.848,3.938
			c-10.658,24.86-15.257,51.695-13.3,77.604c1.831,24.229,9.399,47.234,21.939,66.951l-3.204,3.204
			c-2.929,2.929-2.929,7.678,0,10.607l31.779,31.779c1.464,1.465,3.384,2.197,5.303,2.197s3.839-0.732,5.303-2.197l3.2-3.2
			C87.815,504.294,115.085,512,143.553,512c6.565,0,13.196-0.41,19.85-1.237c37.908-4.714,74.276-22.803,102.407-50.933
			c25.963-25.963,40.748-73,43.943-139.803C309.952,315.889,306.758,312.375,302.621,312.177z M56.259,476.916l-21.173-21.173
			l27.342-27.342l21.173,21.173L56.259,476.916z"/>
	</g>
</g>
<g>
	<g>
		<path d="M201.155,396.174l-85.328-85.328c-2.929-2.929-7.678-2.929-10.607,0l-18.385,18.385c-2.929,2.929-2.929,7.678,0,10.607
			l50.544,50.544c2.929,2.929,7.678,2.929,10.607,0c2.929-2.929,2.929-7.678,0-10.607l-45.241-45.241l7.778-7.778l74.722,74.722
			l-7.778,7.778l-6.865-6.866c-2.929-2.929-7.678-2.929-10.607,0c-2.929,2.929-2.929,7.678,0,10.607l12.169,12.169
			c1.464,1.464,3.384,2.197,5.303,2.197s3.839-0.732,5.303-2.197l18.385-18.385C204.084,403.852,204.084,399.103,201.155,396.174z"
			/>
	</g>
</g>
<g>
</g>
<g>
</g>
<g>
</g>
<g>
</g>
<g>
</g>
<g>
</g>
<g>
</g>
<g>
</g>
<g>
</g>
<g>
</g>
<g>
</g>
<g>
</g>
<g>
</g>
<g>
</g>
<g>
</g>
</svg>
