<?xml version="1.0" encoding="iso-8859-1"?>
<!-- Generator: Adobe Illustrator 19.0.0, SVG Export Plug-In . SVG Version: 6.00 Build 0)  -->
<svg version="1.1" id="Capa_1" xmlns="http://www.w3.org/2000/svg" xmlns:xlink="http://www.w3.org/1999/xlink" x="0px" y="0px"
	 viewBox="0 0 511.999 511.999" style="enable-background:new 0 0 511.999 511.999;" xml:space="preserve">
<g>
	<g>
		<path d="M498.5,152.5H497V136c0-4.142-3.358-7.5-7.5-7.5h-214c-4.142,0-7.5,3.358-7.5,7.5v16.5h-1.5
			c-4.239,0-8.023,1.968-10.5,5.033c-2.477-3.066-6.261-5.033-10.5-5.033H244V136c0-4.142-3.358-7.5-7.5-7.5H96.125
			c-4.142,0-7.5,3.358-7.5,7.5c0,4.142,3.358,7.5,7.5,7.5H229v9H30v-9h34.25c4.142,0,7.5-3.358,7.5-7.5c0-4.142-3.358-7.5-7.5-7.5
			H22.5c-4.142,0-7.5,3.358-7.5,7.5v16.5h-1.5C6.056,152.5,0,158.555,0,166v14c0,7.444,6.056,13.5,13.5,13.5H15v18.17
			c0,4.142,3.358,7.5,7.5,7.5h5.786l6.183,127.194c0.194,3.996,3.491,7.136,7.491,7.136H58v9.5c0,11.304,9.196,20.5,20.5,20.5
			S99,374.303,99,363v-9.5h61v9.5c0,11.304,9.196,20.5,20.5,20.5S201,374.303,201,363v-9.5h16.04c4,0,7.297-3.14,7.491-7.136
			L227.028,295h57.944l2.497,51.364c0.194,3.996,3.491,7.136,7.491,7.136H311v9.5c0,11.304,9.196,20.5,20.5,20.5
			c11.304,0,20.5-9.196,20.5-20.5v-9.5h8.125c4.142,0,7.5-3.358,7.5-7.5c0-4.142-3.358-7.5-7.5-7.5H352v-119.33h61V338.5h-21
			c-4.142,0-7.5,3.358-7.5,7.5c0,4.142,3.358,7.5,7.5,7.5h21v9.5c0,11.304,9.196,20.5,20.5,20.5c11.304,0,20.5-9.196,20.5-20.5v-9.5
			h16.04c4,0,7.297-3.14,7.491-7.136l4.375-90c0.201-4.137-2.99-7.654-7.127-7.855c-4.144-0.201-7.654,2.99-7.855,7.127
			l-4.028,82.864H454v-119.33h14.696l-0.217,4.464c-0.201,4.138,2.99,7.654,7.127,7.855c0.124,0.006,0.248,0.009,0.37,0.009
			c3.975,0,7.29-3.123,7.485-7.136l0.252-5.193h5.786c4.142,0,7.5-3.358,7.5-7.5V193.5h1.5c7.444,0,13.5-6.056,13.5-13.5v-14
			C512,158.555,505.944,152.5,498.5,152.5z M283,143.5h199v9H283V143.5z M245.5,193.5c4.239,0,8.023-1.968,10.5-5.033
			c2.477,3.066,6.261,5.033,10.5,5.033h1.5v5h-24v-5H245.5z M58,338.5h-8.896l-5.801-119.33H58V338.5z M58,204.169H30V193.5h28
			V204.169z M84,363c0,3.033-2.467,5.5-5.5,5.5S73,366.032,73,363V193.5h11V363z M160,338.5H99v-119.33h61V338.5z M160,204.169H99
			V193.5h61V204.169z M186,363c0,3.033-2.467,5.5-5.5,5.5s-5.5-2.467-5.5-5.5V193.5h11V363z M15,178.5v-11h229v11H15z
			 M209.895,338.5H201v-119.33h14.696L209.895,338.5z M201,204.169V193.5h28v10.67H201z M227.757,280l2.957-60.83h5.786
			c3.51,0,6.448-2.414,7.266-5.67h24.469c0.818,3.256,3.756,5.67,7.266,5.67h5.786l2.957,60.83H227.757z M311,338.5h-8.896
			l-5.801-119.33H311V338.5z M311,204.169h-28V193.5h28V204.169z M337,363c0,3.033-2.467,5.5-5.5,5.5c-3.033,0-5.5-2.467-5.5-5.5
			V193.5h11V363z M413,204.169h-61V193.5h61V204.169z M439,363c0,3.033-2.467,5.5-5.5,5.5c-3.033,0-5.5-2.467-5.5-5.5V193.5h11V363z
			 M482,204.169h-28V193.5h28V204.169z M497,178.5H268v-11h229V178.5z"/>
	</g>
</g>
<g>
</g>
<g>
</g>
<g>
</g>
<g>
</g>
<g>
</g>
<g>
</g>
<g>
</g>
<g>
</g>
<g>
</g>
<g>
</g>
<g>
</g>
<g>
</g>
<g>
</g>
<g>
</g>
<g>
</g>
</svg>
