<?xml version="1.0" encoding="iso-8859-1"?>
<!-- Generator: Adobe Illustrator 19.0.0, SVG Export Plug-In . SVG Version: 6.00 Build 0)  -->
<svg version="1.1" id="Capa_1" xmlns="http://www.w3.org/2000/svg" xmlns:xlink="http://www.w3.org/1999/xlink" x="0px" y="0px"
	 viewBox="0 0 512 512" style="enable-background:new 0 0 512 512;" xml:space="preserve">
<g>
	<g>
		<path d="M86,335.548H48c-4.142,0-7.5,3.358-7.5,7.5c0,4.142,3.358,7.5,7.5,7.5h38c4.142,0,7.5-3.358,7.5-7.5
			C93.5,338.906,90.142,335.548,86,335.548z"/>
	</g>
</g>
<g>
	<g>
		<path d="M149,335.548h-38c-4.142,0-7.5,3.358-7.5,7.5c0,4.142,3.358,7.5,7.5,7.5h38c4.142,0,7.5-3.358,7.5-7.5
			C156.5,338.906,153.142,335.548,149,335.548z"/>
	</g>
</g>
<g>
	<g>
		<path d="M212,335.548h-38c-4.142,0-7.5,3.358-7.5,7.5c0,4.142,3.358,7.5,7.5,7.5h38c4.142,0,7.5-3.358,7.5-7.5
			C219.5,338.906,216.142,335.548,212,335.548z"/>
	</g>
</g>
<g>
	<g>
		<path d="M275,335.548h-38c-4.142,0-7.5,3.358-7.5,7.5c0,4.142,3.358,7.5,7.5,7.5h38c4.143,0,7.5-3.358,7.5-7.5
			C282.5,338.906,279.143,335.548,275,335.548z"/>
	</g>
</g>
<g>
	<g>
		<path d="M338,335.548h-38c-4.143,0-7.5,3.358-7.5,7.5c0,4.142,3.357,7.5,7.5,7.5h38c4.143,0,7.5-3.358,7.5-7.5
			C345.5,338.906,342.143,335.548,338,335.548z"/>
	</g>
</g>
<g>
	<g>
		<path d="M401,335.548h-38c-4.143,0-7.5,3.358-7.5,7.5c0,4.142,3.357,7.5,7.5,7.5h38c4.143,0,7.5-3.358,7.5-7.5
			C408.5,338.906,405.143,335.548,401,335.548z"/>
	</g>
</g>
<g>
	<g>
		<path d="M464,335.548h-38c-4.143,0-7.5,3.358-7.5,7.5c0,4.142,3.357,7.5,7.5,7.5h38c4.143,0,7.5-3.358,7.5-7.5
			C471.5,338.906,468.143,335.548,464,335.548z"/>
	</g>
</g>
<g>
	<g>
		<path d="M509.842,165.222l-26.105-26.487c-0.005-0.005-0.011-0.009-0.016-0.014c-0.234-0.236-0.486-0.451-0.749-0.654
			c-0.06-0.047-0.121-0.091-0.182-0.136c-0.268-0.194-0.544-0.377-0.837-0.535c-0.001,0-0.002-0.001-0.003-0.001
			c-0.288-0.156-0.591-0.286-0.901-0.403c-0.065-0.025-0.129-0.049-0.195-0.071c-0.606-0.21-1.245-0.345-1.91-0.393
			c-0.094-0.007-0.187-0.011-0.281-0.014c-0.09-0.003-0.178-0.014-0.268-0.014H96.5c-4.142,0-7.5,3.358-7.5,7.5
			c0,4.142,3.358,7.5,7.5,7.5h374.395v132.608h-22.062c-4.143,0-7.5,3.358-7.5,7.5c0,4.142,3.357,7.5,7.5,7.5h26.423l11.321,11.487
			H25.423l11.322-11.487h378.923c4.143,0,7.5-3.358,7.5-7.5c0-4.142-3.357-7.5-7.5-7.5H41.105V151.5H64c4.142,0,7.5-3.358,7.5-7.5
			c0-4.142-3.358-7.5-7.5-7.5H33.605c-0.096,0-0.19,0.011-0.286,0.014c-0.083,0.003-0.164,0.007-0.247,0.012
			c-0.675,0.048-1.325,0.184-1.939,0.399c-0.057,0.02-0.113,0.041-0.169,0.062c-0.631,0.238-1.22,0.556-1.757,0.946
			c-0.06,0.043-0.119,0.088-0.178,0.133c-0.263,0.203-0.516,0.419-0.75,0.655c-0.005,0.005-0.011,0.009-0.016,0.014L2.158,165.222
			C0.775,166.625,0,168.517,0,170.487V256c0,4.142,3.358,7.5,7.5,7.5s7.5-3.358,7.5-7.5v-82.438l11.105-11.268v126.24L15,299.801
			v-11.926c0-4.142-3.358-7.5-7.5-7.5s-7.5,3.358-7.5,7.5v30.22V368c0,4.142,3.358,7.5,7.5,7.5h497c4.143,0,7.5-3.358,7.5-7.5
			v-49.905V170.487C512,168.517,511.225,166.625,509.842,165.222z M497,360.5H15v-34.905h482V360.5z M497,299.801l-11.105-11.268
			v-126.24L497,173.562V299.801z"/>
	</g>
</g>
<g>
	<g>
		<path d="M312,187.548H200c-6.341,0-11.5,5.159-11.5,11.5v28c0,6.341,5.159,11.5,11.5,11.5h112c6.341,0,11.5-5.159,11.5-11.5v-28
			C323.5,192.707,318.341,187.548,312,187.548z M308.5,223.548h-105v-21h105V223.548z"/>
	</g>
</g>
<g>
</g>
<g>
</g>
<g>
</g>
<g>
</g>
<g>
</g>
<g>
</g>
<g>
</g>
<g>
</g>
<g>
</g>
<g>
</g>
<g>
</g>
<g>
</g>
<g>
</g>
<g>
</g>
<g>
</g>
</svg>
