<?xml version="1.0" encoding="iso-8859-1"?>
<!-- Generator: Adobe Illustrator 19.0.0, SVG Export Plug-In . SVG Version: 6.00 Build 0)  -->
<svg version="1.1" id="Capa_1" xmlns="http://www.w3.org/2000/svg" xmlns:xlink="http://www.w3.org/1999/xlink" x="0px" y="0px"
	 viewBox="0 0 512.001 512.001" style="enable-background:new 0 0 512.001 512.001;" xml:space="preserve">
<g>
	<g>
		<path d="M511.584,142.462c-0.051-4.59-3.543-8.787-8.122-9.764c-4.021-0.855-8.013,1.122-9.717,4.827
			c-8.09,17.677-38.44,31.661-87.772,40.439c-40.149,7.144-79.495,8.359-87.181,8.533h-1.295h-24v-12.5c0-4.142-3.358-7.5-7.5-7.5
			h-7.5v-12h7.5c4.142,0,7.5-3.358,7.5-7.5c0-4.142-3.358-7.5-7.5-7.5h-30c-4.142,0-7.5,3.358-7.5,7.5c0,4.142,3.358,7.5,7.5,7.5
			h7.5v12h-7.5c-4.142,0-7.5,3.358-7.5,7.5v12.5h-7v-12.5c0-4.142-3.358-7.5-7.5-7.5h-7.5v-12h7.5c4.142,0,7.5-3.358,7.5-7.5
			c0-4.142-3.358-7.5-7.5-7.5h-30c-4.142,0-7.5,3.358-7.5,7.5c0,4.142,3.358,7.5,7.5,7.5h7.5v12h-7.5c-4.142,0-7.5,3.358-7.5,7.5
			v12.5h-7v-12.5c0-4.142-3.358-7.5-7.5-7.5h-7.5v-12h7.5c4.142,0,7.5-3.358,7.5-7.5c0-4.142-3.358-7.5-7.5-7.5h-30
			c-4.142,0-7.5,3.358-7.5,7.5c0,4.142,3.358,7.5,7.5,7.5h7.5v12h-7.5c-4.142,0-7.5,3.358-7.5,7.5v12.5H93.655H45v-2.095
			c0-4.142-3.358-7.5-7.5-7.5h-30c-4.142,0-7.5,3.358-7.5,7.5v48.001c0,4.142,3.358,7.5,7.5,7.5h30c4.142,0,7.5-3.358,7.5-7.5
			v-0.905h17.155v3.875c0,4.142,3.358,7.5,7.5,7.5c4.142,0,7.5-3.358,7.5-7.5v-11.279c0-0.032,0.005-0.064,0.005-0.097
			c0-0.033-0.004-0.064-0.005-0.097v-5.903c0-9.098,7.402-16.5,16.5-16.5h223.224c0.254,0.022,0.511,0.032,0.77,0.028l1.305-0.028
			h26.698c9.098,0,16.5,7.402,16.5,16.5v92.002c0,9.098-7.402,16.5-16.5,16.5h-13.239c-4.142,0-7.5,3.358-7.5,7.5
			c0,4.142,3.358,7.5,7.5,7.5h13.239c17.369,0,31.5-14.131,31.5-31.501v-75.584c13.589,1.338,26.235,3.131,37.66,5.36
			c0.485,0.095,0.968,0.14,1.444,0.14c3.516,0,6.655-2.485,7.353-6.066c0.793-4.066-1.86-8.004-5.926-8.797
			c-12.3-2.399-25.909-4.315-40.531-5.713v-1.341c0-7.542-2.667-14.472-7.104-19.901c12.057-1.268,25.257-2.998,38.554-5.364
			c42.621-7.585,72.151-19.141,88.161-34.453c0.243,25.18,0.498,70.823-0.406,101.743c-10.577-10.982-26.225-19.954-46.745-26.773
			c-3.931-1.309-8.176,0.821-9.482,4.752c-1.306,3.931,0.821,8.176,4.752,9.483c24.794,8.239,41.049,19.478,48.31,33.395
			c1.508,2.902,4.419,4.619,7.591,4.619c0.616,0,1.244-0.065,1.872-0.199c4.339-0.924,7.807-4.928,8.07-9.343
			C512.689,240.56,511.878,164.817,511.584,142.462z M30.001,193.996v30.001v0.905h-15v-33.001h15V193.996z M62.194,216.497H45v-15
			h21.836C64.118,205.899,62.452,211.016,62.194,216.497z M174.499,186.496h-15v-5h15V186.496z M226.498,186.496h-15v-5h15V186.496z
			 M278.497,186.496h-15v-5h15V186.496z"/>
	</g>
</g>
<g>
	<g>
		<path d="M300.08,326.499H93.655c-9.098,0-16.5-7.402-16.5-16.5v-42.126c0-4.142-3.358-7.5-7.5-7.5c-4.142,0-7.5,3.358-7.5,7.5
			v42.126c0,17.369,14.131,31.501,31.5,31.501h50.844V372c0,4.142,3.358,7.5,7.5,7.5h30c4.142,0,7.5-3.358,7.5-7.5v-30.501h7V372
			c0,4.142,3.358,7.5,7.5,7.5h30c4.142,0,7.5-3.358,7.5-7.5v-30.501h7V372c0,4.142,3.358,7.5,7.5,7.5h30c4.142,0,7.5-3.358,7.5-7.5
			v-30.501h6.583c4.142,0,7.5-3.358,7.5-7.5C307.58,329.857,304.223,326.499,300.08,326.499z M174.499,364.5h-15v-23h15V364.5z
			 M226.498,364.5h-15v-23h15V364.5z M278.497,364.5h-15v-23h15V364.5z"/>
	</g>
</g>
<g>
	<g>
		<path d="M339.652,216.498h-22.155H99.66h-0.005c-4.142,0-7.5,3.358-7.5,7.5v80.001c0,4.142,3.358,7.5,7.5,7.5h239.997
			c4.142,0,7.5-3.358,7.5-7.5v-80.001C347.152,219.856,343.794,216.498,339.652,216.498z M144.499,231.497v65.001h-37.344v-65.001
			L144.499,231.497L144.499,231.497z M174.499,296.499h-15v-65.001h15V296.499z M196.498,296.499h-7v-65.001h7V296.499z
			 M226.498,296.499h-15v-65.001h15V296.499z M248.498,296.499h-7v-65.001h7V296.499z M278.497,296.498h-15v-65.001h15V296.498z
			 M332.152,231.497v65.001h-38.655v-65.001h24L332.152,231.497L332.152,231.497z"/>
	</g>
</g>
<g>
</g>
<g>
</g>
<g>
</g>
<g>
</g>
<g>
</g>
<g>
</g>
<g>
</g>
<g>
</g>
<g>
</g>
<g>
</g>
<g>
</g>
<g>
</g>
<g>
</g>
<g>
</g>
<g>
</g>
</svg>
