<?xml version="1.0" encoding="iso-8859-1"?>
<!-- Generator: Adobe Illustrator 19.0.0, SVG Export Plug-In . SVG Version: 6.00 Build 0)  -->
<svg version="1.1" id="Capa_1" xmlns="http://www.w3.org/2000/svg" xmlns:xlink="http://www.w3.org/1999/xlink" x="0px" y="0px"
	 viewBox="0 0 512 512" style="enable-background:new 0 0 512 512;" xml:space="preserve">
<g>
	<g>
		<path d="M386.57,340.243l-40.318-40.317c0.353-3.895,0.528-7.934,0.474-12.153c-0.053-4.142-3.478-7.464-7.595-7.404
			c-4.142,0.053-7.457,3.453-7.404,7.595c0.285,22.298-5.921,38.773-18.441,48.964c-6.706,5.452-17.981,13.119-22.385,16.075
			c-9.234,0.153-39.482,1.625-51.999,14.131c-17.052,17.051-20.432,44.495-8.821,71.625c0.714,1.667,0.718,3.613,0.018,5.326
			c-9.825,23.899-41.762,42.987-68.231,49.49c-33.22,8.162-66.33,1.502-94.184-18.721l43.321-35.171
			c1.649-1.339,2.653-3.314,2.763-5.435c0.11-2.122-0.685-4.189-2.187-5.691l-28.153-28.148c-1.502-1.501-3.572-2.304-5.691-2.186
			c-2.121,0.109-4.095,1.113-5.434,2.762L37.115,444.31c-40.349-55.244-18.22-116.374,7.752-145.079
			c2.779-3.071,2.542-7.814-0.53-10.593c-3.071-2.778-7.814-2.541-10.593,0.53C15.369,309.475,3.281,337.392,0.577,365.76
			c-2.193,23.01,0.872,56.951,26.797,90.544l-17.01,20.944c-5.48,6.747-4.853,16.594,1.458,22.904
			c3.434,3.434,7.914,5.184,12.373,5.184c3.735,0,7.456-1.229,10.532-3.726l20.94-17c23.439,18.059,50.413,27.391,78.419,27.39
			c10.354,0,20.853-1.276,31.36-3.858c18.003-4.423,35.097-12.491,49.435-23.332c13.749-10.395,24.08-22.833,29.096-35.034
			c2.216-5.418,2.177-11.586-0.107-16.919c-9.147-21.372-6.986-42.492,5.636-55.113c7.25-7.244,30.598-9.803,43.641-9.755
			c1.516,0.022,2.943-0.422,4.183-1.242c0.666-0.44,16.413-10.859,25.421-18.182c2.614-2.128,4.993-4.463,7.183-6.963l61.58,61.569
			l0.098,0.099c0.001,0.001,0.002,0.002,0.003,0.003l0.509,0.517c1.468,1.49,3.405,2.237,5.344,2.237c1.9,0,3.802-0.718,5.263-2.157
			c1.826-1.799,2.533-4.302,2.12-6.65l0.622-2.188C410.288,378.046,402.868,356.54,386.57,340.243z M51.035,469.049
			c-0.039,0.031-0.077,0.063-0.116,0.094l-25.647,20.822c-0.749,0.609-2,0.425-2.845-0.42c-0.844-0.844-1.028-2.091-0.42-2.841
			l20.844-25.664c0.022-0.028,0.045-0.055,0.067-0.083l35.784-44.06l16.388,16.385L51.035,469.049z M338.453,328.909
			c1.754-3.481,3.23-7.195,4.427-11.141l33.084,33.083c9.496,9.496,15.25,21.235,15.889,31.456L338.453,328.909z"/>
	</g>
</g>
<g>
	<g>
		<path d="M144.99,299.65c-0.01-0.01-0.02-0.01-0.03-0.02c-1.05-0.66-6.37-3.62-14.54-1.99c-9.52,1.89-18.89,9.16-27.82,21.6
			c-7.5,10.44-15.66,15.77-23.6,15.39c-6.08-0.29-10.05-3.76-10.74-4.93c-2.09-3.57-6.69-4.77-10.26-2.68
			c-3.57,2.09-4.77,6.69-2.68,10.26c3.26,5.58,11.85,11.81,22.98,12.33c0.49,0.02,0.98,0.04,1.49,0.04c9.2,0,22.29-3.98,34.99-21.66
			c7.64-10.63,13.68-14.21,17.4-15.34c2.53-0.77,4.19-0.44,4.83-0.24c1.26,0.94,2.81,1.49,4.49,1.49c4.17,0,7.55-3.38,7.55-7.55
			C149.05,303.43,147.4,300.91,144.99,299.65z"/>
	</g>
</g>
<g>
	<g>
		<path d="M212.62,367.44c-1.13-2.73-3.83-4.65-6.97-4.65c-4.18,0-7.56,3.38-7.56,7.56c0,1.67,0.54,3.2,1.46,4.45
			c-0.01-0.03-0.02-0.05-0.03-0.07c0.02,0.04,0.04,0.07,0.06,0.1c-0.02-0.01-0.03-0.02-0.03-0.03c0.17,0.45,0.69,2.18-0.17,5.02
			c-1.13,3.71-4.71,9.75-15.35,17.38c-18.66,13.39-22.06,27.22-21.63,36.46c0.52,11.14,6.76,19.72,12.34,22.98
			c1.19,0.7,2.49,1.03,3.78,1.03c2.57,0,5.08-1.33,6.48-3.71c2.09-3.58,0.89-8.17-2.69-10.26c-1.16-0.69-4.64-4.65-4.93-10.74
			c-0.37-7.93,4.96-16.08,15.39-23.57C222.11,388.34,214.27,370.48,212.62,367.44z"/>
	</g>
</g>
<g>
	<g>
		<path d="M199.52,374.73c0.01,0.02,0.02,0.04,0.03,0.07c0,0.01,0.01,0.02,0.03,0.03C199.56,374.8,199.54,374.77,199.52,374.73z"/>
	</g>
</g>
<g>
	<g>
		<path d="M177.473,373.925l-39.415-39.407c-2.929-2.929-7.678-2.929-10.607,0.001c-2.929,2.929-2.928,7.678,0.001,10.606
			l39.415,39.407c1.464,1.464,3.383,2.196,5.303,2.196c1.919,0,3.839-0.732,5.304-2.197
			C180.403,381.602,180.402,376.853,177.473,373.925z"/>
	</g>
</g>
<g>
	<g>
		<path d="M512,49.486c0-1.989-0.791-3.897-2.197-5.304L467.808,2.197c-2.929-2.929-7.677-2.929-10.606,0l-11.558,11.556
			l-8.864-8.857c-2.93-2.928-7.679-2.927-10.607,0.004c-2.928,2.93-2.926,7.679,0.004,10.606l8.859,8.853l-7.865,7.863
			c-1.407,1.407-2.197,3.314-2.197,5.304c0,0.47,0.048,0.935,0.134,1.391l-0.678,0.599l-11.138-11.138
			c-2.929-2.929-7.678-2.929-10.607,0c-2.929,2.929-2.929,7.678,0,10.606l10.487,10.486l-13.671,12.087l-9.69-9.69
			c-2.929-2.929-7.678-2.929-10.607,0c-2.929,2.929-2.929,7.678,0,10.606l9.038,9.038l-6.934,6.131
			c-3.215,2.843-5.127,6.673-5.244,10.507c-0.094,3.075,0.993,5.907,3.062,7.976l2.105,2.104l-20.742,20.738
			c-2.929,2.929-2.93,7.677-0.001,10.606c1.464,1.465,3.384,2.197,5.304,2.197c0.224,0,0.448-0.012,0.671-0.032l12.571,12.57
			l-19.897,19.89L347.8,152.862l0.675-0.675c2.929-2.929,2.93-7.677,0.001-10.606c-2.928-2.929-7.677-2.93-10.607-0.001
			l-39.809,39.8c-16.561-6.295-39.611-13.47-62.85-15.54c-8.276-0.737-16.005-0.777-23.18-0.13l-92.485-92.483
			c-2.929-2.929-7.678-2.929-10.607,0s-2.929,7.678,0,10.606l19.718,19.717l-7.779,7.779l-4.012-4.012
			c-2.929-2.929-7.678-2.929-10.607,0c-2.929,2.929-2.929,7.678,0,10.606l9.315,9.315c0,0,0,0,0.001,0.001l28.28,28.28
			c0.001,0.001,0.002,0.002,0.003,0.002l26.519,26.518c-2.497,2.191-4.819,4.588-6.95,7.205
			c-7.333,9.007-17.744,24.757-18.184,25.423c-0.818,1.24-1.25,2.695-1.24,4.18c0,0.087,0.041,8.777-1.335,18.851
			c-2.25,16.478-6.242,22.597-8.419,24.776c-12.625,12.625-33.745,14.785-55.132,5.631c-5.353-2.276-11.52-2.307-16.982-0.058
			l-0.343,0.143c-3.816,1.612-5.602,6.011-3.99,9.827c1.611,3.815,6.011,5.604,9.827,3.99l0.277-0.115
			c1.711-0.704,3.657-0.698,5.324,0.01c10.691,4.576,21.43,6.823,31.564,6.823c15.58-0.001,29.731-5.314,40.064-15.646
			c12.505-12.515,13.977-42.758,14.129-51.987c2.951-4.4,10.609-15.668,16.072-22.379c8.603-10.569,20.922-15.799,34.646-17.665
			c0.376-0.021,0.749-0.066,1.119-0.144c25.43-3.105,55.421,5.044,75.546,12.162l-91.69,91.668
			c-1.407,1.407-2.197,3.314-2.197,5.304s0.791,3.897,2.198,5.304l21.94,21.93c1.464,1.463,3.383,2.195,5.302,2.195
			s3.838-0.732,5.302-2.196l75.907-75.882c0.103-0.092,0.209-0.18,0.309-0.279c0.099-0.099,0.185-0.204,0.277-0.307l15.199-15.194
			c3.21,9.073,6.639,20.176,9.132,31.942c0.748,3.528,3.861,5.947,7.33,5.947c0.515,0,1.038-0.053,1.562-0.165
			c4.052-0.858,6.641-4.839,5.782-8.892c-3.303-15.59-8.129-30.016-12.116-40.519l3.124-3.123c0.069-0.064,0.142-0.122,0.21-0.189
			c0.067-0.067,0.125-0.14,0.189-0.209l30.201-30.191c0.036-0.035,0.075-0.064,0.111-0.1c0.035-0.035,0.065-0.074,0.1-0.11
			l30.389-30.379c0.004-0.004,0.008-0.007,0.012-0.011c0.004-0.004,0.007-0.008,0.011-0.012l18.836-18.83l2.082,2.081
			c1.987,1.988,4.679,3.07,7.615,3.07c0.129,0,0.259-0.002,0.39-0.006c3.848-0.125,7.685-2.052,10.526-5.288l6.052-6.893
			l9.058,9.058c1.464,1.465,3.384,2.197,5.303,2.197s3.839-0.732,5.303-2.197c2.929-2.929,2.929-7.677,0-10.606l-9.748-9.748
			l12.047-13.721l10.585,10.585c1.464,1.464,3.384,2.197,5.303,2.197s3.839-0.732,5.303-2.197c2.929-2.929,2.929-7.678,0-10.606
			L472.334,87.42l0.52-0.592c0.531,0.116,1.07,0.181,1.611,0.181c1.919,0,3.838-0.732,5.303-2.196l7.864-7.862l8.86,8.86
			c1.464,1.464,3.384,2.197,5.303,2.197s3.839-0.732,5.303-2.197c2.929-2.929,2.929-7.678,0-10.606l-8.859-8.859l11.559-11.557
			C511.209,53.383,512,51.475,512,49.486z M149.103,139.553l-17.619-17.618l7.779-7.778l17.538,17.537L149.103,139.553z
			 M183.06,173.511l-23.35-23.351l7.698-7.859l26.782,26.782C190.248,170.279,186.538,171.756,183.06,173.511z M221.924,301.364
			l-11.331-11.326l65.592-65.577l11.332,11.332L221.924,301.364z M316.61,206.71c-0.024,0.023-0.047,0.047-0.071,0.07
			l-18.414,18.408l-11.333-11.332l18.426-18.422c0.016-0.016,0.033-0.032,0.049-0.049l1.421-1.421l11.334,11.334L316.61,206.71z
			 M328.631,194.693l-11.334-11.334l19.896-19.891l11.335,11.335L328.631,194.693z M389.641,133.703l-11.338-11.337l13.537-13.534
			l11.341,11.335L389.641,133.703z M423.99,119.754L392.227,88.01l36.621-32.379c0.013-0.011,0.026-0.024,0.039-0.035l5.867-5.187
			l26.691,26.685L423.99,119.754z M474.469,68.906l-31.387-31.381l7.802-7.801c0.023-0.022,0.047-0.041,0.07-0.063
			c0.022-0.022,0.04-0.046,0.062-0.068l11.489-11.487l1.684,1.684c0.024,0.024,0.044,0.051,0.068,0.075l27.63,27.62
			c0.009,0.009,0.018,0.016,0.027,0.024l1.978,1.978L474.469,68.906z"/>
	</g>
</g>
<g>
</g>
<g>
</g>
<g>
</g>
<g>
</g>
<g>
</g>
<g>
</g>
<g>
</g>
<g>
</g>
<g>
</g>
<g>
</g>
<g>
</g>
<g>
</g>
<g>
</g>
<g>
</g>
<g>
</g>
</svg>
