<?xml version="1.0" encoding="iso-8859-1"?>
<!-- Generator: Adobe Illustrator 19.0.0, SVG Export Plug-In . SVG Version: 6.00 Build 0)  -->
<svg version="1.1" id="Capa_1" xmlns="http://www.w3.org/2000/svg" xmlns:xlink="http://www.w3.org/1999/xlink" x="0px" y="0px"
	 viewBox="0 0 512 512" style="enable-background:new 0 0 512 512;" xml:space="preserve">
<g>
	<g>
		<path d="M419,0H93c-9.649,0-17.5,7.851-17.5,17.5v47c0,4.142,3.357,7.5,7.5,7.5c1.319,0,2.558-0.071,3.738-0.193
			c1.603,7.701,3.814,16.981,6.44,26.973c0.885,3.368,3.923,5.596,7.249,5.596c0.631,0,1.272-0.081,1.911-0.248
			c4.006-1.053,6.4-5.154,5.348-9.16c-2.837-10.796-5.17-20.691-6.733-28.515c1.485-1.037,2.818-2.112,4.068-3.123
			c3.967-3.21,6.588-5.331,12.585-5.331s8.618,2.121,12.585,5.331c3.695,2.99,8.102,6.536,15.143,7.99
			c2.092,19.462,10.407,81.446,36.977,153.28H159.28c-12.363-14.444-28.22-50.981-42.924-99.137
			c-1.209-3.962-5.403-6.193-9.363-4.982c-3.961,1.209-6.192,5.401-4.982,9.363c8.574,28.082,24.637,75.358,42.01,99.529
			c-0.332,0.847-0.521,1.767-0.521,2.732v46c0,4.142,3.357,7.5,7.5,7.5h13.346l-30.179,160.584
			c-0.765,4.071,1.915,7.991,5.986,8.756c0.468,0.088,0.934,0.13,1.394,0.13c3.536,0,6.686-2.514,7.362-6.116l30.699-163.355
			h108.734c4.143,0,7.5-3.358,7.5-7.5c0-4.142-3.357-7.5-7.5-7.5H158.5v-31h195v31h-33.157c-4.143,0-7.5,3.358-7.5,7.5
			c0,4.142,3.357,7.5,7.5,7.5h12.049L372.119,497H139.881l3.107-16.531c0.765-4.071-1.915-7.991-5.985-8.756
			c-4.074-0.764-7.991,1.915-8.757,5.986l-3.887,20.68c-0.633,3.374,0.261,6.824,2.453,9.465c2.191,2.641,5.417,4.156,8.85,4.156
			h240.676c3.433,0,6.658-1.515,8.85-4.156c2.192-2.642,3.086-6.092,2.453-9.468l-39.986-212.772H361c4.143,0,7.5-3.358,7.5-7.5v-46
			c0-0.958-0.186-1.87-0.514-2.712c25.365-35.188,49.659-121.559,57.258-157.586C426.429,71.928,427.675,72,429,72
			c4.143,0,7.5-3.358,7.5-7.5v-47C436.5,7.851,428.649,0,419,0z M198.328,224.6c-26.646-70.164-35.55-132.983-37.911-153.586
			c6.275-1.604,10.355-4.887,13.811-7.684c3.967-3.209,6.587-5.33,12.582-5.33c5.996,0,8.616,2.121,12.583,5.33
			c3.611,2.922,7.895,6.381,14.658,7.894c0.492,20.116,2.553,83.456,10.075,153.376H198.328z M274.306,224.6h-35.091
			c-7.574-69.707-9.66-133.12-10.161-153.438c6.603-1.545,10.816-4.95,14.377-7.832c3.967-3.209,6.587-5.33,12.582-5.33
			s8.615,2.121,12.582,5.33c3.82,3.092,8.396,6.782,15.865,8.135C283.946,92.105,281.845,155.216,274.306,224.6z M289.394,224.601
			V224.6c7.571-70.367,9.61-134.071,10.085-153.758c5.904-1.659,9.816-4.813,13.15-7.512c3.965-3.209,6.585-5.33,12.579-5.33
			c5.993,0,8.613,2.12,12.578,5.33c3.719,3.01,8.159,6.583,15.281,8.019c-2.418,20.936-11.368,83.458-37.874,153.252H289.394z
			 M388.167,148.665c-12.673,37.253-25.16,63.969-35.442,75.936H331.21c26.736-72.285,34.989-134.596,37.017-153.643
			c6.151-1.624,10.177-4.863,13.593-7.627c3.967-3.209,6.587-5.33,12.582-5.33s8.614,2.12,12.581,5.33
			c1.248,1.01,2.58,2.084,4.064,3.12C407.275,85.294,398.718,117.648,388.167,148.665z M421.499,55.309
			c-1.716-0.915-3.256-2.162-5.082-3.639C411.645,47.807,405.704,43,394.4,43c-11.305,0-17.245,4.807-22.018,8.67
			C368.415,54.879,365.795,57,359.8,57c-5.994,0-8.614-2.121-12.579-5.33C342.45,47.807,336.51,43,325.207,43
			c-11.304,0-17.244,4.808-22.017,8.67c-3.965,3.209-6.585,5.33-12.578,5.33c-5.995,0-8.615-2.121-12.582-5.33
			c-4.772-3.863-10.713-8.67-22.018-8.67s-17.244,4.807-22.018,8.67c-3.967,3.209-6.587,5.33-12.583,5.33
			c-5.996,0-8.616-2.121-12.583-5.33c-4.773-3.863-10.714-8.67-22.019-8.67s-17.245,4.807-22.018,8.67
			c-3.967,3.209-6.587,5.33-12.582,5.33c-5.997,0-8.618-2.121-12.585-5.331C134.853,47.807,128.911,43,117.605,43
			c-11.306,0-17.247,4.807-22.021,8.669c-1.827,1.479-3.368,2.725-5.085,3.641V17.5c0-1.378,1.121-2.5,2.5-2.5h326
			c1.379,0,2.5,1.122,2.5,2.5V55.309z"/>
	</g>
</g>
<g>
</g>
<g>
</g>
<g>
</g>
<g>
</g>
<g>
</g>
<g>
</g>
<g>
</g>
<g>
</g>
<g>
</g>
<g>
</g>
<g>
</g>
<g>
</g>
<g>
</g>
<g>
</g>
<g>
</g>
</svg>
