<?xml version="1.0" encoding="iso-8859-1"?>
<!-- Generator: Adobe Illustrator 19.0.0, SVG Export Plug-In . SVG Version: 6.00 Build 0)  -->
<svg version="1.1" id="Capa_1" xmlns="http://www.w3.org/2000/svg" xmlns:xlink="http://www.w3.org/1999/xlink" x="0px" y="0px"
	 viewBox="0 0 512 512" style="enable-background:new 0 0 512 512;" xml:space="preserve">
<g>
	<g>
		<path d="M504.5,117.5c4.142,0,7.5-3.358,7.5-7.5V80c0-4.142-3.358-7.5-7.5-7.5H331.504c-3.579-9.688-9.657-21.76-19.783-32.027
			C297.339,25.893,278.592,18.5,256,18.5c-22.592,0-41.339,7.393-55.721,21.973C190.153,50.74,184.075,62.812,180.496,72.5H96
			c-4.142,0-7.5,3.358-7.5,7.5c0,4.142,3.358,7.5,7.5,7.5h401v15H15v-15h48.667c4.142,0,7.5-3.358,7.5-7.5
			c0-4.142-3.358-7.5-7.5-7.5H7.5C3.358,72.5,0,75.858,0,80v30c0,4.142,3.358,7.5,7.5,7.5H30v21H7.5c-4.142,0-7.5,3.358-7.5,7.5v340
			c0,4.142,3.358,7.5,7.5,7.5h60c4.142,0,7.5-3.358,7.5-7.5V191.75c0-4.142-3.358-7.5-7.5-7.5c-4.142,0-7.5,3.358-7.5,7.5V478.5H15
			v-325h45v6.25c0,4.142,3.358,7.5,7.5,7.5c4.142,0,7.5-3.358,7.5-7.5V146c0-4.142-3.358-7.5-7.5-7.5H45v-21h92.5v21H115
			c-4.142,0-7.5,3.358-7.5,7.5v310.238c0,4.142,3.358,7.5,7.5,7.5h60c4.142,0,7.5-3.358,7.5-7.5V146c0-4.142-3.358-7.5-7.5-7.5
			h-22.5v-21h96v21H226c-4.142,0-7.5,3.358-7.5,7.5v237.833c0,4.142,3.358,7.5,7.5,7.5c4.142,0,7.5-3.358,7.5-7.5V153.5h45v268.081
			h-45v-5.747c0-4.142-3.358-7.5-7.5-7.5c-4.142,0-7.5,3.358-7.5,7.5v13.247c0,4.142,3.358,7.5,7.5,7.5h60
			c4.142,0,7.5-3.358,7.5-7.5V146c0-4.142-3.358-7.5-7.5-7.5h-22.5v-21h96v21H337c-4.142,0-7.5,3.358-7.5,7.5v258.301
			c0,4.142,3.358,7.5,7.5,7.5h60c4.142,0,7.5-3.358,7.5-7.5V146c0-4.142-3.358-7.5-7.5-7.5h-22.5v-21h92.25v21H444.5
			c-4.142,0-7.5,3.358-7.5,7.5v235.69c0,4.142,3.358,7.5,7.5,7.5h60c4.142,0,7.5-3.358,7.5-7.5V146c0-4.142-3.358-7.5-7.5-7.5
			h-22.75v-21H504.5z M196.672,72.5c7.828-17.637,24.497-39,59.328-39s51.5,21.363,59.328,39H196.672z M167.5,153.5v295.238h-45
			V153.5H167.5z M389.5,153.5v243.301h-45V153.5H389.5z M497,153.5v220.69h-45V153.5H497z"/>
	</g>
</g>
<g>
</g>
<g>
</g>
<g>
</g>
<g>
</g>
<g>
</g>
<g>
</g>
<g>
</g>
<g>
</g>
<g>
</g>
<g>
</g>
<g>
</g>
<g>
</g>
<g>
</g>
<g>
</g>
<g>
</g>
</svg>
