<?xml version="1.0" encoding="iso-8859-1"?>
<!-- Generator: Adobe Illustrator 19.0.0, SVG Export Plug-In . SVG Version: 6.00 Build 0)  -->
<svg version="1.1" id="Capa_1" xmlns="http://www.w3.org/2000/svg" xmlns:xlink="http://www.w3.org/1999/xlink" x="0px" y="0px"
	 viewBox="0 0 512 512" style="enable-background:new 0 0 512 512;" xml:space="preserve">
<g>
	<g>
		<path d="M477.074,216.773c-2.06-11.688-5.037-23.192-8.94-34.434c-1.358-3.913-5.633-5.984-9.545-4.625
			c-3.913,1.358-5.984,5.632-4.625,9.545c4.275,12.314,7.371,24.965,9.273,37.841c0.008,0.06,0.018,0.119,0.028,0.179
			c1.486,10.12,2.235,20.378,2.235,30.721c0,115.519-93.981,209.5-209.5,209.5S46.5,371.519,46.5,256
			c0-10.313,0.738-20.517,2.205-30.574c0.027-0.144,0.05-0.288,0.069-0.434c2.458-16.605,6.903-32.807,13.309-48.427
			c1.571-3.833-0.261-8.213-4.094-9.785c-3.833-1.573-8.213,0.262-9.785,4.093c-6.092,14.857-10.523,30.203-13.288,45.902
			C15.288,219.055,0,235.771,0,256c0,20.223,15.28,36.936,34.899,39.223c5.645,32.218,18.233,62.608,37.022,89.381
			c-12.248,15.491-11.236,38.116,3.057,52.421c7.701,7.694,17.813,11.541,27.93,11.541c8.669,0,17.335-2.836,24.486-8.488
			c26.774,18.79,57.164,31.378,89.382,37.023C219.064,496.72,235.777,512,256,512s36.936-15.28,39.223-34.899
			c32.218-5.645,62.608-18.233,89.381-37.022c7.149,5.653,15.813,8.489,24.484,8.488c10.116-0.001,20.234-3.849,27.938-11.545
			c14.288-14.3,15.301-36.921,3.052-52.416c18.79-26.773,31.378-57.164,37.023-89.382C496.72,292.936,512,276.223,512,256
			C512,235.767,496.706,219.049,477.074,216.773z M32.723,279.539C22.501,276.591,15,267.158,15,256
			c0-11.16,7.503-20.594,17.727-23.54C31.919,240.238,31.5,248.088,31.5,256C31.5,263.918,31.919,271.77,32.723,279.539z
			 M85.585,426.419c-7.885-7.891-9.239-19.862-4.103-29.174c4.922,6.059,10.176,11.904,15.772,17.5s11.441,10.849,17.5,15.772
			C105.44,435.654,93.472,434.3,85.585,426.419z M256,497c-11.158,0-20.591-7.501-23.539-17.723
			c7.769,0.804,15.621,1.223,23.539,1.223c7.918,0,15.77-0.419,23.539-1.223C276.591,489.499,267.158,497,256,497z M426.419,426.415
			c-7.892,7.885-19.862,9.239-29.174,4.103c6.059-4.922,11.904-10.176,17.5-15.772s10.849-11.441,15.771-17.499
			C435.654,406.56,434.299,418.528,426.419,426.415z M479.277,279.539c0.804-7.769,1.223-15.621,1.223-23.539
			c0-7.898-0.408-15.751-1.219-23.538C489.501,235.411,497,244.844,497,256C497,267.158,489.499,276.591,479.277,279.539z"/>
	</g>
</g>
<g>
	<g>
		<path d="M455.004,151.993c-4.494-8.582-9.492-16.783-14.935-24.586c12.258-15.491,11.249-38.124-3.048-52.433
			c-14.287-14.276-36.882-15.298-52.376-3.083c-26.528-18.546-56.979-31.258-89.419-36.969C292.949,15.292,276.231,0,256,0
			c-20.241,0-36.966,15.307-39.23,34.951c-25.8,4.565-50.681,13.605-73.39,26.799c-5.464,3.174-10.769,6.597-15.932,10.212
			C111.956,59.67,89.296,60.67,74.974,74.979c-14.303,14.315-15.304,36.97-3.013,52.467c-3.155,4.506-6.167,9.118-8.987,13.855
			c-2.12,3.558-0.953,8.161,2.607,10.28c3.557,2.118,8.162,0.953,10.281-2.607c18.255-30.657,44.208-56.333,75.054-74.254
			C182.692,56.258,219.03,46.5,256,46.5c45.553,0,88.706,14.615,123.983,40.515c0.095,0.092,0.185,0.188,0.286,0.275
			c0.417,0.362,0.864,0.666,1.329,0.921c15.97,11.964,30.285,26.262,42.426,42.582c0.204,0.324,0.426,0.64,0.685,0.938
			c0.012,0.014,0.025,0.025,0.037,0.038c6.271,8.532,11.954,17.606,16.97,27.183c1.34,2.559,3.949,4.022,6.65,4.022
			c1.172,0,2.362-0.276,3.473-0.857C455.508,160.196,456.925,155.663,455.004,151.993z M81.506,114.791
			c-5.162-9.319-3.816-21.308,4.075-29.206c7.899-7.892,19.883-9.241,29.199-4.089C102.564,91.399,91.41,102.572,81.506,114.791z
			 M256,31.5c-7.886,0-15.745,0.422-23.544,1.242C235.397,22.51,244.835,15,256,15c11.158,0,20.592,7.501,23.539,17.723
			C271.777,31.914,263.923,31.5,256,31.5z M430.538,114.72c-9.948-12.312-21.089-23.452-33.217-33.281
			c9.303-5.087,21.229-3.716,29.094,4.142C434.29,93.463,435.652,105.414,430.538,114.72z"/>
	</g>
</g>
<g>
	<g>
		<path d="M256,61.5C148.752,61.5,61.5,148.752,61.5,256c0,77.63,46.135,147.743,117.534,178.622
			c3.802,1.645,8.217-0.105,9.861-3.907c1.644-3.802-0.105-8.217-3.907-9.861C119.084,392.352,76.5,327.643,76.5,256
			c0-98.977,80.523-179.5,179.5-179.5S435.5,157.023,435.5,256S354.977,435.5,256,435.5c-14.169,0-28.279-1.664-41.939-4.946
			c-4.024-0.966-8.077,1.513-9.044,5.541c-0.968,4.027,1.513,8.077,5.541,9.044c14.806,3.557,30.095,5.361,45.443,5.361
			c107.248,0,194.5-87.252,194.5-194.5S363.248,61.5,256,61.5z"/>
	</g>
</g>
<g>
</g>
<g>
</g>
<g>
</g>
<g>
</g>
<g>
</g>
<g>
</g>
<g>
</g>
<g>
</g>
<g>
</g>
<g>
</g>
<g>
</g>
<g>
</g>
<g>
</g>
<g>
</g>
<g>
</g>
</svg>
