<?xml version="1.0" encoding="iso-8859-1"?>
<!-- Generator: Adobe Illustrator 19.0.0, SVG Export Plug-In . SVG Version: 6.00 Build 0)  -->
<svg version="1.1" id="Capa_1" xmlns="http://www.w3.org/2000/svg" xmlns:xlink="http://www.w3.org/1999/xlink" x="0px" y="0px"
	 viewBox="0 0 512 512" style="enable-background:new 0 0 512 512;" xml:space="preserve">
<g>
	<g>
		<path d="M356.349,471.147c-2.653-3.179-7.384-3.607-10.563-0.952c-18.43,15.381-41.719,24.011-65.577,24.297
			c-0.432,0.005-0.863,0.008-1.295,0.008c-4.238,0-8.436-0.253-12.58-0.746c-0.159-0.026-0.321-0.043-0.484-0.058
			c-22.767-2.817-43.839-12.982-60.433-29.379c-20.027-19.788-31.056-46.186-31.056-74.333c0-25.074,9.016-49.323,25.388-68.28
			c2.708-3.135,2.361-7.871-0.773-10.578c-3.134-2.706-7.871-2.361-10.578,0.774c-18.724,21.681-29.037,49.411-29.037,78.084
			c0,29.591,10.667,57.487,30.181,79.378l-25.419,1.333l-28.799-8.47c-2.266-0.666-4.716-0.227-6.609,1.19
			c-1.893,1.416-3.007,3.641-3.007,6.005v35.081c0,2.31,1.063,4.49,2.884,5.911c1.332,1.04,2.961,1.589,4.616,1.589
			c0.606,0,1.218-0.074,1.818-0.224l28.971-7.239l100.324,4.086c4.804,0.58,9.673,0.875,14.588,0.875
			c0.491,0,0.988-0.003,1.479-0.009c27.298-0.328,53.937-10.194,75.009-27.78C358.577,479.056,359.003,474.327,356.349,471.147z
			 M155.728,491.144l-15.019,3.753v-15.453l15.019,4.417V491.144z M170.731,489.801v-4.432l33.844-1.775
			c3.66,2.917,7.464,5.604,11.398,8.05L170.731,489.801z"/>
	</g>
</g>
<g>
	<g>
		<path d="M390.593,347.23c-0.228-0.768-0.736-2.047-2.125-5.534c-17.089-42.925-30.97-83.85-41.314-121.764l7.577-3.74
			c4.449-2.196,7.776-5.993,9.369-10.69c1.593-4.699,1.26-9.736-0.937-14.183l-3.484-7.052c-4.285-8.672-14.486-12.516-23.344-9.09
			c-7.923-38.047-11.103-70.687-9.432-97.108c0.261-4.134-2.879-7.697-7.013-7.958c-4.142-0.255-7.697,2.878-7.958,7.012
			c-1.809,28.62,1.734,63.871,10.505,104.82l-50.727,25.039c-33.77-42.433-82.318-90.907-133.984-101.503
			c52.242-25.896,146.236-66.974,189.138-85.539c-4.042,7.084-7.302,15.139-9.74,24.088c-1.089,3.996,1.269,8.118,5.265,9.208
			c3.993,1.086,8.119-1.268,9.208-5.265c3.458-12.692,8.724-23.116,15.662-30.995c2.979-3.4,3.161-8.184,0.451-11.904
			c-2.853-3.916-9.093-6.544-14.599-4.167c-36.255,15.619-158.773,68.753-213.124,96.724c-4.58,2.351-7.327,8.206-6.254,13.33
			c0.892,4.258,4.359,7.295,8.631,7.557c22.028,1.348,46.058,11.763,71.423,30.955c21.057,15.933,42.627,37.577,64.203,64.382
			c-3.66,2.262-6.398,5.691-7.797,9.817c-1.593,4.698-1.26,9.735,0.938,14.184l3.484,7.05c3.234,6.544,9.834,10.343,16.685,10.343
			c2.758,0,5.559-0.617,8.194-1.918l5.722-2.825c4.875,7.082,9.675,14.351,14.374,21.756c-6.851-1.004-15.369-1.777-20.656-1.785
			c-0.033,0-0.064,0-0.098,0c-22.91,0-45.173,6.509-64.383,18.826c-3.487,2.235-4.502,6.874-2.266,10.362
			c2.235,3.487,6.875,4.5,10.361,2.266c16.791-10.765,36.251-16.454,56.282-16.454c0.027,0,0.058,0,0.086,0
			c5.375,0.008,15.34,1.013,21.602,2.119c5.055,6.066,9.878,12.403,14.248,18.455c-10.844-3.907-22.866-5.78-35.96-5.564
			c-23.688,0.38-45.968,9.643-62.736,26.081c-14.007,13.731-22.897,31.271-25.714,50.286c-0.071,0.331-0.114,0.672-0.139,1.018
			c-0.487,3.572-0.786,7.189-0.837,10.847c-0.05,3.596,0.122,7.147,0.495,10.644c0.003,0.037,0.007,0.074,0.011,0.111
			c4.701,43.614,41.32,78.552,86.143,79.974c0.983,0.031,1.961,0.047,2.939,0.047c23.362-0.001,45.368-8.902,62.241-25.246
			c15.23-14.752,24.52-33.851,26.737-54.56c0.017-0.122,0.035-0.242,0.046-0.366c0.317-3.081,0.484-6.196,0.484-9.339
			c0-12.921-2.728-25.418-8.11-37.155c-0.074-0.21-0.157-0.418-0.251-0.624C343.682,316,322.07,277.813,298.812,243.791l34.642-17.1
			c10.406,37.662,24.202,78.163,41.077,120.55c0.665,1.669,1.299,3.262,1.572,3.982c0.073,0.276,0.162,0.549,0.268,0.818
			c5.046,12.916,7.433,26.548,7.097,40.519c-0.476,19.678-6.524,38.756-17.492,55.174c-2.301,3.444-1.374,8.101,2.07,10.402
			c1.28,0.855,2.728,1.265,4.159,1.265c2.421,0,4.798-1.17,6.243-3.335c12.55-18.785,19.47-40.62,20.015-63.144
			C398.844,377.186,396.196,361.816,390.593,347.23z M204.379,388.929c0.014-1.006,0.062-2.007,0.116-3.006h22.486v5.23h-22.576
			C204.393,390.413,204.369,389.675,204.379,388.929z M330.775,443.475c-14.637,14.178-33.876,21.621-54.269,20.981
			c-34.428-1.092-63.026-25.946-70.317-58.303h20.791v18.84c0,0.052,0.007,0.103,0.008,0.155
			c0.083,12.336,10.145,22.347,22.506,22.347c5.762,0,11.024-2.178,15.01-5.751c3.986,3.573,9.247,5.751,15.009,5.751
			c5.762,0,11.024-2.178,15.01-5.751c3.986,3.573,9.247,5.751,15.01,5.751c12.412,0,22.509-10.094,22.509-22.501
			c0-0.026-0.002-0.051-0.002-0.077v-18.764h19.668C348.598,420.246,341.442,433.142,330.775,443.475z M257.002,425.033
			c-0.021,4.118-3.38,7.463-7.508,7.463c-4.141,0-7.51-3.365-7.51-7.501c0-4.137,3.369-7.502,7.51-7.502
			c4.114,0,7.464,3.324,7.506,7.425v0.076C257,425.007,257.002,425.02,257.002,425.033z M256.999,403.783
			c-2.349-0.833-4.874-1.291-7.506-1.291c-2.634,0-5.162,0.459-7.514,1.294v-45.812h0.001c0-4.13,3.359-7.49,7.529-7.49
			c4.13,0,7.49,3.36,7.49,7.49V403.783z M287.02,425.022c-0.016,4.123-3.377,7.473-7.508,7.473c-4.141,0-7.509-3.365-7.509-7.501
			c0-4.137,3.368-7.502,7.509-7.502c4.121,0,7.475,3.334,7.507,7.444v0.057C287.019,425.004,287.02,425.014,287.02,425.022z
			 M287.018,403.783c-2.349-0.833-4.875-1.291-7.507-1.291c-2.634,0-5.162,0.459-7.513,1.294v-45.812h0.001
			c0-4.13,3.36-7.49,7.53-7.49c4.13,0,7.489,3.36,7.489,7.49V403.783z M317.04,425.014c-0.01,4.127-3.374,7.482-7.509,7.482
			c-4.141,0-7.51-3.365-7.51-7.501c0-4.137,3.369-7.502,7.51-7.502c4.128,0,7.487,3.345,7.508,7.463v0.038
			C317.039,425.001,317.04,425.007,317.04,425.014z M317.038,403.785c-2.35-0.834-4.876-1.292-7.508-1.292
			c-2.634,0-5.162,0.459-7.513,1.293v-45.811h0.001c0-4.13,3.36-7.49,7.53-7.49c4.13,0,7.49,3.36,7.49,7.49V403.785z
			 M353.48,389.983c0,0.392-0.023,0.779-0.029,1.17H332.04v-5.23h21.33C353.443,387.27,353.48,388.624,353.48,389.983z
			 M335.89,338.048c0,0.001,0,0.001,0.001,0.002c0.008,0.013,0.018,0.023,0.026,0.036c0.007,0.01,0.013,0.021,0.02,0.031
			c0,0,0.001,0.001,0.001,0.002l0.002-0.001c0.491,0.767,1.114,1.442,1.842,1.984c2.922,5.923,5.727,11.82,8.389,17.667
			c0.087,0.255,0.188,0.507,0.305,0.754c1.886,4.029,3.375,8.172,4.502,12.4h-18.94v-12.949c0-12.401-10.089-22.49-22.53-22.49
			c-5.756,0-11.011,2.176-14.993,5.745c-3.987-3.569-9.252-5.745-15.026-5.745c-5.756,0-11.011,2.176-14.993,5.745
			c-3.988-3.569-9.253-5.745-15.027-5.745c-12.4,0-22.489,10.089-22.489,22.49v12.949h-20.119
			c3.373-12.641,10.097-24.218,19.712-33.644c14.012-13.736,32.648-21.477,52.479-21.795c0.59-0.01,1.169-0.015,1.749-0.015
			C317.776,315.469,333.581,334.909,335.89,338.048z M272.855,239.881c-1.768,0.872-3.919,0.146-4.793-1.621l-3.483-7.049
			c-0.57-1.153-0.357-2.201-0.181-2.724c0.178-0.523,0.647-1.485,1.802-2.056l75.237-37.138c0.509-0.251,1.049-0.37,1.581-0.37
			c1.32,0,2.591,0.731,3.213,1.99l3.484,7.052c0.569,1.152,0.357,2.2,0.18,2.723s-0.646,1.485-1.802,2.055L272.855,239.881z"/>
	</g>
</g>
<g>
</g>
<g>
</g>
<g>
</g>
<g>
</g>
<g>
</g>
<g>
</g>
<g>
</g>
<g>
</g>
<g>
</g>
<g>
</g>
<g>
</g>
<g>
</g>
<g>
</g>
<g>
</g>
<g>
</g>
</svg>
