<?xml version="1.0" encoding="iso-8859-1"?>
<!-- Generator: Adobe Illustrator 19.0.0, SVG Export Plug-In . SVG Version: 6.00 Build 0)  -->
<svg version="1.1" id="Capa_1" xmlns="http://www.w3.org/2000/svg" xmlns:xlink="http://www.w3.org/1999/xlink" x="0px" y="0px"
	 viewBox="0 0 512.001 512.001" style="enable-background:new 0 0 512.001 512.001;" xml:space="preserve">
<g>
	<g>
		<path d="M211.05,484.007c-2.27-3.463-6.919-4.431-10.384-2.161c-19.878,13.027-45.297,17.831-71.571,13.533
			c-26.926-4.405-53.137-18.16-73.804-38.73C29.687,431.169,15.001,397.52,15,364.331c-0.001-26.062,9.021-48.817,26.089-65.804
			c8.556-8.512,17.29-14.358,27.489-18.398c3.851-1.525,5.735-5.883,4.21-9.733c-1.526-3.85-5.886-5.736-9.735-4.21
			c-12.156,4.814-22.497,11.713-32.545,21.71C10.834,307.477-0.001,334.622,0,364.331c0.001,37.151,16.297,74.674,44.708,102.947
			C74.093,496.525,111.883,512,147.767,512c21.858,0,43.009-5.742,61.122-17.61C212.353,492.12,213.321,487.472,211.05,484.007z"/>
	</g>
</g>
<g>
	<g>
		<path d="M216.183,365.932l-70.468-70.126c-2.928-2.912-7.656-2.912-10.582,0l-26.426,26.298c-1.414,1.407-2.209,3.32-2.209,5.315
			s0.795,3.908,2.209,5.315l70.468,70.126c1.463,1.456,3.377,2.184,5.291,2.184s3.828-0.728,5.291-2.184l26.426-26.298
			c1.414-1.407,2.209-3.32,2.209-5.315S217.597,367.339,216.183,365.932z M184.466,386.966l-59.836-59.547l15.794-15.718
			l59.836,59.547L184.466,386.966z"/>
	</g>
</g>
<g>
	<g>
		<path d="M182.549,456.938c-0.917-6.479-4.301-12.213-9.531-16.146c-5.231-3.934-11.679-5.595-18.158-4.679
			c-6.48,0.916-12.214,4.3-16.148,9.529c-8.121,10.794-5.945,26.18,4.85,34.3c4.291,3.227,9.401,4.925,14.677,4.925
			c1.155,0,2.317-0.082,3.481-0.246c6.48-0.916,12.214-4.3,16.148-9.528C181.803,469.864,183.465,463.417,182.549,456.938z
			 M165.881,466.077c-1.525,2.027-3.749,3.339-6.262,3.694c-2.51,0.354-5.013-0.289-7.04-1.815
			c-4.186-3.148-5.029-9.114-1.88-13.299c1.863-2.478,4.716-3.784,7.602-3.784c1.988,0,3.992,0.62,5.699,1.904
			c2.028,1.525,3.341,3.748,3.695,6.26C168.051,461.549,167.407,464.049,165.881,466.077z"/>
	</g>
</g>
<g>
	<g>
		<g>
			<path d="M280.192,191.797c0.013-0.013,0,0,0.013-0.013C280.218,191.77,280.178,191.811,280.192,191.797z"/>
			<path d="M495.63,64.41l12.85-15.629c4.549-5.305,4.712-12.544,0.363-16.885L480.037,3.148c-4.359-4.352-11.622-4.168-16.933,0.41
				l-15.53,12.87L436.093,4.961c-2.93-2.926-7.679-2.924-10.607,0.006c-2.927,2.93-2.924,7.678,0.007,10.605l10.482,10.468
				l-11.744,9.732l-9.499-9.485c-2.932-2.925-7.681-2.923-10.607,0.007c-2.927,2.931-2.924,7.678,0.007,10.605l8.499,8.485
				l-3.81,3.157c-0.408,0.338-0.779,0.719-1.106,1.135l-5.398,6.856l-8.934-8.92c-2.933-2.926-7.68-2.923-10.607,0.007
				s-2.924,7.678,0.007,10.605l10.19,10.174l-7.182,9.121c-2.152,2.733-2.115,6.54-0.032,9.225L280.192,191.797
				c-23.856-18.134-46.595-25.799-67.655-22.775c-33.699,4.835-54.393,35.149-66.758,53.261c-3.078,4.509-5.985,8.767-7.769,10.55
				c-16.348,16.325-30.936,21.171-43.325,24.432c-4.006,1.055-6.398,5.156-5.344,9.161c0.886,3.365,3.924,5.591,7.248,5.591
				c0.632,0,1.274-0.081,1.914-0.249c15.334-4.036,32.017-10.262,50.11-28.327c2.778-2.778,5.769-7.158,9.554-12.703
				c11.683-17.113,29.338-42.974,56.5-46.871c16.494-2.366,34.895,3.896,54.783,18.618l-53.566,53.305l-14.968-14.896
				c-2.926-2.912-7.656-2.912-10.582,0l-26.426,26.298c-1.414,1.408-2.209,3.32-2.209,5.315s0.795,3.908,2.209,5.315l70.468,70.127
				c1.463,1.456,3.377,2.184,5.291,2.184s3.828-0.728,5.291-2.184l26.426-26.298c1.414-1.408,2.209-3.32,2.209-5.315
				s-0.795-3.908-2.209-5.315l-14.922-14.85l15.187-15.112c1.037,1.804,2.318,3.451,3.854,4.928
				c11.527,11.089,32.917,8.983,53.6,6.948c8.79-0.866,23.269-2.29,27.01-0.371c-0.107,1.325-1.172,5.917-9.503,16.929
				c-16.056,21.221-42.555,35.146-60.09,44.361c-8.326,4.375-13.827,7.265-16.736,10.165
				c-21.674,21.616-26.519,41.238-30.793,58.551c-3.295,13.345-6.407,25.949-16.81,39.34c-2.54,3.271-1.948,7.982,1.323,10.522
				c1.368,1.062,2.987,1.577,4.596,1.577c2.236,0,4.45-0.996,5.929-2.899c12.355-15.906,15.999-30.668,19.525-44.945
				c4.174-16.904,8.115-32.869,26.822-51.526c1.343-1.319,7.601-4.608,13.122-7.509c17.578-9.237,46.998-24.698,65.075-48.589
				c8.373-11.068,16.199-23.691,10.761-33.398c-5.968-10.65-21.738-9.098-41.7-7.134c-15.677,1.543-35.19,3.463-41.732-2.83
				c-0.966-0.93-2.167-2.512-2.418-5.897l115.324-114.753c2.936-2.921,2.947-7.669,0.025-10.605
				c-2.719-2.731-7.015-2.928-9.965-0.591l-19.309-19.306l26.767-26.637l19.261,19.224l-4.707,4.633
				c-2.952,2.906-2.989,7.654-0.083,10.605c1.468,1.49,3.406,2.238,5.345,2.238c1.9,0,3.801-0.717,5.262-2.155l5.022-4.943
				c1.109,0.601,2.339,0.909,3.575,0.909c1.629,0,3.265-0.529,4.631-1.602l9.136-7.176l10.205,10.19
				c1.464,1.462,3.382,2.193,5.3,2.193c1.921,0,3.842-0.733,5.307-2.2c2.927-2.93,2.924-7.678-0.007-10.605l-8.923-8.91l6.891-5.412
				c0.427-0.335,0.816-0.716,1.161-1.135l3.098-3.768l8.524,8.511c1.465,1.462,3.382,2.193,5.3,2.193c1.921,0,3.843-0.734,5.307-2.2
				c2.928-2.931,2.924-7.678-0.007-10.605l-9.554-9.539l9.69-11.786l10.625,10.61c1.464,1.462,3.382,2.193,5.3,2.193
				c1.921,0,3.842-0.733,5.307-2.2c2.927-2.93,2.924-7.678-0.007-10.605L495.63,64.41z M239.668,332.054l-59.836-59.547
				l15.794-15.718c0.028,0.029,0,0,0.028,0.029l59.809,59.518L239.668,332.054z M245.831,285.591l-19.314-19.22l42.561-42.353
				l19.27,19.266L245.831,285.591z M298.98,232.704l-19.27-19.267l19.318-19.224l19.27,19.267L298.98,232.704z M328.93,202.902
				l-19.271-19.268l19.318-19.223l19.271,19.268L328.93,202.902z M378.199,153.876l-19.318,19.223l-19.272-19.268l19.318-19.223
				L378.199,153.876z M452.632,93.09l-22.039,17.31L401.7,81.561l17.307-21.981l52.637-43.62l24.389,24.342L452.632,93.09z"/>
		</g>
	</g>
</g>
<g>
	<g>
		<path d="M240.124,388.825c-2.139-3.547-6.746-4.688-10.296-2.551l-37.957,22.875c-9.334,5.62-20.308,7.326-30.905,4.808
			l-10.078-2.399c-0.374-0.889-0.917-1.707-1.613-2.401l-46.749-46.684c-2.928-2.926-7.672-2.926-10.599-0.002l-18.51,18.484
			c-1.409,1.407-2.2,3.315-2.2,5.306c0,1.99,0.791,3.899,2.2,5.306l46.749,46.684c1.464,1.462,3.382,2.193,5.3,2.193
			c1.918,0,3.836-0.731,5.3-2.193l12.993-12.975l13.735,3.27c4.354,1.035,8.753,1.548,13.125,1.548
			c10.128,0,20.107-2.749,28.993-8.099l37.96-22.877C241.119,396.98,242.261,392.372,240.124,388.825z M125.466,422.347
			L89.33,386.261l7.897-7.886l36.136,36.086L125.466,422.347z"/>
	</g>
</g>
<g>
</g>
<g>
</g>
<g>
</g>
<g>
</g>
<g>
</g>
<g>
</g>
<g>
</g>
<g>
</g>
<g>
</g>
<g>
</g>
<g>
</g>
<g>
</g>
<g>
</g>
<g>
</g>
<g>
</g>
</svg>
