<?xml version="1.0" encoding="iso-8859-1"?>
<!-- Generator: Adobe Illustrator 19.0.0, SVG Export Plug-In . SVG Version: 6.00 Build 0)  -->
<svg version="1.1" id="Capa_1" xmlns="http://www.w3.org/2000/svg" xmlns:xlink="http://www.w3.org/1999/xlink" x="0px" y="0px"
	 viewBox="0 0 512 512" style="enable-background:new 0 0 512 512;" xml:space="preserve">
<g>
	<g>
		<g>
			<path d="M121.255,196.76C121.199,196.707,121.309,196.815,121.255,196.76L121.255,196.76z"/>
			<path d="M259.899,335.403L259.899,335.403C259.871,335.375,259.885,335.389,259.899,335.403z"/>
			<path d="M505.873,451.429L377.783,249.08c-2.217-3.5-6.848-4.542-10.349-2.326c-3.5,2.215-4.541,6.849-2.325,10.348
				L493.2,459.454c4.776,7.537,5.069,17.069,0.766,24.88C489.665,492.146,481.45,497,472.526,497H234.989
				c-2,0-3.878-0.779-5.306-2.213c-1.415-1.409-2.194-3.287-2.194-5.287c0-4.136,3.365-7.5,7.5-7.5h237.536
				c3.507,0,6.608-1.836,8.281-4.885c1.696-3.062,1.594-6.66-0.283-9.636L278.49,148.306v-28.038l69.521,109.825
				c1.428,2.255,3.858,3.49,6.344,3.49c1.372,0,2.76-0.376,4.005-1.164c3.5-2.215,4.541-6.849,2.325-10.348l-71.343-112.703
				c-2.831-4.486-6.538-8.335-10.853-11.332V7.5c0-4.142-3.358-7.5-7.5-7.5h-30.001c-4.142,0-7.5,3.358-7.5,7.5v90.536
				c-4.314,2.996-8.02,6.844-10.847,11.323l-64.957,102.617l-25.822-25.822c-2.929-2.93-7.678-2.929-10.607,0
				c-2.929,2.929-2.929,7.678,0,10.606L259.9,335.402c0.028,0.029,0.014,0.015-0.001,0.001l-7.778,7.777L72.057,163.119
				c-2.145-2.145-2.145-5.634,0-7.778c2.145-2.146,5.634-2.144,7.779,0l18.793,18.793c2.929,2.929,7.678,2.929,10.607,0
				c2.929-2.929,2.929-7.678,0-10.606l-18.793-18.793c-7.992-7.993-20.999-7.993-28.992,0c-7.993,7.993-7.993,20.999,0,28.991
				l73.759,73.757L6.106,451.429c-8.973,14.178-7.979,32.545,2.474,45.705C16.079,506.581,27.555,512,40.064,512h45.921
				c12.407,0,22.501-10.093,22.501-22.5c0-6.017-2.346-11.668-6.587-15.894c-4.245-4.26-9.896-6.606-15.914-6.606H49.513
				l25.738-40.662c2.215-3.5,1.174-8.133-2.326-10.349c-3.501-2.215-8.134-1.174-10.349,2.326l-31.127,49.177
				c-1.87,2.965-1.972,6.563-0.289,9.598c1.689,3.075,4.789,4.91,8.295,4.91h46.531c2,0,3.878,0.779,5.306,2.213
				c1.415,1.409,2.194,3.287,2.194,5.287c0,4.136-3.364,7.5-7.5,7.5H40.064c-7.789,0-15.167-3.437-19.737-9.194
				c-6.489-8.169-7.11-19.564-1.546-28.354l127.299-201.1l10.869,10.869L79.748,391.186c-2.215,3.5-1.174,8.133,2.326,10.349
				c1.245,0.788,2.632,1.164,4.004,1.164c2.485,0,4.917-1.234,6.345-3.49l75.398-119.116l75.402,75.4
				c0.071,1.821,0.793,3.621,2.183,5.011l67.583,67.582c4.25,4.25,9.901,6.59,15.911,6.59s11.66-2.341,15.91-6.59c0,0,0,0,0.001,0
				c4.249-4.25,6.59-9.9,6.59-15.91s-2.341-11.661-6.59-15.91l-67.584-67.582c-1.338-1.337-3.129-2.109-5.011-2.182l-81.918-81.916
				l44.33-70.033C237.594,183.514,246.046,190,255.99,190c9.943,0,18.395-6.486,21.362-15.447L462.467,467H234.989
				c-12.407,0-22.501,10.093-22.501,22.5c0,6.017,2.346,11.668,6.587,15.894c4.245,4.26,9.896,6.606,15.913,6.606h237.536
				c14.392,0,27.643-7.83,34.58-20.431C514.048,478.968,513.576,463.586,505.873,451.429z M271.923,344.594l62.28,62.279
				c1.417,1.417,2.197,3.3,2.197,5.304c0,2.003-0.78,3.886-2.196,5.303c-0.001,0-0.001,0-0.001,0
				c-1.416,1.417-3.3,2.197-5.303,2.197c-2.003,0-3.887-0.78-5.303-2.197l-62.281-62.279L271.923,344.594z M233.489,148.305
				l-54.063,85.409l-10.869-10.868l64.932-102.578V148.305z M263.49,102.269c0,0.015,0,0.03,0,0.045V167.5
				c0,4.136-3.364,7.5-7.5,7.5c-4.136,0-7.5-3.364-7.5-7.5v-65.186c0-0.015,0-0.03,0-0.045V15h15V102.269z"/>
		</g>
	</g>
</g>
<g>
</g>
<g>
</g>
<g>
</g>
<g>
</g>
<g>
</g>
<g>
</g>
<g>
</g>
<g>
</g>
<g>
</g>
<g>
</g>
<g>
</g>
<g>
</g>
<g>
</g>
<g>
</g>
<g>
</g>
</svg>
