<?xml version="1.0" encoding="iso-8859-1"?>
<!-- Generator: Adobe Illustrator 19.0.0, SVG Export Plug-In . SVG Version: 6.00 Build 0)  -->
<svg version="1.1" id="Capa_1" xmlns="http://www.w3.org/2000/svg" xmlns:xlink="http://www.w3.org/1999/xlink" x="0px" y="0px"
	 viewBox="0 0 512.006 512.006" style="enable-background:new 0 0 512.006 512.006;" xml:space="preserve">
<g>
	<g>
		<g>
			<path d="M437.229,116.94l-1.28,1.28C436.424,117.744,436.849,117.319,437.229,116.94z"/>
			<path d="M426.704,127.46l-1.442,1.441C425.742,128.422,426.222,127.942,426.704,127.46z"/>
			<path d="M422.252,131.91l-0.305,0.305C422.049,132.113,422.149,132.013,422.252,131.91z"/>
			<path d="M438.74,115.43l-0.012,0.012C438.732,115.438,438.736,115.434,438.74,115.43z"/>
			<path d="M501.255,58.473l8.99-12.448c2.976-4.139,2.116-9.969-2.094-14.177L480.124,3.835
				c-4.208-4.206-10.221-5.047-14.248-2.036l-12.286,9.033l-8.307-8.301c-2.931-2.929-7.68-2.927-10.608,0.004
				c-2.928,2.931-2.927,7.68,0.004,10.608l6.683,6.679l-9.479,6.969c-2.109,1.551-3.451,3.976-3.684,6.66
				c-0.069,0.806-0.311,2.263-1.149,2.957l-7.188,5.954l-7.212-7.213c-2.929-2.929-7.679-2.929-10.608,0
				c-2.93,2.929-2.93,7.679,0,10.608l6.216,6.216l-9.516,7.882c-1.996,1.577-3.246,3.954-3.445,6.571
				c-0.175,2.308,0.461,4.667,1.757,6.793L273.467,196.737c-31.431-22.209-69.653-33.375-108.39-31.513
				c-4.138,0.198-7.331,3.714-7.133,7.852s3.706,7.329,7.852,7.133c34.518-1.656,68.592,8.005,96.888,27.306l-11.123,11.117
				c-5.209-3.399-10.621-6.441-16.198-9.115c0.556-3.346-1.218-6.76-4.481-8.135c-3.279-1.383-6.983-0.251-8.983,2.514
				c-13.376-4.804-27.452-7.61-41.748-8.283c-0.708-3.408-3.726-5.969-7.343-5.969c-3.637,0-6.668,2.589-7.354,6.024
				c-1.006,0.056-2.013,0.121-3.02,0.198c-12.645,0.97-25.016,3.621-36.811,7.806c-1.892-3.053-5.758-4.392-9.194-2.994
				c-3.469,1.412-5.299,5.124-4.467,8.658c-12.677,6.036-24.48,13.934-34.973,23.509c-2.943-2.309-7.212-2.112-9.923,0.599
				c-2.736,2.736-2.915,7.06-0.54,10.005c-9.149,10.274-16.557,21.559-22.228,33.473c-3.687-1.24-7.761,0.549-9.295,4.192
				c-1.549,3.674,0.058,7.879,3.583,9.625c-4.676,13.257-7.349,27.068-8.009,40.96c-4.054,0.101-7.312,3.413-7.312,7.492
				c0,4.105,3.298,7.434,7.388,7.496c0.749,13.265,3.321,26.446,7.735,39.124c-3.814,1.574-5.645,5.935-4.088,9.761
				c1.185,2.911,3.99,4.675,6.95,4.675c0.939,0,1.893-0.178,2.815-0.552c5.822,12.351,13.5,24.037,23.048,34.627
				c-2.874,2.933-2.861,7.639,0.049,10.551c1.465,1.466,3.385,2.199,5.306,2.199c1.903,0,3.805-0.722,5.265-2.161
				c10.006,9.028,21.084,16.506,32.984,22.31c-1.576,3.807,0.213,8.178,4.015,9.78c0.951,0.401,1.938,0.591,2.91,0.591
				c2.895,0,5.642-1.691,6.87-4.502c8.862,3.21,18.088,5.551,27.589,6.977c4.408,0.662,8.814,1.094,13.213,1.35
				c0.096,4.059,3.41,7.322,7.492,7.322c4.048,0,7.339-3.209,7.487-7.221c13.412-0.621,26.628-3.124,39.346-7.473
				c1.285,2.627,3.924,4.214,6.72,4.214c0.942,0,1.9-0.179,2.825-0.555c3.656-1.488,5.496-5.53,4.312-9.227
				c1.682-0.779,3.357-1.579,5.015-2.426c3.689-1.884,5.154-6.402,3.269-10.092s-6.403-5.153-10.092-3.27
				c-1.503,0.768-3.016,1.5-4.537,2.204c-2.069-1.828-5.067-2.448-7.795-1.337c-2.698,1.098-4.404,3.588-4.641,6.303
				c-11.545,3.948-23.427,6.182-35.31,6.741c-1.269-2.342-3.748-3.933-6.599-3.933c-2.824,0-5.281,1.562-6.561,3.868
				c-12.576-0.707-25.004-3.253-36.87-7.615c-0.335-2.555-1.972-4.871-4.519-5.944c-2.518-1.061-5.285-0.636-7.342,0.868
				c-10.712-5.219-20.806-11.987-29.946-20.261c0.627-2.477-0.02-5.21-1.957-7.149c-1.944-1.945-4.689-2.591-7.173-1.955
				c-8.693-9.601-15.666-20.214-20.927-31.437c1.51-2.035,1.959-4.781,0.934-7.299c-1.029-2.526-3.279-4.179-5.79-4.575
				c-4.036-11.499-6.381-23.463-7.044-35.504c2.225-1.302,3.723-3.71,3.723-6.473c0-2.792-1.528-5.222-3.79-6.514
				c0.569-12.511,2.959-24.953,7.166-36.892c2.7-0.219,5.19-1.878,6.315-4.546c1.141-2.706,0.566-5.7-1.221-7.789
				c5.048-10.621,11.638-20.683,19.772-29.851c0.843,0.314,1.73,0.478,2.618,0.478c1.92,0,3.839-0.733,5.304-2.197
				c2.17-2.17,2.728-5.338,1.683-8.026c9.269-8.445,19.676-15.43,30.849-20.794c1.413,1.47,3.363,2.321,5.4,2.321
				c0.942,0,1.9-0.179,2.826-0.555c2.964-1.207,4.731-4.094,4.665-7.113c10.471-3.688,21.444-6.028,32.658-6.888
				c0.717-0.055,1.434-0.098,2.15-0.141c1.022,2.927,3.8,5.031,7.076,5.031c3.3,0,6.097-2.135,7.1-5.097
				c12.421,0.629,24.651,3.054,36.294,7.167c-0.302,3.176,1.46,6.316,4.556,7.62c0.951,0.401,1.938,0.591,2.91,0.591
				c2.204,0,4.324-0.979,5.753-2.686c3.849,1.868,7.61,3.932,11.266,6.189l-36.797,36.777c-1.407,1.406-2.199,3.315-2.199,5.305
				s0.791,3.899,2.198,5.306l31.354,31.345c1.465,1.464,3.384,2.196,5.303,2.196s3.838-0.732,5.302-2.196l36.757-36.74
				c2.491,4.05,4.745,8.23,6.759,12.515c-2.481,2.029-3.467,5.51-2.196,8.633c1.185,2.912,3.99,4.676,6.95,4.676
				c0.199,0,0.399-0.012,0.6-0.029c3.801,11.196,6.055,22.913,6.658,34.805c-2.962,1.003-5.097,3.8-5.097,7.1
				c0,3.276,2.104,6.054,5.031,7.077c-0.045,0.748-0.091,1.496-0.149,2.245c-0.907,11.714-3.43,23.164-7.417,34.052
				c-3.014-0.098-5.915,1.633-7.156,4.578c-1.228,2.913-0.472,6.16,1.649,8.252c-5.268,10.634-12.014,20.55-20.097,29.424
				c-2.688-1.045-5.855-0.487-8.025,1.683c-2.141,2.14-2.71,5.25-1.722,7.914c-0.393,0.349-0.78,0.713-1.176,1.056
				c-3.131,2.712-3.471,7.45-0.758,10.581c1.484,1.713,3.572,2.59,5.673,2.59c1.74,0,3.489-0.603,4.908-1.831
				c0.504-0.436,0.995-0.897,1.495-1.343c1.371,1.109,3.04,1.665,4.711,1.665c1.92,0,3.839-0.733,5.304-2.197
				c2.712-2.712,2.908-6.981,0.599-9.924c9.174-10.054,16.813-21.31,22.745-33.387c0.599,0.15,1.204,0.231,1.803,0.231
				c2.927,0,5.708-1.724,6.915-4.59c1.444-3.426,0.144-7.313-2.895-9.239c4.52-12.258,7.379-25.158,8.401-38.358
				c0.081-1.042,0.15-2.084,0.207-3.126c3.435-0.687,6.023-3.717,6.023-7.354c0-3.618-2.561-6.636-5.969-7.344
				c-0.646-13.703-3.248-27.205-7.694-40.082c2.793-1.965,3.971-5.657,2.629-8.955c-1.338-3.285-4.738-5.101-8.094-4.579
				c-2.82-6.075-6.067-11.964-9.74-17.612l11.128-11.123c19.693,28.948,29.265,63.798,27.045,99.079
				c-2.424,38.507-18.802,74.757-46.117,102.073c-61.808,61.81-162.374,61.81-224.182,0c-61.807-61.81-61.807-162.382,0-224.192
				c20.315-20.316,45.699-34.723,73.409-41.665c4.019-1.007,6.46-5.081,5.453-9.1c-1.007-4.019-5.081-6.461-9.099-5.453
				c-30.344,7.602-58.136,23.374-80.371,45.61c-67.657,67.659-67.657,177.75,0,245.409c33.832,33.834,78.258,50.749,122.699,50.745
				c44.43-0.004,88.875-16.919,122.699-50.745c29.9-29.901,47.827-69.583,50.481-111.739c2.495-39.567-8.572-78.65-31.228-110.799
				l71.815-71.782c2.93-2.929,2.932-7.678,0.003-10.608c-2.714-2.714-6.987-2.91-9.93-0.597l-20.776-20.777l21.239-21.227
				l20.82,20.82c-2.046,2.925-1.77,6.98,0.841,9.592c1.465,1.466,3.385,2.199,5.305,2.199c1.919,0,3.838-0.732,5.303-2.196
				l5.929-5.926c-0.117,0.117-0.225,0.224-0.33,0.329l0.849-0.848c-0.118,0.118-0.236,0.236-0.345,0.345l2.822-2.821
				c-0.576,0.576-1.115,1.114-1.603,1.603l4.612-4.61c-0.486,0.486-0.958,0.958-1.417,1.417l2.2-2.199
				c-0.159,0.159-0.32,0.32-0.477,0.477l3.01-3.009c-0.09,0.09-0.18,0.18-0.27,0.27l2.56-2.559
				c-0.283,0.283-0.565,0.565-0.849,0.848l9.245-9.241c-0.024,0.024-0.051,0.051-0.076,0.076l1.395-1.394
				c-0.013,0.013-0.027,0.027-0.039,0.039l1.499-1.498c-0.001,0.001-0.003,0.003-0.005,0.005l0.02-0.02
				c-0.001,0.001-0.002,0.002-0.003,0.003l0.27-0.27c1.888,1.152,3.959,1.782,6.018,1.782c0.283,0,0.565-0.012,0.847-0.035
				c2.611-0.218,4.969-1.481,6.533-3.483l7.855-9.469l6.23,6.225c1.465,1.463,3.383,2.195,5.302,2.195
				c1.921,0,3.841-0.733,5.306-2.199c2.928-2.931,2.926-7.681-0.004-10.609l-7.214-7.208l5.899-7.11
				c0.729-0.879,2.254-1.145,3.103-1.225c2.689-0.257,5.112-1.636,6.625-3.752l6.848-9.481l6.77,6.765
				c1.465,1.464,3.383,2.195,5.302,2.195c1.921,0,3.841-0.733,5.306-2.199c2.928-2.931,2.927-7.68-0.004-10.608L501.255,58.473z
				 M240.545,292.321l-20.744-20.738l62.393-62.358l20.737,20.739L240.545,292.321z M313.542,219.358l-20.737-20.738l21.239-21.227
				l20.736,20.737L313.542,219.358z M366.63,166.296l-21.238,21.229l-20.736-20.736l21.24-21.228L366.63,166.296z M409.089,123.856
				l-20.732-20.733L407.38,84.11l20.737,20.726L409.089,123.856z M429.798,124.368l1.638-1.637
				C430.902,123.264,430.355,123.811,429.798,124.368z M474.787,69.493c-4.323,0.917-7.936,3.022-10.552,6.175l-10.295,12.41
				c-0.01,0.012-0.021,0.024-0.031,0.037l-9.656,11.64l-0.158-0.158c-0.021-0.022-0.039-0.045-0.06-0.067
				c-0.022-0.022-0.046-0.04-0.068-0.061l-31.51-31.493l11.662-9.66c0.002-0.002,0.004-0.003,0.006-0.005l12.495-10.35
				c3.111-2.577,5.237-6.257,6.134-10.542l28.664-21.074l24.25,24.237L474.787,69.493z"/>
			<path d="M415.295,138.864c-0.556,0.556-0.882,0.882-0.881,0.881L415.295,138.864z"/>
			<path d="M415.613,138.546l-0.318,0.318C415.394,138.765,415.498,138.661,415.613,138.546z"/>
			<path d="M417.335,136.826l-0.873,0.873C416.733,137.427,417.021,137.139,417.335,136.826z"/>
		</g>
	</g>
</g>
<g>
	<g>
		<path d="M167.244,384.882l-40.061-40.042c-2.93-2.93-7.68-2.928-10.608,0.003c-2.929,2.93-2.927,7.68,0.003,10.608l40.062,40.042
			c1.465,1.464,3.383,2.196,5.302,2.196c1.92,0,3.841-0.733,5.305-2.199C170.176,392.56,170.174,387.81,167.244,384.882z"/>
	</g>
</g>
<g>
</g>
<g>
</g>
<g>
</g>
<g>
</g>
<g>
</g>
<g>
</g>
<g>
</g>
<g>
</g>
<g>
</g>
<g>
</g>
<g>
</g>
<g>
</g>
<g>
</g>
<g>
</g>
<g>
</g>
</svg>
