<?xml version="1.0" encoding="iso-8859-1"?>
<!-- Generator: Adobe Illustrator 19.0.0, SVG Export Plug-In . SVG Version: 6.00 Build 0)  -->
<svg version="1.1" id="Capa_1" xmlns="http://www.w3.org/2000/svg" xmlns:xlink="http://www.w3.org/1999/xlink" x="0px" y="0px"
	 viewBox="0 0 512 512" style="enable-background:new 0 0 512 512;" xml:space="preserve">
<g>
	<g>
		<path d="M380.959,168.309c-2.929-2.928-7.678-2.929-10.608,0.001L82.855,455.809c-2.906-1.881-6.826-1.551-9.373,0.995
			c-2.929,2.929-2.929,7.678,0,10.606l1.216,1.215L49.43,493.893l-31.324-31.325L43.374,437.3l7.037,7.038
			c2.929,2.929,7.678,2.93,10.606,0c2.93-2.929,2.93-7.677,0.001-10.606l-4.708-4.709l45.969-45.97
			c2.929-2.929,2.929-7.678,0-10.606c-2.93-2.929-7.678-2.929-10.607,0l-46.883,46.884c-0.463-0.089-0.936-0.137-1.415-0.137
			c-1.989,0-3.896,0.79-5.304,2.197L2.197,457.266c-2.929,2.929-2.929,7.678,0,10.606l41.931,41.931
			c1.407,1.407,3.314,2.197,5.304,2.197s3.896-0.79,5.304-2.197l35.874-35.875c1.827-1.827,2.513-4.361,2.061-6.721l288.288-288.292
			C383.888,175.986,383.888,171.237,380.959,168.309z"/>
	</g>
</g>
<g>
	<g>
		<path d="M509.804,28.062L483.94,2.197c-2.469-2.469-6.314-2.908-9.277-1.058c-5.542,3.462-21.617,13.025-29.336,15.667
			c-11.487,3.931-36.785,35.574-47.461,49.444L114.299,349.82c-2.929,2.929-2.929,7.678,0,10.606
			c1.465,1.464,3.384,2.197,5.304,2.197c1.919,0,3.839-0.732,5.304-2.197L403.511,81.819l26.665,26.665l-37.201,37.201
			c-2.929,2.929-2.929,7.678,0,10.606c2.93,2.929,7.678,2.929,10.607,0l42.162-42.163c13.869-10.676,45.511-35.974,49.442-47.462
			c2.638-7.707,12.208-23.783,15.673-29.327C512.711,34.379,512.273,30.531,509.804,28.062z M481.004,61.784
			c-1.938,4.949-21.112,22.106-39.604,36.71l-27.9-27.9c14.601-18.492,31.754-37.664,36.684-39.596
			c7.717-2.641,20.299-9.844,27.314-14.029l17.531,17.532C490.843,41.514,483.639,54.086,481.004,61.784z"/>
	</g>
</g>
<g>
	<g>
		<circle cx="343.96" cy="168.19" r="7.5"/>
	</g>
</g>
<g>
	<g>
		<circle cx="298.4" cy="213.74" r="7.5"/>
	</g>
</g>
<g>
	<g>
		<circle cx="252.85" cy="259.29" r="7.5"/>
	</g>
</g>
<g>
	<g>
		<circle cx="207.3" cy="304.85" r="7.5"/>
	</g>
</g>
<g>
	<g>
		<circle cx="161.75" cy="350.4" r="7.5"/>
	</g>
</g>
<g>
</g>
<g>
</g>
<g>
</g>
<g>
</g>
<g>
</g>
<g>
</g>
<g>
</g>
<g>
</g>
<g>
</g>
<g>
</g>
<g>
</g>
<g>
</g>
<g>
</g>
<g>
</g>
<g>
</g>
</svg>
