<?xml version="1.0" encoding="iso-8859-1"?>
<!-- Generator: Adobe Illustrator 19.0.0, SVG Export Plug-In . SVG Version: 6.00 Build 0)  -->
<svg version="1.1" id="Capa_1" xmlns="http://www.w3.org/2000/svg" xmlns:xlink="http://www.w3.org/1999/xlink" x="0px" y="0px"
	 viewBox="0 0 512 512" style="enable-background:new 0 0 512 512;" xml:space="preserve">
<g>
	<g>
		<path d="M504.5,418.5h-46.061L429.5,382.981V251.5h5.5c4.142,0,7.5-3.358,7.5-7.5v-20.125c0-4.142-3.358-7.5-7.5-7.5
			c-4.142,0-7.5,3.358-7.5,7.5V236.5h-54.223c-11.995-26.69-32.839-48.576-58.777-61.895V165.5h113v26.375
			c0,4.142,3.358,7.5,7.5,7.5c4.142,0,7.5-3.358,7.5-7.5v-26.526c3.423-0.695,6-3.721,6-7.349v-24c0-4.142-3.358-7.5-7.5-7.5h-11.5
			v-26H474c2.31,0,4.49-1.064,5.912-2.884c1.422-1.82,1.925-4.194,1.364-6.435c-0.289-1.158-7.327-27.183-51.776-29.513V56
			c0-4.142-3.358-7.5-7.5-7.5c-4.142,0-7.5,3.358-7.5,7.5v5.79c-42.475,2.953-51.242,27.72-51.615,28.839
			c-0.762,2.287-0.379,4.801,1.031,6.757c1.41,1.956,3.674,3.115,6.084,3.115h44.5v26H301c-4.142,0-7.5,3.358-7.5,7.5v24
			c0,3.628,2.577,6.654,6,7.349v2.736c-13.592-4.905-28.238-7.585-43.5-7.585c-15.262,0-29.908,2.68-43.5,7.585v-2.736
			c3.423-0.695,6-3.721,6-7.349v-24c0-4.142-3.358-7.5-7.5-7.5h-50.75c-4.142,0-7.5,3.358-7.5,7.5c0,4.142,3.358,7.5,7.5,7.5h43.25
			v9h-125v-9H128c4.142,0,7.5-3.358,7.5-7.5c0-4.142-3.358-7.5-7.5-7.5H97.5v-26H141c2.31,0,4.49-1.064,5.912-2.884
			s1.925-4.194,1.364-6.435c-0.287-1.149-7.224-26.789-50.776-29.454V56c0-4.142-3.358-7.5-7.5-7.5c-4.142,0-7.5,3.358-7.5,7.5
			v5.726c-43.336,2.631-52.24,27.775-52.615,28.902c-0.762,2.287-0.379,4.801,1.031,6.757c1.41,1.956,3.674,3.115,6.084,3.115h45.5
			v26H71c-4.142,0-7.5,3.358-7.5,7.5v24c0,3.628,2.577,6.654,6,7.349V244c0,4.142,3.358,7.5,7.5,7.5h5.5v131.481L53.561,418.5H7.5
			c-4.142,0-7.5,3.358-7.5,7.5v30c0,4.142,3.358,7.5,7.5,7.5h497c4.142,0,7.5-3.358,7.5-7.5v-30
			C512,421.858,508.642,418.5,504.5,418.5z M53.164,85.5c6.721-4.569,18.076-9,36.836-9c18.962,0,29.856,4.459,36.034,9H53.164z
			 M429.5,406.729l9.59,11.771h-9.59V406.729z M378.913,251.5H414.5v131.481L385.561,418.5H351.09l-17.485-27.153
			C364.508,367.858,384.5,330.722,384.5,289C384.5,275.959,382.541,263.369,378.913,251.5z M414.5,406.729V418.5h-9.59
			L414.5,406.729z M386.164,85.5c6.721-4.569,18.076-9,36.836-9c18.962,0,29.856,4.459,36.034,9H386.164z M308.5,141.5h125v9h-125
			V141.5z M256,175.5c62.584,0,113.5,50.916,113.5,113.5S318.584,402.5,256,402.5S142.5,351.584,142.5,289S193.416,175.5,256,175.5z
			 M333.25,418.5h-154.5l12.096-18.785C209.962,411.008,232.236,417.5,256,417.5c23.764,0,46.038-6.492,65.154-17.785L333.25,418.5z
			 M97.5,382.981V251.5h35.587c-3.628,11.869-5.587,24.459-5.587,37.5c0,41.722,19.992,78.858,50.894,102.347L160.909,418.5h-34.471
			L97.5,382.981z M107.09,418.5H97.5v-11.771L107.09,418.5z M84.5,165.5h113v9.105c-25.938,13.318-46.782,35.204-58.777,61.895H84.5
			V165.5z M82.5,406.729V418.5h-9.59L82.5,406.729z M497,448.5H15v-15h482V448.5z"/>
	</g>
</g>
<g>
	<g>
		<path d="M256,186.5c-56.519,0-102.5,45.981-102.5,102.5c0,0.763,0.008,1.524,0.025,2.284c0.092,4.142,3.542,7.447,7.665,7.332
			c4.141-0.092,7.423-3.523,7.332-7.665c-0.014-0.648-0.021-1.299-0.021-1.951c0-48.248,39.252-87.5,87.5-87.5
			s87.5,39.252,87.5,87.5s-39.252,87.5-87.5,87.5c-36.189,0-69.104-22.785-81.904-56.697c-1.462-3.875-5.79-5.833-9.665-4.368
			c-3.875,1.462-5.831,5.79-4.368,9.665c14.99,39.716,53.544,66.4,95.937,66.4c56.519,0,102.5-45.981,102.5-102.5
			C358.501,232.481,312.519,186.5,256,186.5z"/>
	</g>
</g>
<g>
</g>
<g>
</g>
<g>
</g>
<g>
</g>
<g>
</g>
<g>
</g>
<g>
</g>
<g>
</g>
<g>
</g>
<g>
</g>
<g>
</g>
<g>
</g>
<g>
</g>
<g>
</g>
<g>
</g>
</svg>
